G04 #@! TF.GenerationSoftware,KiCad,Pcbnew,5.1.6-c6e7f7d~87~ubuntu18.04.1*
G04 #@! TF.CreationDate,2020-11-11T15:50:36+02:00*
G04 #@! TF.ProjectId,ESP32-S2-DevKit-USB_Rev_B,45535033-322d-4533-922d-4465764b6974,B*
G04 #@! TF.SameCoordinates,Original*
G04 #@! TF.FileFunction,Soldermask,Bot*
G04 #@! TF.FilePolarity,Negative*
%FSLAX46Y46*%
G04 Gerber Fmt 4.6, Leading zero omitted, Abs format (unit mm)*
G04 Created by KiCad (PCBNEW 5.1.6-c6e7f7d~87~ubuntu18.04.1) date 2020-11-11 15:50:36*
%MOMM*%
%LPD*%
G01*
G04 APERTURE LIST*
%ADD10C,1.879600*%
%ADD11R,1.879600X1.879600*%
%ADD12C,1.501600*%
%ADD13R,1.501600X1.501600*%
%ADD14C,0.701600*%
%ADD15O,1.301600X1.901600*%
%ADD16C,0.801600*%
%ADD17R,0.609600X0.863600*%
%ADD18O,1.601600X1.101600*%
G04 APERTURE END LIST*
D10*
X156210000Y-118110000D03*
X156210000Y-74930000D03*
X156210000Y-72390000D03*
X156210000Y-69850000D03*
D11*
X156210000Y-67310000D03*
D10*
X156210000Y-77470000D03*
X156210000Y-80010000D03*
X156210000Y-85090000D03*
X156210000Y-82550000D03*
X156210000Y-87630000D03*
X156210000Y-90170000D03*
X156210000Y-95250000D03*
X156210000Y-92710000D03*
X156210000Y-97790000D03*
X156210000Y-100330000D03*
X156210000Y-105410000D03*
X156210000Y-102870000D03*
X156210000Y-113030000D03*
X156210000Y-115570000D03*
X156210000Y-110490000D03*
X156210000Y-107950000D03*
D12*
X152384760Y-116222780D03*
D13*
X150355300Y-116225320D03*
D14*
X141510000Y-113797000D03*
X145510000Y-113797000D03*
D15*
X139910000Y-115947000D03*
X139910000Y-112477000D03*
X147110000Y-112477000D03*
X147110000Y-115947000D03*
D16*
X134758000Y-94996000D03*
X132958000Y-94996000D03*
D17*
X135255000Y-82550000D03*
X134493000Y-82550000D03*
X135255000Y-80518000D03*
X134493000Y-80518000D03*
D16*
X152135000Y-94996000D03*
X153935000Y-94996000D03*
D10*
X130810000Y-118110000D03*
X130810000Y-74930000D03*
X130810000Y-72390000D03*
X130810000Y-69850000D03*
D11*
X130810000Y-67310000D03*
D10*
X130810000Y-77470000D03*
X130810000Y-80010000D03*
X130810000Y-85090000D03*
X130810000Y-82550000D03*
X130810000Y-87630000D03*
X130810000Y-90170000D03*
X130810000Y-95250000D03*
X130810000Y-92710000D03*
X130810000Y-97790000D03*
X130810000Y-100330000D03*
X130810000Y-105410000D03*
X130810000Y-102870000D03*
X130810000Y-113030000D03*
X130810000Y-115570000D03*
X130810000Y-110490000D03*
X130810000Y-107950000D03*
D13*
X142320000Y-75234000D03*
D17*
X146431000Y-101473000D03*
X145669000Y-101473000D03*
D18*
X136525000Y-105868000D03*
X136525000Y-104618000D03*
X136525000Y-103368000D03*
X136525000Y-102118000D03*
X136525000Y-100868000D03*
X136525000Y-99618000D03*
D17*
X137795000Y-100838000D03*
X138557000Y-100838000D03*
M02*
