G04 #@! TF.GenerationSoftware,KiCad,Pcbnew,5.1.6-c6e7f7d~87~ubuntu18.04.1*
G04 #@! TF.CreationDate,2020-11-11T15:50:36+02:00*
G04 #@! TF.ProjectId,ESP32-S2-DevKit-USB_Rev_B,45535033-322d-4533-922d-4465764b6974,B*
G04 #@! TF.SameCoordinates,Original*
G04 #@! TF.FileFunction,Copper,L2,Bot*
G04 #@! TF.FilePolarity,Positive*
%FSLAX46Y46*%
G04 Gerber Fmt 4.6, Leading zero omitted, Abs format (unit mm)*
G04 Created by KiCad (PCBNEW 5.1.6-c6e7f7d~87~ubuntu18.04.1) date 2020-11-11 15:50:36*
%MOMM*%
%LPD*%
G01*
G04 APERTURE LIST*
G04 #@! TA.AperFunction,ComponentPad*
%ADD10C,1.778000*%
G04 #@! TD*
G04 #@! TA.AperFunction,ComponentPad*
%ADD11R,1.778000X1.778000*%
G04 #@! TD*
G04 #@! TA.AperFunction,ComponentPad*
%ADD12C,1.400000*%
G04 #@! TD*
G04 #@! TA.AperFunction,ComponentPad*
%ADD13R,1.400000X1.400000*%
G04 #@! TD*
G04 #@! TA.AperFunction,ComponentPad*
%ADD14O,1.200000X1.800000*%
G04 #@! TD*
G04 #@! TA.AperFunction,SMDPad,CuDef*
%ADD15R,0.508000X0.762000*%
G04 #@! TD*
G04 #@! TA.AperFunction,ViaPad*
%ADD16C,0.500000*%
G04 #@! TD*
G04 #@! TA.AperFunction,ComponentPad*
%ADD17O,1.500000X1.000000*%
G04 #@! TD*
G04 #@! TA.AperFunction,ViaPad*
%ADD18C,1.000000*%
G04 #@! TD*
G04 #@! TA.AperFunction,ViaPad*
%ADD19C,0.700000*%
G04 #@! TD*
G04 #@! TA.AperFunction,Conductor*
%ADD20C,0.508000*%
G04 #@! TD*
G04 #@! TA.AperFunction,Conductor*
%ADD21C,1.016000*%
G04 #@! TD*
G04 #@! TA.AperFunction,Conductor*
%ADD22C,0.254000*%
G04 #@! TD*
G04 #@! TA.AperFunction,Conductor*
%ADD23C,0.762000*%
G04 #@! TD*
G04 #@! TA.AperFunction,Conductor*
%ADD24C,0.203200*%
G04 #@! TD*
G04 #@! TA.AperFunction,Conductor*
%ADD25C,1.524000*%
G04 #@! TD*
G04 #@! TA.AperFunction,Conductor*
%ADD26C,0.304800*%
G04 #@! TD*
G04 APERTURE END LIST*
D10*
X156210000Y-118110000D03*
X156210000Y-74930000D03*
X156210000Y-72390000D03*
X156210000Y-69850000D03*
D11*
X156210000Y-67310000D03*
D10*
X156210000Y-77470000D03*
X156210000Y-80010000D03*
X156210000Y-85090000D03*
X156210000Y-82550000D03*
X156210000Y-87630000D03*
X156210000Y-90170000D03*
X156210000Y-95250000D03*
X156210000Y-92710000D03*
X156210000Y-97790000D03*
X156210000Y-100330000D03*
X156210000Y-105410000D03*
X156210000Y-102870000D03*
X156210000Y-113030000D03*
X156210000Y-115570000D03*
X156210000Y-110490000D03*
X156210000Y-107950000D03*
D12*
X152384760Y-116222780D03*
D13*
X150355300Y-116225320D03*
D14*
X139910000Y-115947000D03*
X139910000Y-112477000D03*
X147110000Y-112477000D03*
X147110000Y-115947000D03*
D15*
X135255000Y-82550000D03*
X134493000Y-82550000D03*
X135255000Y-80518000D03*
X134493000Y-80518000D03*
D10*
X130810000Y-118110000D03*
X130810000Y-74930000D03*
X130810000Y-72390000D03*
X130810000Y-69850000D03*
D11*
X130810000Y-67310000D03*
D10*
X130810000Y-77470000D03*
X130810000Y-80010000D03*
X130810000Y-85090000D03*
X130810000Y-82550000D03*
X130810000Y-87630000D03*
X130810000Y-90170000D03*
X130810000Y-95250000D03*
X130810000Y-92710000D03*
X130810000Y-97790000D03*
X130810000Y-100330000D03*
X130810000Y-105410000D03*
X130810000Y-102870000D03*
X130810000Y-113030000D03*
X130810000Y-115570000D03*
X130810000Y-110490000D03*
X130810000Y-107950000D03*
D13*
X142320000Y-75234000D03*
D16*
X141570000Y-73734000D03*
X143070000Y-73734000D03*
X140820000Y-74484000D03*
X143820000Y-74484000D03*
X140820000Y-75984000D03*
X143820000Y-75984000D03*
X141570000Y-76734000D03*
X143070000Y-76734000D03*
D15*
X146431000Y-101473000D03*
X145669000Y-101473000D03*
D17*
X136525000Y-105868000D03*
X136525000Y-104618000D03*
X136525000Y-103368000D03*
X136525000Y-102118000D03*
X136525000Y-100868000D03*
X136525000Y-99618000D03*
D15*
X137795000Y-100838000D03*
X138557000Y-100838000D03*
D18*
X151130000Y-114681000D03*
X153543000Y-112141000D03*
D19*
X133350002Y-78993998D03*
D18*
X152654000Y-109093000D03*
X137795000Y-115062000D03*
X136779000Y-115062000D03*
X147999452Y-106352994D03*
X143510000Y-117221000D03*
X154432000Y-118236598D03*
D19*
X134747000Y-114554000D03*
X135763000Y-114554000D03*
X133629400Y-66929000D03*
D18*
X137795000Y-66929000D03*
X139700000Y-66929000D03*
D19*
X135890000Y-66929000D03*
D18*
X141605000Y-66929000D03*
X145415000Y-66929000D03*
X149225000Y-66929000D03*
X147320000Y-66929000D03*
X143510000Y-66929000D03*
D19*
X151130000Y-66929000D03*
X132334000Y-70739000D03*
X132905500Y-81534000D03*
X152780981Y-91059000D03*
X151892000Y-91059000D03*
D18*
X149860000Y-76200000D03*
D19*
X131826000Y-86360000D03*
X137033000Y-80822800D03*
X133096000Y-77978000D03*
X138557000Y-81534000D03*
D18*
X149860000Y-78740000D03*
X151892000Y-118236598D03*
X149352000Y-118236598D03*
X146685000Y-76200000D03*
X146685000Y-78740000D03*
X146685000Y-81280000D03*
X149860000Y-81280000D03*
X146685000Y-83820000D03*
X149860000Y-83820000D03*
X149860000Y-86360000D03*
X146685000Y-86360000D03*
X144780000Y-86360000D03*
X144780000Y-83820000D03*
X144780000Y-81280000D03*
X144780000Y-78740000D03*
X146685000Y-74930000D03*
X149860000Y-74930000D03*
X149860000Y-77470000D03*
X146685000Y-77470000D03*
X144780000Y-80010000D03*
X146685000Y-80010000D03*
X149860000Y-80010000D03*
X144780000Y-82550000D03*
X146685000Y-82550000D03*
X146685000Y-85090000D03*
X144780000Y-85090000D03*
X149860000Y-82550000D03*
X149860000Y-85090000D03*
X145415000Y-72390000D03*
X144145000Y-72390000D03*
X142875000Y-72390000D03*
X141605000Y-72390000D03*
X140335000Y-72390000D03*
X139700000Y-74295000D03*
X139700000Y-75565000D03*
X142875000Y-78740000D03*
D19*
X151003000Y-91059000D03*
X149225000Y-104267000D03*
X145796000Y-104902000D03*
X151638000Y-98425000D03*
X148717000Y-93980000D03*
X136525000Y-83947000D03*
X153924000Y-70358000D03*
X140416790Y-108331000D03*
D18*
X144206782Y-107569000D03*
D19*
X136144000Y-106934000D03*
X149606000Y-101854000D03*
X141859000Y-96012000D03*
D18*
X146431000Y-68199000D03*
X148209000Y-100330000D03*
D19*
X148971000Y-92075000D03*
D18*
X150241000Y-98552000D03*
D19*
X137820799Y-96854429D03*
X138486798Y-99998549D03*
X137160000Y-108585000D03*
X135763000Y-112268000D03*
X134366000Y-90551000D03*
X133759814Y-88684250D03*
X136144000Y-89408000D03*
X149987000Y-89079988D03*
X153289000Y-90170000D03*
X132969000Y-76832092D03*
X137858500Y-88201500D03*
X133350000Y-84836000D03*
X138557000Y-82550000D03*
D18*
X149225000Y-109093000D03*
D19*
X146812000Y-87757000D03*
D18*
X150114000Y-111015410D03*
D19*
X132905500Y-82550000D03*
X132963412Y-80509789D03*
X135890000Y-82550000D03*
X138760332Y-84523460D03*
X151511000Y-93218000D03*
X149987000Y-87884000D03*
X137287000Y-70738992D03*
X141407423Y-88582638D03*
X137029568Y-69280813D03*
X137820799Y-95951216D03*
X135636000Y-92202000D03*
X137033000Y-88900000D03*
X136947135Y-71713999D03*
X137865624Y-72763930D03*
X136271000Y-88138000D03*
X132842000Y-93853000D03*
X137033000Y-86233008D03*
X132180527Y-91712880D03*
X136270998Y-86995000D03*
X135890000Y-80518000D03*
X138684000Y-83566000D03*
X135890000Y-79121000D03*
X143383000Y-92964000D03*
X142693887Y-100965000D03*
X138176000Y-69977000D03*
X138285518Y-99118051D03*
X151130000Y-83693000D03*
X151130000Y-85153500D03*
X153314400Y-88442800D03*
X143129000Y-108458000D03*
X144653000Y-104775000D03*
X144526000Y-91821000D03*
X142494000Y-110617000D03*
X145542000Y-91821000D03*
X143129000Y-109728000D03*
X152019000Y-104521000D03*
X152273000Y-106299000D03*
X153416000Y-106299000D03*
X151130000Y-106299000D03*
X150749000Y-104140000D03*
X150749000Y-102997000D03*
X150749000Y-101854000D03*
X153162000Y-104521000D03*
X153416000Y-107315000D03*
X146366841Y-100284786D03*
X139446000Y-71628000D03*
X138938000Y-106807000D03*
D18*
X142494000Y-114173000D03*
X145669000Y-110558232D03*
D19*
X136652000Y-110617000D03*
X136652000Y-112903000D03*
X147574000Y-92329000D03*
X139785618Y-87376000D03*
X138285420Y-98214840D03*
X132715000Y-115697000D03*
X136181267Y-97481174D03*
X145796000Y-103505000D03*
X145161000Y-98806000D03*
D20*
X130810000Y-115570000D02*
X131572000Y-114808000D01*
D21*
X153543000Y-109982000D02*
X152654000Y-109093000D01*
X153543000Y-112141000D02*
X153543000Y-109982000D01*
X137922000Y-115062000D02*
X136779000Y-115062000D01*
X132054579Y-116814579D02*
X130810000Y-115570000D01*
X135026421Y-116814579D02*
X132054579Y-116814579D01*
X136779000Y-115062000D02*
X135026421Y-116814579D01*
X151885512Y-109093000D02*
X150539323Y-107746811D01*
X152654000Y-109093000D02*
X151885512Y-109093000D01*
X150539323Y-107746811D02*
X149393269Y-107746811D01*
X149393269Y-107746811D02*
X147999452Y-106352994D01*
D22*
X133985000Y-78359000D02*
X133350002Y-78993998D01*
X139700000Y-85808327D02*
X139700000Y-81603557D01*
X138648206Y-89547608D02*
X138648206Y-86860121D01*
X134924791Y-97775686D02*
X137312422Y-95388055D01*
X132080000Y-114300000D02*
X132080000Y-112776000D01*
X132740422Y-109055986D02*
X134924791Y-106871618D01*
X132080000Y-112776000D02*
X132740422Y-112115578D01*
X136455443Y-78359000D02*
X133985000Y-78359000D01*
X139700000Y-81603557D02*
X136455443Y-78359000D01*
X138648206Y-86860121D02*
X139700000Y-85808327D01*
X132740422Y-112115578D02*
X132740422Y-109055986D01*
X137312422Y-90883392D02*
X138648206Y-89547608D01*
X137312422Y-95388055D02*
X137312422Y-90883392D01*
X131572000Y-114808000D02*
X132080000Y-114300000D01*
X134924791Y-106871618D02*
X134924791Y-97775686D01*
D23*
X148209000Y-114681000D02*
X151130000Y-114681000D01*
X146526250Y-114173000D02*
X147701000Y-114173000D01*
X138684000Y-115062000D02*
X139509500Y-114236500D01*
X137922000Y-115062000D02*
X138684000Y-115062000D01*
X139509500Y-114236500D02*
X140652500Y-114236500D01*
X140652500Y-114236500D02*
X141859000Y-115443000D01*
X141859000Y-115443000D02*
X145256250Y-115443000D01*
X147701000Y-114173000D02*
X148209000Y-114681000D01*
X145256250Y-115443000D02*
X146526250Y-114173000D01*
D21*
X139954000Y-116205000D02*
X139954000Y-115951000D01*
X139065000Y-117094000D02*
X139954000Y-116205000D01*
X141605000Y-117221000D02*
X140462000Y-117221000D01*
X139065000Y-117221000D02*
X139065000Y-117094000D01*
X140462000Y-117221000D02*
X139065000Y-117221000D01*
X147066000Y-117221000D02*
X147066000Y-115951000D01*
X146558000Y-117221000D02*
X147066000Y-117221000D01*
X141605000Y-117221000D02*
X146558000Y-117221000D01*
X137541000Y-118427500D02*
X137541000Y-118110000D01*
X137604500Y-118491000D02*
X137541000Y-118427500D01*
X139065000Y-117094000D02*
X137668000Y-118491000D01*
X137668000Y-118491000D02*
X137604500Y-118491000D01*
X142320000Y-67644000D02*
X141605000Y-66929000D01*
X142320000Y-75234000D02*
X142320000Y-67644000D01*
D23*
X136321800Y-81534000D02*
X132905500Y-81534000D01*
X137033000Y-80822800D02*
X136321800Y-81534000D01*
D20*
X133629400Y-70739000D02*
X132334000Y-70739000D01*
D23*
X147110000Y-112477000D02*
X147529000Y-112477000D01*
X147529000Y-112477000D02*
X148463000Y-113411000D01*
X149860000Y-85979000D02*
X149860000Y-76200000D01*
X151892000Y-91059000D02*
X151892000Y-88011000D01*
X151892000Y-88011000D02*
X149860000Y-85979000D01*
D20*
X133629400Y-66929000D02*
X133629400Y-70739000D01*
X133445999Y-77628001D02*
X133096000Y-77978000D01*
X133858000Y-77216000D02*
X133445999Y-77628001D01*
X133604000Y-70739000D02*
X133858000Y-70993000D01*
X133858000Y-70993000D02*
X133858000Y-77216000D01*
X142320000Y-78185000D02*
X142320000Y-75234000D01*
X143510000Y-79375000D02*
X142320000Y-78185000D01*
X143510000Y-86106000D02*
X143510000Y-79375000D01*
X145034000Y-87630000D02*
X143510000Y-86106000D01*
D24*
X137033000Y-80822800D02*
X137033000Y-80518000D01*
X137033000Y-80518000D02*
X136321800Y-79806800D01*
X136321800Y-79806800D02*
X135483600Y-79806800D01*
X135483600Y-79806800D02*
X135255000Y-79578200D01*
D21*
X139910000Y-112439000D02*
X139910000Y-112477000D01*
D25*
X130810000Y-118110000D02*
X130987790Y-118287790D01*
X137490210Y-118287790D02*
X137541010Y-118236990D01*
X130987790Y-118287790D02*
X137490210Y-118287790D01*
D20*
X153924000Y-70358000D02*
X153924000Y-69596000D01*
X153924000Y-69596000D02*
X156210000Y-67310000D01*
D21*
X139910000Y-112477000D02*
X140208000Y-112179000D01*
D20*
X140335000Y-108331000D02*
X140208000Y-108204000D01*
X140416790Y-108331000D02*
X140335000Y-108331000D01*
D21*
X140208000Y-112179000D02*
X140208000Y-108204000D01*
D23*
X145796000Y-105979782D02*
X144206782Y-107569000D01*
X145796000Y-104902000D02*
X145796000Y-105979782D01*
D20*
X139953999Y-112522000D02*
X139954000Y-112522000D01*
X139910000Y-112565999D02*
X139910000Y-112477000D01*
X138556999Y-113919000D02*
X139910000Y-112565999D01*
X136350493Y-113919000D02*
X138556999Y-113919000D01*
X135763000Y-114554000D02*
X135763000Y-114506493D01*
X135763000Y-114506493D02*
X136350493Y-113919000D01*
X138340774Y-81534000D02*
X138557000Y-81534000D01*
X137287021Y-82587753D02*
X138340774Y-81534000D01*
X132482011Y-85703989D02*
X132482011Y-84297157D01*
X137287021Y-83184979D02*
X137287021Y-82587753D01*
X131826000Y-86360000D02*
X132482011Y-85703989D01*
X132482011Y-84297157D02*
X132832147Y-83947021D01*
X132832147Y-83947021D02*
X136524979Y-83947021D01*
X136524979Y-83947021D02*
X137287021Y-83184979D01*
D22*
X136144000Y-106934000D02*
X136906000Y-107696000D01*
X139827000Y-107696000D02*
X140208000Y-107315000D01*
X136906000Y-107696000D02*
X139827000Y-107696000D01*
D21*
X140208000Y-108204000D02*
X140208000Y-107315000D01*
D20*
X149606000Y-103886000D02*
X149225000Y-104267000D01*
X149606000Y-100584000D02*
X149606000Y-103886000D01*
X151638000Y-98425000D02*
X151638000Y-98552000D01*
X151638000Y-98552000D02*
X149606000Y-100584000D01*
D21*
X141859000Y-92329000D02*
X141859000Y-96012000D01*
X145034000Y-89154000D02*
X141859000Y-92329000D01*
X145034000Y-87630000D02*
X145034000Y-89154000D01*
X140208000Y-107315000D02*
X140208000Y-106341408D01*
X140208000Y-106341408D02*
X141632677Y-104916731D01*
X141632677Y-96238323D02*
X141859000Y-96012000D01*
X141632677Y-104916731D02*
X141632677Y-96238323D01*
X148971000Y-92075000D02*
X149860000Y-92964000D01*
D23*
X148463000Y-100330000D02*
X148209000Y-100330000D01*
X150241000Y-98552000D02*
X148463000Y-100330000D01*
D21*
X150241000Y-98044000D02*
X149860000Y-97663000D01*
X150241000Y-98552000D02*
X150241000Y-98044000D01*
X149860000Y-92964000D02*
X149860000Y-97663000D01*
X148844000Y-91948000D02*
X148844000Y-87630000D01*
X148971000Y-92075000D02*
X148844000Y-91948000D01*
X148844000Y-87630000D02*
X148463000Y-87249000D01*
X148463000Y-70231000D02*
X146431000Y-68199000D01*
X148463000Y-87249000D02*
X148463000Y-70231000D01*
D20*
X138437249Y-99949000D02*
X138486798Y-99998549D01*
X137922000Y-99949000D02*
X138437249Y-99949000D01*
X138557000Y-100068751D02*
X138486798Y-99998549D01*
X138557000Y-100965000D02*
X138557000Y-100068751D01*
D22*
X137922000Y-99949000D02*
X137605210Y-99632210D01*
X137820799Y-96854429D02*
X137820799Y-97638621D01*
X137820799Y-97638621D02*
X137605210Y-97854210D01*
X137605210Y-99632210D02*
X137605210Y-97854210D01*
D20*
X135763000Y-109982000D02*
X135763000Y-112268000D01*
X137160000Y-108585000D02*
X135763000Y-109982000D01*
D24*
X133654800Y-95580200D02*
X133477000Y-95758000D01*
X133654800Y-93167200D02*
X133654800Y-95580200D01*
D22*
X134016001Y-92805999D02*
X133654800Y-93167200D01*
X134016001Y-91789999D02*
X134016001Y-92805999D01*
X134366000Y-91440000D02*
X134016001Y-91789999D01*
X134366000Y-90551000D02*
X134366000Y-91440000D01*
X132588012Y-96646988D02*
X133477000Y-95758000D01*
X132588012Y-101091988D02*
X132588012Y-96646988D01*
X131826000Y-101854000D02*
X132588012Y-101091988D01*
D23*
X130810000Y-102870000D02*
X131826000Y-101854000D01*
D22*
X133409815Y-89034249D02*
X133759814Y-88684250D01*
X133045223Y-89398841D02*
X133409815Y-89034249D01*
X133045223Y-91893021D02*
X133045223Y-89398841D01*
X132080000Y-92858244D02*
X133045223Y-91893021D01*
X131572000Y-99568000D02*
X132080000Y-99060000D01*
X132080000Y-99060000D02*
X132080000Y-92858244D01*
D23*
X130810000Y-100330000D02*
X131572000Y-99568000D01*
D24*
X134061200Y-93649800D02*
X134239000Y-93472000D01*
X134061200Y-95935800D02*
X134061200Y-93649800D01*
X133095947Y-96901053D02*
X134061200Y-95935800D01*
D22*
X135509000Y-90043000D02*
X136144000Y-89408000D01*
X135509000Y-90943592D02*
X135509000Y-90043000D01*
X134493000Y-91959592D02*
X135509000Y-90943592D01*
X134239000Y-93472000D02*
X134493000Y-93218000D01*
X134493000Y-93218000D02*
X134493000Y-91959592D01*
X133095947Y-103124053D02*
X133095947Y-96901053D01*
X131699000Y-104521000D02*
X133095947Y-103124053D01*
D23*
X130810000Y-105410000D02*
X131699000Y-104521000D01*
D20*
X156210000Y-107950000D02*
X156210000Y-107696000D01*
X156210000Y-107696000D02*
X155448000Y-106934000D01*
D22*
X154432000Y-104394000D02*
X154940000Y-104902000D01*
X154432000Y-102743000D02*
X154432000Y-104394000D01*
X151765000Y-96520000D02*
X152781000Y-96520000D01*
X154940000Y-106426000D02*
X155448000Y-106934000D01*
X149733000Y-90043000D02*
X149733000Y-91567000D01*
X153923978Y-102234978D02*
X154432000Y-102743000D01*
X154940000Y-104902000D02*
X154940000Y-106426000D01*
X153923978Y-97662978D02*
X153923978Y-102234978D01*
X149987000Y-89079988D02*
X149987000Y-89789000D01*
X149733000Y-91567000D02*
X150749000Y-92583000D01*
X149987000Y-89789000D02*
X149733000Y-90043000D01*
X150749000Y-92583000D02*
X150749000Y-95504000D01*
X150749000Y-95504000D02*
X151765000Y-96520000D01*
X152781000Y-96520000D02*
X153923978Y-97662978D01*
D20*
X156210000Y-105410000D02*
X156210000Y-105283000D01*
X156210000Y-105283000D02*
X155448000Y-104521000D01*
D22*
X154940000Y-104013000D02*
X155448000Y-104521000D01*
X154940000Y-102489000D02*
X154940000Y-104013000D01*
X154431988Y-101980988D02*
X154940000Y-102489000D01*
X151765000Y-94107000D02*
X151257000Y-94615000D01*
X152908000Y-95885000D02*
X154431988Y-97408988D01*
X151257000Y-94615000D02*
X151257000Y-95250000D01*
X152654000Y-94107000D02*
X151765000Y-94107000D01*
X153511991Y-93249009D02*
X152654000Y-94107000D01*
X151257000Y-95250000D02*
X151892000Y-95885000D01*
X151892000Y-95885000D02*
X152908000Y-95885000D01*
X153511991Y-90392991D02*
X153511991Y-93249009D01*
X153289000Y-90170000D02*
X153511991Y-90392991D01*
X154431988Y-97408988D02*
X154431988Y-101980988D01*
D20*
X130810000Y-82296000D02*
X131572000Y-81534000D01*
X130810000Y-82550000D02*
X130810000Y-82296000D01*
D22*
X132080000Y-77721092D02*
X132080000Y-81026000D01*
X132969000Y-76832092D02*
X132080000Y-77721092D01*
X132080000Y-81026000D02*
X131572000Y-81534000D01*
D20*
X130810000Y-113030000D02*
X131699000Y-112141000D01*
D22*
X136855211Y-95198673D02*
X136855211Y-90601789D01*
X136855211Y-90601789D02*
X137858500Y-89598500D01*
X137858500Y-89598500D02*
X137858500Y-88201500D01*
X134467580Y-106682236D02*
X134467580Y-97586304D01*
X132283211Y-111556789D02*
X132283212Y-108866603D01*
X132283212Y-108866603D02*
X134467580Y-106682236D01*
X134467580Y-97586304D02*
X136855211Y-95198673D01*
X131699000Y-112141000D02*
X132283211Y-111556789D01*
D21*
X150355300Y-116225320D02*
X150368000Y-116238020D01*
D20*
X150355300Y-116225320D02*
X150355300Y-116090700D01*
D22*
X133558799Y-84627201D02*
X133350000Y-84836000D01*
X136851497Y-84627201D02*
X133558799Y-84627201D01*
X137922032Y-83556666D02*
X136851497Y-84627201D01*
X138557000Y-82550000D02*
X137922032Y-83184968D01*
X137922032Y-83184968D02*
X137922032Y-83556666D01*
X146812000Y-92573698D02*
X146812000Y-87757000D01*
X145595081Y-99879844D02*
X146812000Y-98662925D01*
X145669000Y-101473000D02*
X145595081Y-101399081D01*
X146812000Y-98662925D02*
X146812000Y-92573698D01*
X145595081Y-101399081D02*
X145595081Y-99879844D01*
D21*
X150114000Y-109982000D02*
X150114000Y-111015410D01*
X149225000Y-109093000D02*
X150114000Y-109982000D01*
D22*
X146888189Y-103581189D02*
X146888189Y-106756189D01*
X145669000Y-101473000D02*
X145669000Y-102362000D01*
X145669000Y-102362000D02*
X146888189Y-103581189D01*
D20*
X149225000Y-109093000D02*
X148590000Y-108458000D01*
D22*
X146888189Y-106756189D02*
X148590000Y-108458000D01*
D23*
X132905500Y-82550000D02*
X134239000Y-82550000D01*
D20*
X134493000Y-82550000D02*
X134239000Y-82550000D01*
X134493000Y-80518000D02*
X134366000Y-80518000D01*
D23*
X134357789Y-80509789D02*
X132963412Y-80509789D01*
X134366000Y-80518000D02*
X134357789Y-80509789D01*
X135382000Y-82550000D02*
X135890000Y-82550000D01*
D20*
X130810000Y-89535000D02*
X131318000Y-89027000D01*
X130810000Y-90170000D02*
X130810000Y-89535000D01*
D22*
X131318000Y-89027000D02*
X131318000Y-88943564D01*
X132063590Y-88197974D02*
X132063590Y-87935231D01*
X132063590Y-87935231D02*
X134446029Y-85552792D01*
X137731000Y-85552792D02*
X138760332Y-84523460D01*
X134446029Y-85552792D02*
X137731000Y-85552792D01*
X131318000Y-88943564D02*
X132063590Y-88197974D01*
X151511000Y-92583000D02*
X151511000Y-93218000D01*
X150317211Y-91389211D02*
X151511000Y-92583000D01*
X150317211Y-90105382D02*
X150317211Y-91389211D01*
X150749000Y-89673593D02*
X150317211Y-90105382D01*
X149987000Y-87884000D02*
X150749000Y-88646000D01*
X150749000Y-88646000D02*
X150749000Y-89673593D01*
X141407423Y-88335577D02*
X141630422Y-88112578D01*
X141407423Y-88582638D02*
X141407423Y-88335577D01*
X141630422Y-88359639D02*
X141407423Y-88582638D01*
X141630422Y-88112578D02*
X141630422Y-88359639D01*
D20*
X136525000Y-104618000D02*
X136936000Y-104618000D01*
X136936000Y-104618000D02*
X137541000Y-104013000D01*
D22*
X139880044Y-91802734D02*
X141407423Y-90275355D01*
X139880044Y-102193549D02*
X139880044Y-91802734D01*
X137541000Y-104013000D02*
X138060593Y-104013000D01*
X141407423Y-90275355D02*
X141407423Y-88582638D01*
X138060593Y-104013000D02*
X139880044Y-102193549D01*
X137668000Y-71955098D02*
X137185422Y-72437676D01*
X137185422Y-72437676D02*
X137185422Y-76502608D01*
X137185422Y-76502608D02*
X141630422Y-80947608D01*
X137287000Y-70738992D02*
X137668000Y-71119992D01*
X137668000Y-71119992D02*
X137668000Y-71955098D01*
X141630422Y-80947608D02*
X141630422Y-88112578D01*
D20*
X136525000Y-99618000D02*
X136525000Y-98425000D01*
D22*
X137717312Y-95951216D02*
X137820799Y-95951216D01*
X136906000Y-96762528D02*
X137717312Y-95951216D01*
X136525000Y-98425000D02*
X136906000Y-98044000D01*
X136906000Y-98044000D02*
X136906000Y-96762528D01*
X139105417Y-89736990D02*
X137820799Y-91021608D01*
X140208000Y-85946920D02*
X139105417Y-87049503D01*
X135809723Y-77066688D02*
X140208000Y-81464965D01*
X137029568Y-69280813D02*
X135809723Y-70500658D01*
X139105417Y-87049503D02*
X139105417Y-89736990D01*
X135809723Y-70500658D02*
X135809723Y-77066688D01*
X140208000Y-81464965D02*
X140208000Y-85946920D01*
X137820799Y-91021608D02*
X137820799Y-95951216D01*
D23*
X130810000Y-107823000D02*
X131572000Y-107061000D01*
X130810000Y-107950000D02*
X130810000Y-107823000D01*
D22*
X133553158Y-97169920D02*
X135636000Y-95087078D01*
X135636000Y-95087078D02*
X135636000Y-92202000D01*
X133553158Y-105079842D02*
X133553158Y-97169920D01*
X131572000Y-107061000D02*
X133553158Y-105079842D01*
D20*
X130810000Y-110490000D02*
X131572000Y-109728000D01*
D22*
X137033000Y-89662000D02*
X137033000Y-88900000D01*
X136398000Y-95009291D02*
X136398000Y-90297000D01*
X131826000Y-108677223D02*
X134010369Y-106492854D01*
X134010369Y-106492854D02*
X134010369Y-97396922D01*
X131826000Y-109474000D02*
X131826000Y-108677223D01*
X131572000Y-109728000D02*
X131826000Y-109474000D01*
X136398000Y-90297000D02*
X137033000Y-89662000D01*
X134010369Y-97396922D02*
X136398000Y-95009291D01*
D20*
X137043000Y-103368000D02*
X137414000Y-102997000D01*
X136525000Y-103368000D02*
X137043000Y-103368000D01*
D22*
X139422833Y-91613352D02*
X140727221Y-90308964D01*
X141122422Y-87860939D02*
X141122422Y-81086201D01*
X138430000Y-102997000D02*
X139422833Y-102004167D01*
X136728211Y-76691989D02*
X136728211Y-71932923D01*
X139422833Y-102004167D02*
X139422833Y-91613352D01*
X140727221Y-88256140D02*
X141122422Y-87860939D01*
X140727221Y-90308964D02*
X140727221Y-88256140D01*
X136728211Y-71932923D02*
X136947135Y-71713999D01*
X141122422Y-81086201D02*
X136728211Y-76691989D01*
X137414000Y-102997000D02*
X138430000Y-102997000D01*
D20*
X137083000Y-105868000D02*
X137541000Y-105410000D01*
X136271000Y-105868000D02*
X137083000Y-105868000D01*
D22*
X140337255Y-102613745D02*
X140337255Y-91992116D01*
X142087633Y-90241738D02*
X142087633Y-80758226D01*
X137668000Y-72961554D02*
X137865624Y-72763930D01*
X137541000Y-105410000D02*
X140337255Y-102613745D01*
X140337255Y-91992116D02*
X142087633Y-90241738D01*
X137668000Y-76338593D02*
X137668000Y-72961554D01*
X142087633Y-80758226D02*
X137668000Y-76338593D01*
X135486672Y-88138000D02*
X136271000Y-88138000D01*
X132842000Y-93853000D02*
X132842000Y-92964000D01*
X132842000Y-92964000D02*
X133553234Y-92252766D01*
X133553234Y-90071438D02*
X135486672Y-88138000D01*
X133553234Y-92252766D02*
X133553234Y-90071438D01*
D20*
X130810000Y-92710000D02*
X130810000Y-92075000D01*
X130810000Y-92075000D02*
X131318000Y-91567000D01*
D22*
X131318000Y-91567000D02*
X132080010Y-90804990D01*
X132080010Y-88899990D02*
X132571601Y-88408399D01*
X132080010Y-90804990D02*
X132080010Y-88899990D01*
X134484249Y-86233008D02*
X137033000Y-86233008D01*
X132571601Y-88145656D02*
X134484249Y-86233008D01*
X132571601Y-88408399D02*
X132571601Y-88145656D01*
D24*
X132180527Y-91712880D02*
X132562612Y-91330795D01*
X132562612Y-91330795D02*
X132562612Y-89198937D01*
X134404772Y-86995000D02*
X136270998Y-86995000D01*
X133054212Y-88345560D02*
X134404772Y-86995000D01*
X132562612Y-89198937D02*
X133054212Y-88707337D01*
X133054212Y-88707337D02*
X133054212Y-88345560D01*
D20*
X135255000Y-80518000D02*
X135382000Y-80518000D01*
D23*
X135382000Y-80518000D02*
X135890000Y-80518000D01*
D20*
X130810000Y-87630000D02*
X131191000Y-87249000D01*
X131191000Y-87249000D02*
X131826000Y-87249000D01*
X131826000Y-87249000D02*
X131318000Y-87757000D01*
X131318000Y-87757000D02*
X130810000Y-87757000D01*
D22*
X138334001Y-83915999D02*
X138684000Y-83566000D01*
X137159957Y-85090043D02*
X138334001Y-83915999D01*
X134133739Y-85090043D02*
X137159957Y-85090043D01*
X131826000Y-87249000D02*
X131974782Y-87249000D01*
X131974782Y-87249000D02*
X134133739Y-85090043D01*
D20*
X130810000Y-85090000D02*
X130810000Y-84709000D01*
X130810000Y-84709000D02*
X131445000Y-84074000D01*
D22*
X136384974Y-79121000D02*
X135890000Y-79121000D01*
X136525000Y-79121000D02*
X136384974Y-79121000D01*
X137795000Y-80391000D02*
X136525000Y-79121000D01*
X132206990Y-83312010D02*
X136205634Y-83312010D01*
X131445000Y-84074000D02*
X132206990Y-83312010D01*
X136205634Y-83312010D02*
X136652010Y-82865634D01*
X136652010Y-82865634D02*
X136652010Y-82287107D01*
X136652010Y-82287107D02*
X137795000Y-81144117D01*
X137795000Y-81144117D02*
X137795000Y-80391000D01*
D20*
X156210000Y-118110000D02*
X155448000Y-117348000D01*
D24*
X142113000Y-111379000D02*
X141097000Y-110363000D01*
X146075422Y-109753422D02*
X145262578Y-109753422D01*
X155448000Y-117348000D02*
X151511000Y-113411000D01*
X149733000Y-113411000D02*
X146075422Y-109753422D01*
X145262578Y-109753422D02*
X143637000Y-111379000D01*
X151511000Y-113411000D02*
X149733000Y-113411000D01*
X143637000Y-111379000D02*
X142113000Y-111379000D01*
D22*
X142693887Y-105040930D02*
X142693887Y-100965000D01*
X142697210Y-100961677D02*
X142693887Y-100965000D01*
X141097000Y-110363000D02*
X141097000Y-106637817D01*
X143383000Y-92964000D02*
X142697210Y-93649790D01*
X141097000Y-106637817D02*
X142693887Y-105040930D01*
X142697210Y-93649790D02*
X142697210Y-100961677D01*
X138965622Y-91423970D02*
X138965622Y-98524378D01*
X140270010Y-88066758D02*
X140270010Y-90119582D01*
X137044592Y-69977000D02*
X136266934Y-70754658D01*
X138965622Y-98524378D02*
X138371949Y-99118051D01*
X138176000Y-69977000D02*
X137044592Y-69977000D01*
X136266934Y-70754658D02*
X136266934Y-76877306D01*
X138371949Y-99118051D02*
X138285518Y-99118051D01*
X140665211Y-87671557D02*
X140270010Y-88066758D01*
X136266934Y-76877306D02*
X140665211Y-81275583D01*
X140270010Y-90119582D02*
X138965622Y-91423970D01*
X140665211Y-81275583D02*
X140665211Y-87671557D01*
D20*
X156210000Y-95250000D02*
X155448000Y-94488000D01*
D24*
X154959823Y-87522823D02*
X151130000Y-83693000D01*
X154959823Y-93999823D02*
X154959823Y-87522823D01*
X155448000Y-94488000D02*
X154959823Y-93999823D01*
D20*
X156210000Y-97790000D02*
X156210000Y-97536000D01*
X156210000Y-97536000D02*
X155448000Y-96774000D01*
D24*
X155448000Y-96774000D02*
X154736789Y-96062789D01*
X154736789Y-96062789D02*
X154736789Y-94538789D01*
X154736789Y-94538789D02*
X154502612Y-94304612D01*
X151892000Y-85153500D02*
X151130000Y-85153500D01*
X154502612Y-87764112D02*
X151892000Y-85153500D01*
X154502612Y-94304612D02*
X154502612Y-87764112D01*
D20*
X156210000Y-102870000D02*
X156210000Y-102616000D01*
X156210000Y-102616000D02*
X155448000Y-101854000D01*
D22*
X154940000Y-101346000D02*
X154939998Y-101345998D01*
X155448000Y-101854000D02*
X154939998Y-101345998D01*
X154939998Y-97154998D02*
X154939998Y-101345998D01*
X153035000Y-94615000D02*
X153035000Y-95250000D01*
X153314400Y-88442800D02*
X153314400Y-88544400D01*
X153314400Y-88544400D02*
X154020001Y-89250001D01*
X154020001Y-89250001D02*
X154020001Y-93629999D01*
X153035000Y-95250000D02*
X154939998Y-97154998D01*
X154020001Y-93629999D02*
X153035000Y-94615000D01*
X143129000Y-108458000D02*
X143129000Y-107061000D01*
X143129000Y-107061000D02*
X144653000Y-105537000D01*
X144653000Y-105537000D02*
X144653000Y-104775000D01*
D20*
X156210000Y-115570000D02*
X155448000Y-114808000D01*
D24*
X144805400Y-92100400D02*
X144526000Y-91821000D01*
X144805400Y-94520310D02*
X144805400Y-92100400D01*
X143408400Y-95917310D02*
X144805400Y-94520310D01*
X143408400Y-105442310D02*
X143408400Y-95917310D01*
X141630400Y-109187690D02*
X141630400Y-107220310D01*
X142494000Y-110617000D02*
X142494000Y-110051290D01*
X141630400Y-107220310D02*
X143408400Y-105442310D01*
X142494000Y-110051290D02*
X141630400Y-109187690D01*
X155194000Y-114554000D02*
X155448000Y-114808000D01*
X143452303Y-110617000D02*
X144773092Y-109296211D01*
X151670309Y-112877611D02*
X153346698Y-114554000D01*
X153346698Y-114554000D02*
X155194000Y-114554000D01*
X142494000Y-110617000D02*
X143452303Y-110617000D01*
X144773092Y-109296211D02*
X146437909Y-109296211D01*
X146437909Y-109296211D02*
X150019308Y-112877611D01*
X150019308Y-112877611D02*
X151670309Y-112877611D01*
D20*
X156210000Y-113030000D02*
X155448000Y-113792000D01*
D24*
X150208690Y-112420400D02*
X151859690Y-112420400D01*
X146627290Y-108839000D02*
X150208690Y-112420400D01*
X143669310Y-109753400D02*
X144583710Y-108839000D01*
X143154400Y-109753400D02*
X143669310Y-109753400D01*
X155168600Y-114071400D02*
X155448000Y-113792000D01*
X153510690Y-114071400D02*
X155168600Y-114071400D01*
X151859690Y-112420400D02*
X153510690Y-114071400D01*
X143129000Y-109728000D02*
X143154400Y-109753400D01*
X144583710Y-108839000D02*
X146627290Y-108839000D01*
X145262600Y-94709690D02*
X145262600Y-92100400D01*
X145262600Y-92100400D02*
X145542000Y-91821000D01*
X143865600Y-96106690D02*
X145262600Y-94709690D01*
X142087600Y-108998310D02*
X142087600Y-107409690D01*
X143129000Y-109728000D02*
X142817290Y-109728000D01*
X142817290Y-109728000D02*
X142087600Y-108998310D01*
X142087600Y-107409690D02*
X143865600Y-105631690D01*
X143865600Y-105631690D02*
X143865600Y-96106690D01*
D26*
X146431000Y-100348945D02*
X146366841Y-100284786D01*
X146431000Y-101473000D02*
X146431000Y-100348945D01*
D22*
X140794466Y-104455560D02*
X138938000Y-106312026D01*
X138938000Y-106312026D02*
X138938000Y-106807000D01*
X140794466Y-92181498D02*
X140794466Y-104455560D01*
X142544844Y-90431120D02*
X140794466Y-92181498D01*
X138545834Y-73088500D02*
X138176000Y-73458334D01*
X139446000Y-71628000D02*
X138545834Y-72528166D01*
X138545834Y-72528166D02*
X138545834Y-73088500D01*
X138176000Y-73458334D02*
X138176000Y-76199999D01*
X138176000Y-76199999D02*
X142544844Y-80568844D01*
X142544844Y-80568844D02*
X142544844Y-90431120D01*
D20*
X145669000Y-110807500D02*
X145669000Y-110558232D01*
X142494000Y-114173000D02*
X142494000Y-113982500D01*
X142494000Y-113982500D02*
X145669000Y-110807500D01*
X136652000Y-110617000D02*
X136652000Y-112903000D01*
D21*
X156210000Y-110490000D02*
X155194000Y-109474000D01*
D24*
X152222192Y-108280192D02*
X154000192Y-108280192D01*
X147574000Y-93091000D02*
X147320000Y-93345000D01*
X147574000Y-92329000D02*
X147574000Y-93091000D01*
X147320000Y-93345000D02*
X147320000Y-104524054D01*
X154000192Y-108280192D02*
X155194000Y-109474000D01*
X147320000Y-104524054D02*
X149729946Y-106934000D01*
X150876000Y-106934000D02*
X152222192Y-108280192D01*
X149729946Y-106934000D02*
X150876000Y-106934000D01*
D22*
X138501009Y-91241990D02*
X138501009Y-97999251D01*
X139785618Y-89957382D02*
X138501009Y-91241990D01*
X139785618Y-87376000D02*
X139785618Y-89957382D01*
X138501009Y-97999251D02*
X138285420Y-98214840D01*
X135413001Y-98249440D02*
X136181267Y-97481174D01*
X132715000Y-115697000D02*
X132715000Y-112903000D01*
X133350000Y-109220000D02*
X135413001Y-107156999D01*
X133350000Y-112268000D02*
X133350000Y-109220000D01*
X135413001Y-107156999D02*
X135413001Y-98249440D01*
X132715000Y-112903000D02*
X133350000Y-112268000D01*
X145034000Y-98933000D02*
X145161000Y-98806000D01*
X145796000Y-103505000D02*
X145034000Y-102743000D01*
X145034000Y-102743000D02*
X145034000Y-98933000D01*
D23*
X137638000Y-100868000D02*
X137668000Y-100838000D01*
X136525000Y-100868000D02*
X137638000Y-100868000D01*
D22*
G36*
X149279813Y-115450631D02*
G01*
X149272457Y-115525320D01*
X149272457Y-116925320D01*
X149279813Y-117000009D01*
X149301599Y-117071828D01*
X149336978Y-117138016D01*
X149384589Y-117196031D01*
X149442604Y-117243642D01*
X149508792Y-117279021D01*
X149580611Y-117300807D01*
X149655300Y-117308163D01*
X151055300Y-117308163D01*
X151129989Y-117300807D01*
X151185700Y-117283907D01*
X151862449Y-117283907D01*
X151936977Y-117487297D01*
X152192276Y-117550357D01*
X152454972Y-117562400D01*
X152714970Y-117522962D01*
X152832543Y-117487297D01*
X152907071Y-117283907D01*
X152384760Y-116761595D01*
X151862449Y-117283907D01*
X151185700Y-117283907D01*
X151201808Y-117279021D01*
X151267996Y-117243642D01*
X151326011Y-117196031D01*
X151373622Y-117138016D01*
X151409001Y-117071828D01*
X151430787Y-117000009D01*
X151438143Y-116925320D01*
X151438143Y-116630581D01*
X151845945Y-116222780D01*
X151831802Y-116208638D01*
X152370618Y-115669822D01*
X152384760Y-115683965D01*
X152398902Y-115669822D01*
X152937718Y-116208638D01*
X152923575Y-116222780D01*
X153445887Y-116745091D01*
X153649277Y-116670563D01*
X153712337Y-116415264D01*
X153717616Y-116300115D01*
X154814783Y-117397283D01*
X154822189Y-117472481D01*
X154858498Y-117592179D01*
X154917463Y-117702493D01*
X154976932Y-117774956D01*
X154980962Y-117778986D01*
X154940000Y-117984916D01*
X154940000Y-118235084D01*
X154988805Y-118480445D01*
X155084541Y-118711571D01*
X155191736Y-118872000D01*
X149181421Y-118872000D01*
X148077855Y-117768435D01*
X148061948Y-117749052D01*
X147984595Y-117685571D01*
X147896343Y-117638399D01*
X147800585Y-117609351D01*
X147725947Y-117602000D01*
X147725944Y-117602000D01*
X147701000Y-117599543D01*
X147676056Y-117602000D01*
X139343943Y-117602000D01*
X139318999Y-117599543D01*
X139294055Y-117602000D01*
X139294053Y-117602000D01*
X139219415Y-117609351D01*
X139123657Y-117638399D01*
X139123655Y-117638400D01*
X139035404Y-117685571D01*
X138980810Y-117730376D01*
X138958052Y-117749052D01*
X138942150Y-117768429D01*
X137838580Y-118872000D01*
X132110818Y-118872000D01*
X132011862Y-118773044D01*
X132233897Y-118673580D01*
X132316487Y-118384963D01*
X132341182Y-118085778D01*
X132307036Y-117787525D01*
X132281571Y-117703579D01*
X134982761Y-117703579D01*
X135026421Y-117707879D01*
X135070081Y-117703579D01*
X135070088Y-117703579D01*
X135200695Y-117690715D01*
X135368272Y-117639882D01*
X135522712Y-117557332D01*
X135658080Y-117446238D01*
X135685920Y-117412315D01*
X136580000Y-116518235D01*
X138715276Y-116518235D01*
X138791148Y-116746102D01*
X138910016Y-116954789D01*
X139067313Y-117136276D01*
X139256994Y-117283589D01*
X139349918Y-117347696D01*
X139529000Y-117253555D01*
X139529000Y-116328000D01*
X140291000Y-116328000D01*
X140291000Y-117253555D01*
X140470082Y-117347696D01*
X140563006Y-117283589D01*
X140752687Y-117136276D01*
X140909984Y-116954789D01*
X141028852Y-116746102D01*
X141104724Y-116518235D01*
X145915276Y-116518235D01*
X145991148Y-116746102D01*
X146110016Y-116954789D01*
X146267313Y-117136276D01*
X146456994Y-117283589D01*
X146549918Y-117347696D01*
X146729000Y-117253555D01*
X146729000Y-116328000D01*
X147491000Y-116328000D01*
X147491000Y-117253555D01*
X147670082Y-117347696D01*
X147763006Y-117283589D01*
X147952687Y-117136276D01*
X148109984Y-116954789D01*
X148228852Y-116746102D01*
X148304724Y-116518235D01*
X148173696Y-116328000D01*
X147491000Y-116328000D01*
X146729000Y-116328000D01*
X146046304Y-116328000D01*
X145915276Y-116518235D01*
X141104724Y-116518235D01*
X140973696Y-116328000D01*
X140291000Y-116328000D01*
X139529000Y-116328000D01*
X138846304Y-116328000D01*
X138715276Y-116518235D01*
X136580000Y-116518235D01*
X137147236Y-115951000D01*
X137965667Y-115951000D01*
X138096274Y-115938136D01*
X138263851Y-115887303D01*
X138382282Y-115824000D01*
X138646577Y-115824000D01*
X138684000Y-115827686D01*
X138721423Y-115824000D01*
X138721426Y-115824000D01*
X138833378Y-115812974D01*
X138977015Y-115769402D01*
X139109392Y-115698645D01*
X139225422Y-115603422D01*
X139249284Y-115574347D01*
X139257630Y-115566000D01*
X139529000Y-115566000D01*
X139529000Y-115546000D01*
X140291000Y-115546000D01*
X140291000Y-115566000D01*
X140904370Y-115566000D01*
X141293716Y-115955346D01*
X141317578Y-115984422D01*
X141373476Y-116030296D01*
X141433607Y-116079645D01*
X141472694Y-116100537D01*
X141565985Y-116150402D01*
X141709622Y-116193974D01*
X141821574Y-116205000D01*
X141821577Y-116205000D01*
X141859000Y-116208686D01*
X141896423Y-116205000D01*
X145218827Y-116205000D01*
X145256250Y-116208686D01*
X145293673Y-116205000D01*
X145293676Y-116205000D01*
X145405628Y-116193974D01*
X145549265Y-116150402D01*
X145681642Y-116079645D01*
X145797672Y-115984422D01*
X145821534Y-115955346D01*
X146210880Y-115566000D01*
X146729000Y-115566000D01*
X146729000Y-115546000D01*
X147491000Y-115546000D01*
X147491000Y-115566000D01*
X148173696Y-115566000D01*
X148258415Y-115443000D01*
X149282128Y-115443000D01*
X149279813Y-115450631D01*
G37*
X149279813Y-115450631D02*
X149272457Y-115525320D01*
X149272457Y-116925320D01*
X149279813Y-117000009D01*
X149301599Y-117071828D01*
X149336978Y-117138016D01*
X149384589Y-117196031D01*
X149442604Y-117243642D01*
X149508792Y-117279021D01*
X149580611Y-117300807D01*
X149655300Y-117308163D01*
X151055300Y-117308163D01*
X151129989Y-117300807D01*
X151185700Y-117283907D01*
X151862449Y-117283907D01*
X151936977Y-117487297D01*
X152192276Y-117550357D01*
X152454972Y-117562400D01*
X152714970Y-117522962D01*
X152832543Y-117487297D01*
X152907071Y-117283907D01*
X152384760Y-116761595D01*
X151862449Y-117283907D01*
X151185700Y-117283907D01*
X151201808Y-117279021D01*
X151267996Y-117243642D01*
X151326011Y-117196031D01*
X151373622Y-117138016D01*
X151409001Y-117071828D01*
X151430787Y-117000009D01*
X151438143Y-116925320D01*
X151438143Y-116630581D01*
X151845945Y-116222780D01*
X151831802Y-116208638D01*
X152370618Y-115669822D01*
X152384760Y-115683965D01*
X152398902Y-115669822D01*
X152937718Y-116208638D01*
X152923575Y-116222780D01*
X153445887Y-116745091D01*
X153649277Y-116670563D01*
X153712337Y-116415264D01*
X153717616Y-116300115D01*
X154814783Y-117397283D01*
X154822189Y-117472481D01*
X154858498Y-117592179D01*
X154917463Y-117702493D01*
X154976932Y-117774956D01*
X154980962Y-117778986D01*
X154940000Y-117984916D01*
X154940000Y-118235084D01*
X154988805Y-118480445D01*
X155084541Y-118711571D01*
X155191736Y-118872000D01*
X149181421Y-118872000D01*
X148077855Y-117768435D01*
X148061948Y-117749052D01*
X147984595Y-117685571D01*
X147896343Y-117638399D01*
X147800585Y-117609351D01*
X147725947Y-117602000D01*
X147725944Y-117602000D01*
X147701000Y-117599543D01*
X147676056Y-117602000D01*
X139343943Y-117602000D01*
X139318999Y-117599543D01*
X139294055Y-117602000D01*
X139294053Y-117602000D01*
X139219415Y-117609351D01*
X139123657Y-117638399D01*
X139123655Y-117638400D01*
X139035404Y-117685571D01*
X138980810Y-117730376D01*
X138958052Y-117749052D01*
X138942150Y-117768429D01*
X137838580Y-118872000D01*
X132110818Y-118872000D01*
X132011862Y-118773044D01*
X132233897Y-118673580D01*
X132316487Y-118384963D01*
X132341182Y-118085778D01*
X132307036Y-117787525D01*
X132281571Y-117703579D01*
X134982761Y-117703579D01*
X135026421Y-117707879D01*
X135070081Y-117703579D01*
X135070088Y-117703579D01*
X135200695Y-117690715D01*
X135368272Y-117639882D01*
X135522712Y-117557332D01*
X135658080Y-117446238D01*
X135685920Y-117412315D01*
X136580000Y-116518235D01*
X138715276Y-116518235D01*
X138791148Y-116746102D01*
X138910016Y-116954789D01*
X139067313Y-117136276D01*
X139256994Y-117283589D01*
X139349918Y-117347696D01*
X139529000Y-117253555D01*
X139529000Y-116328000D01*
X140291000Y-116328000D01*
X140291000Y-117253555D01*
X140470082Y-117347696D01*
X140563006Y-117283589D01*
X140752687Y-117136276D01*
X140909984Y-116954789D01*
X141028852Y-116746102D01*
X141104724Y-116518235D01*
X145915276Y-116518235D01*
X145991148Y-116746102D01*
X146110016Y-116954789D01*
X146267313Y-117136276D01*
X146456994Y-117283589D01*
X146549918Y-117347696D01*
X146729000Y-117253555D01*
X146729000Y-116328000D01*
X147491000Y-116328000D01*
X147491000Y-117253555D01*
X147670082Y-117347696D01*
X147763006Y-117283589D01*
X147952687Y-117136276D01*
X148109984Y-116954789D01*
X148228852Y-116746102D01*
X148304724Y-116518235D01*
X148173696Y-116328000D01*
X147491000Y-116328000D01*
X146729000Y-116328000D01*
X146046304Y-116328000D01*
X145915276Y-116518235D01*
X141104724Y-116518235D01*
X140973696Y-116328000D01*
X140291000Y-116328000D01*
X139529000Y-116328000D01*
X138846304Y-116328000D01*
X138715276Y-116518235D01*
X136580000Y-116518235D01*
X137147236Y-115951000D01*
X137965667Y-115951000D01*
X138096274Y-115938136D01*
X138263851Y-115887303D01*
X138382282Y-115824000D01*
X138646577Y-115824000D01*
X138684000Y-115827686D01*
X138721423Y-115824000D01*
X138721426Y-115824000D01*
X138833378Y-115812974D01*
X138977015Y-115769402D01*
X139109392Y-115698645D01*
X139225422Y-115603422D01*
X139249284Y-115574347D01*
X139257630Y-115566000D01*
X139529000Y-115566000D01*
X139529000Y-115546000D01*
X140291000Y-115546000D01*
X140291000Y-115566000D01*
X140904370Y-115566000D01*
X141293716Y-115955346D01*
X141317578Y-115984422D01*
X141373476Y-116030296D01*
X141433607Y-116079645D01*
X141472694Y-116100537D01*
X141565985Y-116150402D01*
X141709622Y-116193974D01*
X141821574Y-116205000D01*
X141821577Y-116205000D01*
X141859000Y-116208686D01*
X141896423Y-116205000D01*
X145218827Y-116205000D01*
X145256250Y-116208686D01*
X145293673Y-116205000D01*
X145293676Y-116205000D01*
X145405628Y-116193974D01*
X145549265Y-116150402D01*
X145681642Y-116079645D01*
X145797672Y-115984422D01*
X145821534Y-115955346D01*
X146210880Y-115566000D01*
X146729000Y-115566000D01*
X146729000Y-115546000D01*
X147491000Y-115546000D01*
X147491000Y-115566000D01*
X148173696Y-115566000D01*
X148258415Y-115443000D01*
X149282128Y-115443000D01*
X149279813Y-115450631D01*
G36*
X131362958Y-118095858D02*
G01*
X131348815Y-118110000D01*
X131362958Y-118124143D01*
X130824143Y-118662958D01*
X130810000Y-118648815D01*
X130795858Y-118662958D01*
X130257043Y-118124143D01*
X130271185Y-118110000D01*
X130257043Y-118095858D01*
X130795858Y-117557043D01*
X130810000Y-117571185D01*
X130824143Y-117557043D01*
X131362958Y-118095858D01*
G37*
X131362958Y-118095858D02*
X131348815Y-118110000D01*
X131362958Y-118124143D01*
X130824143Y-118662958D01*
X130810000Y-118648815D01*
X130795858Y-118662958D01*
X130257043Y-118124143D01*
X130271185Y-118110000D01*
X130257043Y-118095858D01*
X130795858Y-117557043D01*
X130810000Y-117571185D01*
X130824143Y-117557043D01*
X131362958Y-118095858D01*
G36*
X154686000Y-66770250D02*
G01*
X154844750Y-66929000D01*
X155829000Y-66929000D01*
X155829000Y-66909000D01*
X156591000Y-66909000D01*
X156591000Y-66929000D01*
X156611000Y-66929000D01*
X156611000Y-67691000D01*
X156591000Y-67691000D01*
X156591000Y-67711000D01*
X155829000Y-67711000D01*
X155829000Y-67691000D01*
X154844750Y-67691000D01*
X154686000Y-67849750D01*
X154682928Y-68199000D01*
X154695188Y-68323482D01*
X154731498Y-68443180D01*
X154790463Y-68553494D01*
X154869815Y-68650185D01*
X154966506Y-68729537D01*
X155076820Y-68788502D01*
X155196518Y-68824812D01*
X155321000Y-68837072D01*
X155441602Y-68836011D01*
X155400422Y-68863527D01*
X155223527Y-69040422D01*
X155084541Y-69248429D01*
X154988805Y-69479555D01*
X154940000Y-69724916D01*
X154940000Y-69975084D01*
X154988805Y-70220445D01*
X155084541Y-70451571D01*
X155223527Y-70659578D01*
X155400422Y-70836473D01*
X155608429Y-70975459D01*
X155839555Y-71071195D01*
X156084916Y-71120000D01*
X155839555Y-71168805D01*
X155608429Y-71264541D01*
X155400422Y-71403527D01*
X155223527Y-71580422D01*
X155084541Y-71788429D01*
X154988805Y-72019555D01*
X154940000Y-72264916D01*
X154940000Y-72515084D01*
X154988805Y-72760445D01*
X155084541Y-72991571D01*
X155223527Y-73199578D01*
X155400422Y-73376473D01*
X155608429Y-73515459D01*
X155839555Y-73611195D01*
X156084916Y-73660000D01*
X155839555Y-73708805D01*
X155608429Y-73804541D01*
X155400422Y-73943527D01*
X155223527Y-74120422D01*
X155084541Y-74328429D01*
X154988805Y-74559555D01*
X154940000Y-74804916D01*
X154940000Y-75055084D01*
X154988805Y-75300445D01*
X155084541Y-75531571D01*
X155223527Y-75739578D01*
X155400422Y-75916473D01*
X155608429Y-76055459D01*
X155839555Y-76151195D01*
X156084916Y-76200000D01*
X155839555Y-76248805D01*
X155608429Y-76344541D01*
X155400422Y-76483527D01*
X155223527Y-76660422D01*
X155084541Y-76868429D01*
X154988805Y-77099555D01*
X154940000Y-77344916D01*
X154940000Y-77595084D01*
X154988805Y-77840445D01*
X155084541Y-78071571D01*
X155223527Y-78279578D01*
X155400422Y-78456473D01*
X155608429Y-78595459D01*
X155839555Y-78691195D01*
X156084916Y-78740000D01*
X155839555Y-78788805D01*
X155608429Y-78884541D01*
X155400422Y-79023527D01*
X155223527Y-79200422D01*
X155084541Y-79408429D01*
X154988805Y-79639555D01*
X154940000Y-79884916D01*
X154940000Y-80135084D01*
X154988805Y-80380445D01*
X155084541Y-80611571D01*
X155223527Y-80819578D01*
X155400422Y-80996473D01*
X155608429Y-81135459D01*
X155839555Y-81231195D01*
X156084916Y-81280000D01*
X155839555Y-81328805D01*
X155608429Y-81424541D01*
X155400422Y-81563527D01*
X155223527Y-81740422D01*
X155084541Y-81948429D01*
X154988805Y-82179555D01*
X154940000Y-82424916D01*
X154940000Y-82675084D01*
X154988805Y-82920445D01*
X155084541Y-83151571D01*
X155223527Y-83359578D01*
X155400422Y-83536473D01*
X155608429Y-83675459D01*
X155839555Y-83771195D01*
X156084916Y-83820000D01*
X155839555Y-83868805D01*
X155608429Y-83964541D01*
X155400422Y-84103527D01*
X155223527Y-84280422D01*
X155084541Y-84488429D01*
X154988805Y-84719555D01*
X154940000Y-84964916D01*
X154940000Y-85215084D01*
X154988805Y-85460445D01*
X155084541Y-85691571D01*
X155223527Y-85899578D01*
X155400422Y-86076473D01*
X155608429Y-86215459D01*
X155839555Y-86311195D01*
X156084916Y-86360000D01*
X155839555Y-86408805D01*
X155608429Y-86504541D01*
X155400422Y-86643527D01*
X155223527Y-86820422D01*
X155109931Y-86990431D01*
X151861000Y-83741501D01*
X151861000Y-83621003D01*
X151832908Y-83479775D01*
X151777804Y-83346742D01*
X151697805Y-83227015D01*
X151595985Y-83125195D01*
X151476258Y-83045196D01*
X151343225Y-82990092D01*
X151201997Y-82962000D01*
X151058003Y-82962000D01*
X150916775Y-82990092D01*
X150783742Y-83045196D01*
X150664015Y-83125195D01*
X150562195Y-83227015D01*
X150482196Y-83346742D01*
X150427092Y-83479775D01*
X150399000Y-83621003D01*
X150399000Y-83764997D01*
X150427092Y-83906225D01*
X150482196Y-84039258D01*
X150562195Y-84158985D01*
X150664015Y-84260805D01*
X150783742Y-84340804D01*
X150916775Y-84395908D01*
X151054232Y-84423250D01*
X150916775Y-84450592D01*
X150783742Y-84505696D01*
X150664015Y-84585695D01*
X150562195Y-84687515D01*
X150482196Y-84807242D01*
X150427092Y-84940275D01*
X150399000Y-85081503D01*
X150399000Y-85225497D01*
X150427092Y-85366725D01*
X150482196Y-85499758D01*
X150562195Y-85619485D01*
X150664015Y-85721305D01*
X150783742Y-85801304D01*
X150916775Y-85856408D01*
X151058003Y-85884500D01*
X151201997Y-85884500D01*
X151343225Y-85856408D01*
X151476258Y-85801304D01*
X151595985Y-85721305D01*
X151681190Y-85636100D01*
X151692101Y-85636100D01*
X154020013Y-87964013D01*
X154020013Y-88243174D01*
X154017308Y-88229575D01*
X153962204Y-88096542D01*
X153882205Y-87976815D01*
X153780385Y-87874995D01*
X153660658Y-87794996D01*
X153527625Y-87739892D01*
X153386397Y-87711800D01*
X153242403Y-87711800D01*
X153101175Y-87739892D01*
X152968142Y-87794996D01*
X152848415Y-87874995D01*
X152746595Y-87976815D01*
X152666596Y-88096542D01*
X152611492Y-88229575D01*
X152583400Y-88370803D01*
X152583400Y-88514797D01*
X152611492Y-88656025D01*
X152666596Y-88789058D01*
X152746595Y-88908785D01*
X152848415Y-89010605D01*
X152968142Y-89090604D01*
X153101175Y-89145708D01*
X153221153Y-89169573D01*
X153512001Y-89460421D01*
X153512001Y-89471141D01*
X153502225Y-89467092D01*
X153360997Y-89439000D01*
X153217003Y-89439000D01*
X153075775Y-89467092D01*
X152942742Y-89522196D01*
X152823015Y-89602195D01*
X152721195Y-89704015D01*
X152641196Y-89823742D01*
X152586092Y-89956775D01*
X152558000Y-90098003D01*
X152558000Y-90241997D01*
X152586092Y-90383225D01*
X152641196Y-90516258D01*
X152721195Y-90635985D01*
X152823015Y-90737805D01*
X152942742Y-90817804D01*
X153003991Y-90843174D01*
X153003992Y-93038588D01*
X152443580Y-93599000D01*
X152135590Y-93599000D01*
X152158804Y-93564258D01*
X152213908Y-93431225D01*
X152242000Y-93289997D01*
X152242000Y-93146003D01*
X152213908Y-93004775D01*
X152158804Y-92871742D01*
X152078805Y-92752015D01*
X152019000Y-92692210D01*
X152019000Y-92607944D01*
X152021457Y-92583000D01*
X152018035Y-92548258D01*
X152011649Y-92483415D01*
X151982601Y-92387657D01*
X151935429Y-92299405D01*
X151871948Y-92222052D01*
X151852565Y-92206145D01*
X150825211Y-91178791D01*
X150825211Y-90315802D01*
X151090565Y-90050448D01*
X151109948Y-90034541D01*
X151173429Y-89957188D01*
X151220601Y-89868936D01*
X151249649Y-89773178D01*
X151257000Y-89698540D01*
X151257000Y-89698537D01*
X151259457Y-89673593D01*
X151257000Y-89648649D01*
X151257000Y-88670944D01*
X151259457Y-88646000D01*
X151257000Y-88621053D01*
X151249649Y-88546415D01*
X151220601Y-88450657D01*
X151173429Y-88362405D01*
X151109948Y-88285052D01*
X151090565Y-88269145D01*
X150718000Y-87896580D01*
X150718000Y-87812003D01*
X150689908Y-87670775D01*
X150634804Y-87537742D01*
X150554805Y-87418015D01*
X150452985Y-87316195D01*
X150333258Y-87236196D01*
X150200225Y-87181092D01*
X150058997Y-87153000D01*
X149915003Y-87153000D01*
X149773775Y-87181092D01*
X149641390Y-87235928D01*
X149586753Y-87133709D01*
X149475659Y-86998341D01*
X149441731Y-86970497D01*
X149352000Y-86880766D01*
X149352000Y-70274660D01*
X149356300Y-70231000D01*
X149352000Y-70187340D01*
X149352000Y-70187333D01*
X149339136Y-70056726D01*
X149336792Y-70048997D01*
X149288302Y-69889147D01*
X149221289Y-69763775D01*
X149205753Y-69734709D01*
X149094659Y-69599341D01*
X149060742Y-69571506D01*
X147028740Y-67539505D01*
X146927291Y-67456248D01*
X146772852Y-67373698D01*
X146605274Y-67322864D01*
X146431000Y-67305700D01*
X146256726Y-67322864D01*
X146089148Y-67373698D01*
X145934709Y-67456248D01*
X145799341Y-67567341D01*
X145688248Y-67702709D01*
X145605698Y-67857148D01*
X145554864Y-68024726D01*
X145537700Y-68199000D01*
X145554864Y-68373274D01*
X145605698Y-68540852D01*
X145688248Y-68695291D01*
X145771505Y-68796740D01*
X147574001Y-70599237D01*
X147574000Y-87205340D01*
X147569700Y-87249000D01*
X147574000Y-87292660D01*
X147574000Y-87292666D01*
X147578786Y-87341258D01*
X147586864Y-87423274D01*
X147599106Y-87463630D01*
X147633962Y-87578535D01*
X147637698Y-87590852D01*
X147639999Y-87595157D01*
X147720247Y-87745290D01*
X147831341Y-87880659D01*
X147865265Y-87908500D01*
X147955001Y-87998236D01*
X147955000Y-91704410D01*
X147920258Y-91681196D01*
X147787225Y-91626092D01*
X147645997Y-91598000D01*
X147502003Y-91598000D01*
X147360775Y-91626092D01*
X147320000Y-91642982D01*
X147320000Y-88282790D01*
X147379805Y-88222985D01*
X147459804Y-88103258D01*
X147514908Y-87970225D01*
X147543000Y-87828997D01*
X147543000Y-87685003D01*
X147514908Y-87543775D01*
X147459804Y-87410742D01*
X147379805Y-87291015D01*
X147277985Y-87189195D01*
X147158258Y-87109196D01*
X147025225Y-87054092D01*
X146883997Y-87026000D01*
X146740003Y-87026000D01*
X146598775Y-87054092D01*
X146465742Y-87109196D01*
X146346015Y-87189195D01*
X146244195Y-87291015D01*
X146164196Y-87410742D01*
X146109092Y-87543775D01*
X146081000Y-87685003D01*
X146081000Y-87828997D01*
X146109092Y-87970225D01*
X146164196Y-88103258D01*
X146244195Y-88222985D01*
X146304001Y-88282791D01*
X146304000Y-92598644D01*
X146304001Y-92598654D01*
X146304000Y-98452504D01*
X145892000Y-98864504D01*
X145892000Y-98734003D01*
X145863908Y-98592775D01*
X145808804Y-98459742D01*
X145728805Y-98340015D01*
X145626985Y-98238195D01*
X145507258Y-98158196D01*
X145374225Y-98103092D01*
X145232997Y-98075000D01*
X145089003Y-98075000D01*
X144947775Y-98103092D01*
X144814742Y-98158196D01*
X144695015Y-98238195D01*
X144593195Y-98340015D01*
X144513196Y-98459742D01*
X144458092Y-98592775D01*
X144430000Y-98734003D01*
X144430000Y-98877997D01*
X144458092Y-99019225D01*
X144513196Y-99152258D01*
X144526001Y-99171422D01*
X144526000Y-102718053D01*
X144523543Y-102743000D01*
X144526000Y-102767944D01*
X144526000Y-102767946D01*
X144533351Y-102842584D01*
X144562399Y-102938342D01*
X144609571Y-103026595D01*
X144673052Y-103103948D01*
X144692435Y-103119855D01*
X145065000Y-103492420D01*
X145065000Y-103576997D01*
X145093092Y-103718225D01*
X145148196Y-103851258D01*
X145228195Y-103970985D01*
X145330015Y-104072805D01*
X145449742Y-104152804D01*
X145582775Y-104207908D01*
X145724003Y-104236000D01*
X145867997Y-104236000D01*
X146009225Y-104207908D01*
X146142258Y-104152804D01*
X146261985Y-104072805D01*
X146363805Y-103970985D01*
X146380189Y-103946464D01*
X146380190Y-106731235D01*
X146377732Y-106756189D01*
X146382985Y-106809519D01*
X146387541Y-106855774D01*
X146406200Y-106917283D01*
X146416589Y-106951532D01*
X146463760Y-107039784D01*
X146502769Y-107087316D01*
X146527242Y-107117137D01*
X146546619Y-107133039D01*
X147960707Y-108547128D01*
X147964189Y-108582481D01*
X148000498Y-108702179D01*
X148059463Y-108812493D01*
X148118932Y-108884956D01*
X148332216Y-109098241D01*
X148348864Y-109267274D01*
X148399698Y-109434852D01*
X148482248Y-109589291D01*
X148565505Y-109690740D01*
X149225000Y-110350236D01*
X149225001Y-110754212D01*
X146985307Y-108514518D01*
X146970191Y-108496099D01*
X146896705Y-108435791D01*
X146812867Y-108390978D01*
X146721896Y-108363383D01*
X146650997Y-108356400D01*
X146650995Y-108356400D01*
X146627290Y-108354065D01*
X146603585Y-108356400D01*
X144607417Y-108356400D01*
X144583710Y-108354065D01*
X144489103Y-108363383D01*
X144439367Y-108378470D01*
X144398133Y-108390978D01*
X144314295Y-108435791D01*
X144240809Y-108496099D01*
X144225698Y-108514513D01*
X143586012Y-109154199D01*
X143494421Y-109093000D01*
X143594985Y-109025805D01*
X143696805Y-108923985D01*
X143776804Y-108804258D01*
X143831908Y-108671225D01*
X143860000Y-108529997D01*
X143860000Y-108386003D01*
X143831908Y-108244775D01*
X143776804Y-108111742D01*
X143696805Y-107992015D01*
X143637000Y-107932210D01*
X143637000Y-107271420D01*
X144994571Y-105913850D01*
X145013948Y-105897948D01*
X145044118Y-105861185D01*
X145077429Y-105820596D01*
X145124600Y-105732345D01*
X145126435Y-105726296D01*
X145153649Y-105636585D01*
X145161000Y-105561947D01*
X145161000Y-105561945D01*
X145163457Y-105537001D01*
X145161000Y-105512057D01*
X145161000Y-105300790D01*
X145220805Y-105240985D01*
X145300804Y-105121258D01*
X145355908Y-104988225D01*
X145384000Y-104846997D01*
X145384000Y-104703003D01*
X145355908Y-104561775D01*
X145300804Y-104428742D01*
X145220805Y-104309015D01*
X145118985Y-104207195D01*
X144999258Y-104127196D01*
X144866225Y-104072092D01*
X144724997Y-104044000D01*
X144581003Y-104044000D01*
X144439775Y-104072092D01*
X144348200Y-104110024D01*
X144348200Y-96306589D01*
X145587082Y-95067707D01*
X145605501Y-95052591D01*
X145665809Y-94979105D01*
X145710622Y-94895267D01*
X145738217Y-94804296D01*
X145745200Y-94733397D01*
X145745200Y-94733388D01*
X145747534Y-94709691D01*
X145745200Y-94685994D01*
X145745200Y-92525902D01*
X145755225Y-92523908D01*
X145888258Y-92468804D01*
X146007985Y-92388805D01*
X146109805Y-92286985D01*
X146189804Y-92167258D01*
X146244908Y-92034225D01*
X146273000Y-91892997D01*
X146273000Y-91749003D01*
X146244908Y-91607775D01*
X146189804Y-91474742D01*
X146109805Y-91355015D01*
X146007985Y-91253195D01*
X145888258Y-91173196D01*
X145755225Y-91118092D01*
X145613997Y-91090000D01*
X145470003Y-91090000D01*
X145328775Y-91118092D01*
X145195742Y-91173196D01*
X145076015Y-91253195D01*
X145034000Y-91295210D01*
X144991985Y-91253195D01*
X144872258Y-91173196D01*
X144739225Y-91118092D01*
X144597997Y-91090000D01*
X144454003Y-91090000D01*
X144312775Y-91118092D01*
X144179742Y-91173196D01*
X144060015Y-91253195D01*
X143958195Y-91355015D01*
X143878196Y-91474742D01*
X143823092Y-91607775D01*
X143795000Y-91749003D01*
X143795000Y-91892997D01*
X143823092Y-92034225D01*
X143878196Y-92167258D01*
X143958195Y-92286985D01*
X144060015Y-92388805D01*
X144179742Y-92468804D01*
X144312775Y-92523908D01*
X144322801Y-92525902D01*
X144322800Y-94320411D01*
X143205210Y-95438001D01*
X143205210Y-93860210D01*
X143370420Y-93695000D01*
X143454997Y-93695000D01*
X143596225Y-93666908D01*
X143729258Y-93611804D01*
X143848985Y-93531805D01*
X143950805Y-93429985D01*
X144030804Y-93310258D01*
X144085908Y-93177225D01*
X144114000Y-93035997D01*
X144114000Y-92892003D01*
X144085908Y-92750775D01*
X144030804Y-92617742D01*
X143950805Y-92498015D01*
X143848985Y-92396195D01*
X143729258Y-92316196D01*
X143596225Y-92261092D01*
X143454997Y-92233000D01*
X143311003Y-92233000D01*
X143169775Y-92261092D01*
X143036742Y-92316196D01*
X142917015Y-92396195D01*
X142815195Y-92498015D01*
X142735196Y-92617742D01*
X142680092Y-92750775D01*
X142652000Y-92892003D01*
X142652000Y-92976580D01*
X142355645Y-93272935D01*
X142336262Y-93288842D01*
X142272781Y-93366195D01*
X142225609Y-93454448D01*
X142196561Y-93550206D01*
X142190237Y-93614415D01*
X142186753Y-93649790D01*
X142189210Y-93674734D01*
X142189211Y-100435886D01*
X142126082Y-100499015D01*
X142046083Y-100618742D01*
X141990979Y-100751775D01*
X141962887Y-100893003D01*
X141962887Y-101036997D01*
X141990979Y-101178225D01*
X142046083Y-101311258D01*
X142126082Y-101430985D01*
X142185888Y-101490791D01*
X142185887Y-104830509D01*
X140755430Y-106260967D01*
X140736053Y-106276869D01*
X140720151Y-106296246D01*
X140720150Y-106296247D01*
X140672571Y-106354222D01*
X140626848Y-106439765D01*
X140625400Y-106442474D01*
X140600189Y-106525585D01*
X140596352Y-106538233D01*
X140586543Y-106637817D01*
X140589001Y-106662771D01*
X140589000Y-110387946D01*
X140596351Y-110462584D01*
X140625399Y-110558342D01*
X140672571Y-110646595D01*
X140736052Y-110723948D01*
X140813405Y-110787429D01*
X140868240Y-110816739D01*
X141754988Y-111703487D01*
X141770099Y-111721901D01*
X141843585Y-111782209D01*
X141875803Y-111799430D01*
X141927423Y-111827022D01*
X142018393Y-111854617D01*
X142113000Y-111863935D01*
X142136707Y-111861600D01*
X143613295Y-111861600D01*
X143637000Y-111863935D01*
X143660705Y-111861600D01*
X143660707Y-111861600D01*
X143723012Y-111855463D01*
X142256493Y-113321983D01*
X142237022Y-113325856D01*
X142076690Y-113392268D01*
X142064182Y-113400625D01*
X142038967Y-113362888D01*
X141944112Y-113268033D01*
X141832574Y-113193506D01*
X141708640Y-113142171D01*
X141577073Y-113116000D01*
X141442927Y-113116000D01*
X141311360Y-113142171D01*
X141187426Y-113193506D01*
X141075888Y-113268033D01*
X140981033Y-113362888D01*
X140970091Y-113379264D01*
X141028852Y-113276102D01*
X141104724Y-113048235D01*
X140973696Y-112858000D01*
X140291000Y-112858000D01*
X140291000Y-112878000D01*
X139529000Y-112878000D01*
X139529000Y-112858000D01*
X138846304Y-112858000D01*
X138715276Y-113048235D01*
X138791148Y-113276102D01*
X138910016Y-113484789D01*
X139040654Y-113635517D01*
X138968078Y-113695078D01*
X138944220Y-113724149D01*
X138373216Y-114295154D01*
X138263851Y-114236697D01*
X138096274Y-114185864D01*
X137965667Y-114173000D01*
X136822660Y-114173000D01*
X136779000Y-114168700D01*
X136735340Y-114173000D01*
X136735333Y-114173000D01*
X136621325Y-114184229D01*
X136604725Y-114185864D01*
X136531758Y-114207998D01*
X136437149Y-114236697D01*
X136282709Y-114319247D01*
X136246693Y-114348805D01*
X136183710Y-114400494D01*
X136147341Y-114430341D01*
X136119506Y-114464258D01*
X134658186Y-115925579D01*
X133411548Y-115925579D01*
X133417908Y-115910225D01*
X133446000Y-115768997D01*
X133446000Y-115625003D01*
X133417908Y-115483775D01*
X133362804Y-115350742D01*
X133282805Y-115231015D01*
X133223000Y-115171210D01*
X133223000Y-113113420D01*
X133691565Y-112644855D01*
X133710948Y-112628948D01*
X133774429Y-112551595D01*
X133821601Y-112463343D01*
X133850649Y-112367585D01*
X133858000Y-112292947D01*
X133858000Y-112292944D01*
X133860457Y-112268000D01*
X133858000Y-112243056D01*
X133858000Y-112196003D01*
X135032000Y-112196003D01*
X135032000Y-112339997D01*
X135060092Y-112481225D01*
X135115196Y-112614258D01*
X135195195Y-112733985D01*
X135297015Y-112835805D01*
X135416742Y-112915804D01*
X135549775Y-112970908D01*
X135691003Y-112999000D01*
X135834997Y-112999000D01*
X135922319Y-112981630D01*
X135949092Y-113116225D01*
X136004196Y-113249258D01*
X136084195Y-113368985D01*
X136186015Y-113470805D01*
X136305742Y-113550804D01*
X136438775Y-113605908D01*
X136580003Y-113634000D01*
X136723997Y-113634000D01*
X136865225Y-113605908D01*
X136998258Y-113550804D01*
X137117985Y-113470805D01*
X137219805Y-113368985D01*
X137299804Y-113249258D01*
X137354908Y-113116225D01*
X137383000Y-112974997D01*
X137383000Y-112831003D01*
X137354908Y-112689775D01*
X137299804Y-112556742D01*
X137287000Y-112537579D01*
X137287000Y-111905765D01*
X138715276Y-111905765D01*
X138846304Y-112096000D01*
X139529000Y-112096000D01*
X139529000Y-111170445D01*
X140291000Y-111170445D01*
X140291000Y-112096000D01*
X140973696Y-112096000D01*
X141104724Y-111905765D01*
X141028852Y-111677898D01*
X140909984Y-111469211D01*
X140752687Y-111287724D01*
X140563006Y-111140411D01*
X140470082Y-111076304D01*
X140291000Y-111170445D01*
X139529000Y-111170445D01*
X139349918Y-111076304D01*
X139256994Y-111140411D01*
X139067313Y-111287724D01*
X138910016Y-111469211D01*
X138791148Y-111677898D01*
X138715276Y-111905765D01*
X137287000Y-111905765D01*
X137287000Y-110982421D01*
X137299804Y-110963258D01*
X137354908Y-110830225D01*
X137383000Y-110688997D01*
X137383000Y-110545003D01*
X137354908Y-110403775D01*
X137299804Y-110270742D01*
X137219805Y-110151015D01*
X137117985Y-110049195D01*
X136998258Y-109969196D01*
X136865225Y-109914092D01*
X136751545Y-109891480D01*
X137350620Y-109292404D01*
X137373225Y-109287908D01*
X137506258Y-109232804D01*
X137625985Y-109152805D01*
X137727805Y-109050985D01*
X137807804Y-108931258D01*
X137862908Y-108798225D01*
X137891000Y-108656997D01*
X137891000Y-108513003D01*
X137862908Y-108371775D01*
X137807804Y-108238742D01*
X137727805Y-108119015D01*
X137625985Y-108017195D01*
X137506258Y-107937196D01*
X137373225Y-107882092D01*
X137231997Y-107854000D01*
X137088003Y-107854000D01*
X136946775Y-107882092D01*
X136813742Y-107937196D01*
X136694015Y-108017195D01*
X136592195Y-108119015D01*
X136512196Y-108238742D01*
X136457092Y-108371775D01*
X136452596Y-108394380D01*
X135336050Y-109510926D01*
X135311815Y-109530815D01*
X135232463Y-109627507D01*
X135173498Y-109737821D01*
X135137188Y-109857519D01*
X135128000Y-109950809D01*
X135128000Y-109950819D01*
X135124929Y-109982000D01*
X135128000Y-110013181D01*
X135128001Y-111902578D01*
X135115196Y-111921742D01*
X135060092Y-112054775D01*
X135032000Y-112196003D01*
X133858000Y-112196003D01*
X133858000Y-109430420D01*
X135754572Y-107533849D01*
X135773949Y-107517947D01*
X135799844Y-107486393D01*
X135837430Y-107440595D01*
X135868709Y-107382075D01*
X135884602Y-107352342D01*
X135913650Y-107256584D01*
X135921001Y-107181946D01*
X135921001Y-107181943D01*
X135923458Y-107156999D01*
X135921001Y-107132055D01*
X135921001Y-106677738D01*
X135936225Y-106685875D01*
X136102294Y-106736252D01*
X136231727Y-106749000D01*
X136818273Y-106749000D01*
X136947706Y-106736252D01*
X137113775Y-106685875D01*
X137266825Y-106604068D01*
X137400975Y-106493975D01*
X137511068Y-106359825D01*
X137531701Y-106321224D01*
X137534185Y-106319185D01*
X137554074Y-106294950D01*
X138012069Y-105836957D01*
X138071538Y-105764494D01*
X138130502Y-105654180D01*
X138166811Y-105534482D01*
X138170293Y-105499127D01*
X140286467Y-103382953D01*
X140286467Y-104245138D01*
X138596435Y-105935171D01*
X138577052Y-105951078D01*
X138513571Y-106028431D01*
X138466399Y-106116684D01*
X138437351Y-106212442D01*
X138430641Y-106280569D01*
X138370195Y-106341015D01*
X138290196Y-106460742D01*
X138235092Y-106593775D01*
X138207000Y-106735003D01*
X138207000Y-106878997D01*
X138235092Y-107020225D01*
X138290196Y-107153258D01*
X138370195Y-107272985D01*
X138472015Y-107374805D01*
X138591742Y-107454804D01*
X138724775Y-107509908D01*
X138866003Y-107538000D01*
X139009997Y-107538000D01*
X139151225Y-107509908D01*
X139284258Y-107454804D01*
X139403985Y-107374805D01*
X139505805Y-107272985D01*
X139585804Y-107153258D01*
X139640908Y-107020225D01*
X139669000Y-106878997D01*
X139669000Y-106735003D01*
X139640908Y-106593775D01*
X139585804Y-106460742D01*
X139554522Y-106413925D01*
X141136037Y-104832410D01*
X141155414Y-104816508D01*
X141181937Y-104784189D01*
X141218895Y-104739156D01*
X141266066Y-104650905D01*
X141266067Y-104650903D01*
X141295115Y-104555145D01*
X141302466Y-104480507D01*
X141302466Y-104480505D01*
X141304923Y-104455561D01*
X141302466Y-104430617D01*
X141302466Y-92391918D01*
X142886415Y-90807970D01*
X142905792Y-90792068D01*
X142937084Y-90753938D01*
X142969273Y-90714716D01*
X143016444Y-90626465D01*
X143019338Y-90616926D01*
X143045493Y-90530705D01*
X143052844Y-90456067D01*
X143052844Y-90456065D01*
X143055301Y-90431121D01*
X143052844Y-90406177D01*
X143052844Y-80593787D01*
X143055301Y-80568843D01*
X143052844Y-80543897D01*
X143045493Y-80469259D01*
X143016445Y-80373501D01*
X142972569Y-80291415D01*
X142969273Y-80285248D01*
X142921694Y-80227273D01*
X142905792Y-80207896D01*
X142886415Y-80191994D01*
X140024585Y-77330164D01*
X141147784Y-77330164D01*
X141151826Y-77518827D01*
X141312974Y-77585328D01*
X141483998Y-77619113D01*
X141658328Y-77618884D01*
X141829264Y-77584649D01*
X141988174Y-77518827D01*
X141992216Y-77330164D01*
X142647784Y-77330164D01*
X142651826Y-77518827D01*
X142812974Y-77585328D01*
X142983998Y-77619113D01*
X143158328Y-77618884D01*
X143329264Y-77584649D01*
X143488174Y-77518827D01*
X143492216Y-77330164D01*
X143070000Y-76907948D01*
X142647784Y-77330164D01*
X141992216Y-77330164D01*
X141570000Y-76907948D01*
X141147784Y-77330164D01*
X140024585Y-77330164D01*
X139274585Y-76580164D01*
X140397784Y-76580164D01*
X140401826Y-76768827D01*
X140562974Y-76835328D01*
X140692858Y-76860986D01*
X140719351Y-76993264D01*
X140785173Y-77152174D01*
X140973836Y-77156216D01*
X141396052Y-76734000D01*
X140820000Y-76157948D01*
X140397784Y-76580164D01*
X139274585Y-76580164D01*
X138684000Y-75989579D01*
X138684000Y-75897998D01*
X139934887Y-75897998D01*
X139935116Y-76072328D01*
X139969351Y-76243264D01*
X140035173Y-76402174D01*
X140223836Y-76406216D01*
X140646052Y-75984000D01*
X140223836Y-75561784D01*
X140035173Y-75565826D01*
X139968672Y-75726974D01*
X139934887Y-75897998D01*
X138684000Y-75897998D01*
X138684000Y-75080164D01*
X140397784Y-75080164D01*
X140401080Y-75234000D01*
X140397784Y-75387836D01*
X140820000Y-75810052D01*
X141015050Y-75615002D01*
X141143748Y-75615002D01*
X140985000Y-75773750D01*
X140981928Y-75934000D01*
X140994188Y-76058482D01*
X141030498Y-76178180D01*
X141089463Y-76288494D01*
X141168815Y-76385185D01*
X141265506Y-76464537D01*
X141375820Y-76523502D01*
X141495518Y-76559812D01*
X141620000Y-76572072D01*
X141780250Y-76569000D01*
X141938998Y-76410252D01*
X141938998Y-76538950D01*
X141743948Y-76734000D01*
X142166164Y-77156216D01*
X142320000Y-77152920D01*
X142473836Y-77156216D01*
X142896052Y-76734000D01*
X143243948Y-76734000D01*
X143666164Y-77156216D01*
X143854827Y-77152174D01*
X143921328Y-76991026D01*
X143946986Y-76861142D01*
X144079264Y-76834649D01*
X144238174Y-76768827D01*
X144242216Y-76580164D01*
X143820000Y-76157948D01*
X143243948Y-76734000D01*
X142896052Y-76734000D01*
X142701002Y-76538950D01*
X142701002Y-76410252D01*
X142859750Y-76569000D01*
X143020000Y-76572072D01*
X143144482Y-76559812D01*
X143264180Y-76523502D01*
X143374494Y-76464537D01*
X143471185Y-76385185D01*
X143550537Y-76288494D01*
X143609502Y-76178180D01*
X143645812Y-76058482D01*
X143653147Y-75984000D01*
X143993948Y-75984000D01*
X144416164Y-76406216D01*
X144604827Y-76402174D01*
X144671328Y-76241026D01*
X144705113Y-76070002D01*
X144704884Y-75895672D01*
X144670649Y-75724736D01*
X144604827Y-75565826D01*
X144416164Y-75561784D01*
X143993948Y-75984000D01*
X143653147Y-75984000D01*
X143658072Y-75934000D01*
X143655000Y-75773750D01*
X143496252Y-75615002D01*
X143624950Y-75615002D01*
X143820000Y-75810052D01*
X144242216Y-75387836D01*
X144238920Y-75234000D01*
X144242216Y-75080164D01*
X143820000Y-74657948D01*
X143624950Y-74852998D01*
X143496252Y-74852998D01*
X143655000Y-74694250D01*
X143658072Y-74534000D01*
X143653148Y-74484000D01*
X143993948Y-74484000D01*
X144416164Y-74906216D01*
X144604827Y-74902174D01*
X144671328Y-74741026D01*
X144705113Y-74570002D01*
X144704884Y-74395672D01*
X144670649Y-74224736D01*
X144604827Y-74065826D01*
X144416164Y-74061784D01*
X143993948Y-74484000D01*
X143653148Y-74484000D01*
X143645812Y-74409518D01*
X143609502Y-74289820D01*
X143550537Y-74179506D01*
X143471185Y-74082815D01*
X143374494Y-74003463D01*
X143264180Y-73944498D01*
X143144482Y-73908188D01*
X143020000Y-73895928D01*
X142859750Y-73899000D01*
X142701002Y-74057748D01*
X142701002Y-73929050D01*
X142896052Y-73734000D01*
X143243948Y-73734000D01*
X143820000Y-74310052D01*
X144242216Y-73887836D01*
X144238174Y-73699173D01*
X144077026Y-73632672D01*
X143947142Y-73607014D01*
X143920649Y-73474736D01*
X143854827Y-73315826D01*
X143666164Y-73311784D01*
X143243948Y-73734000D01*
X142896052Y-73734000D01*
X142473836Y-73311784D01*
X142320000Y-73315080D01*
X142166164Y-73311784D01*
X141743948Y-73734000D01*
X141938998Y-73929050D01*
X141938998Y-74057748D01*
X141780250Y-73899000D01*
X141620000Y-73895928D01*
X141495518Y-73908188D01*
X141375820Y-73944498D01*
X141265506Y-74003463D01*
X141168815Y-74082815D01*
X141089463Y-74179506D01*
X141030498Y-74289820D01*
X140994188Y-74409518D01*
X140981928Y-74534000D01*
X140985000Y-74694250D01*
X141143748Y-74852998D01*
X141015050Y-74852998D01*
X140820000Y-74657948D01*
X140397784Y-75080164D01*
X138684000Y-75080164D01*
X138684000Y-74397998D01*
X139934887Y-74397998D01*
X139935116Y-74572328D01*
X139969351Y-74743264D01*
X140035173Y-74902174D01*
X140223836Y-74906216D01*
X140646052Y-74484000D01*
X140223836Y-74061784D01*
X140035173Y-74065826D01*
X139968672Y-74226974D01*
X139934887Y-74397998D01*
X138684000Y-74397998D01*
X138684000Y-73887836D01*
X140397784Y-73887836D01*
X140820000Y-74310052D01*
X141396052Y-73734000D01*
X140973836Y-73311784D01*
X140785173Y-73315826D01*
X140718672Y-73476974D01*
X140693014Y-73606858D01*
X140560736Y-73633351D01*
X140401826Y-73699173D01*
X140397784Y-73887836D01*
X138684000Y-73887836D01*
X138684000Y-73668754D01*
X138887404Y-73465351D01*
X138906782Y-73449448D01*
X138958866Y-73385983D01*
X138970263Y-73372096D01*
X139017434Y-73283845D01*
X139023760Y-73262991D01*
X139046483Y-73188085D01*
X139051431Y-73137836D01*
X141147784Y-73137836D01*
X141570000Y-73560052D01*
X141992216Y-73137836D01*
X142647784Y-73137836D01*
X143070000Y-73560052D01*
X143492216Y-73137836D01*
X143488174Y-72949173D01*
X143327026Y-72882672D01*
X143156002Y-72848887D01*
X142981672Y-72849116D01*
X142810736Y-72883351D01*
X142651826Y-72949173D01*
X142647784Y-73137836D01*
X141992216Y-73137836D01*
X141988174Y-72949173D01*
X141827026Y-72882672D01*
X141656002Y-72848887D01*
X141481672Y-72849116D01*
X141310736Y-72883351D01*
X141151826Y-72949173D01*
X141147784Y-73137836D01*
X139051431Y-73137836D01*
X139053834Y-73113447D01*
X139053834Y-73113445D01*
X139056291Y-73088501D01*
X139053834Y-73063557D01*
X139053834Y-72738586D01*
X139433421Y-72359000D01*
X139517997Y-72359000D01*
X139659225Y-72330908D01*
X139792258Y-72275804D01*
X139911985Y-72195805D01*
X140013805Y-72093985D01*
X140093804Y-71974258D01*
X140148908Y-71841225D01*
X140177000Y-71699997D01*
X140177000Y-71556003D01*
X140148908Y-71414775D01*
X140093804Y-71281742D01*
X140013805Y-71162015D01*
X139911985Y-71060195D01*
X139792258Y-70980196D01*
X139659225Y-70925092D01*
X139517997Y-70897000D01*
X139374003Y-70897000D01*
X139232775Y-70925092D01*
X139099742Y-70980196D01*
X138980015Y-71060195D01*
X138878195Y-71162015D01*
X138798196Y-71281742D01*
X138743092Y-71414775D01*
X138715000Y-71556003D01*
X138715000Y-71640579D01*
X138228410Y-72127170D01*
X138211882Y-72116126D01*
X138156917Y-72093359D01*
X138168649Y-72054683D01*
X138176000Y-71980045D01*
X138176000Y-71980043D01*
X138178457Y-71955099D01*
X138176000Y-71930155D01*
X138176000Y-71144935D01*
X138178457Y-71119991D01*
X138175035Y-71085250D01*
X138168649Y-71020407D01*
X138139601Y-70924649D01*
X138121345Y-70890495D01*
X138092429Y-70836396D01*
X138044850Y-70778421D01*
X138028948Y-70759044D01*
X138018000Y-70750059D01*
X138018000Y-70690893D01*
X138104003Y-70708000D01*
X138247997Y-70708000D01*
X138389225Y-70679908D01*
X138522258Y-70624804D01*
X138641985Y-70544805D01*
X138743805Y-70442985D01*
X138823804Y-70323258D01*
X138878908Y-70190225D01*
X138907000Y-70048997D01*
X138907000Y-69905003D01*
X138878908Y-69763775D01*
X138823804Y-69630742D01*
X138743805Y-69511015D01*
X138641985Y-69409195D01*
X138522258Y-69329196D01*
X138389225Y-69274092D01*
X138247997Y-69246000D01*
X138104003Y-69246000D01*
X137962775Y-69274092D01*
X137829742Y-69329196D01*
X137755382Y-69378882D01*
X137760568Y-69352810D01*
X137760568Y-69208816D01*
X137732476Y-69067588D01*
X137677372Y-68934555D01*
X137597373Y-68814828D01*
X137495553Y-68713008D01*
X137375826Y-68633009D01*
X137242793Y-68577905D01*
X137101565Y-68549813D01*
X136957571Y-68549813D01*
X136816343Y-68577905D01*
X136683310Y-68633009D01*
X136563583Y-68713008D01*
X136461763Y-68814828D01*
X136381764Y-68934555D01*
X136326660Y-69067588D01*
X136298568Y-69208816D01*
X136298568Y-69293392D01*
X135468158Y-70123803D01*
X135448775Y-70139710D01*
X135385294Y-70217063D01*
X135338122Y-70305316D01*
X135309074Y-70401074D01*
X135304101Y-70451571D01*
X135299266Y-70500658D01*
X135301723Y-70525602D01*
X135301724Y-77041734D01*
X135299266Y-77066688D01*
X135307686Y-77152174D01*
X135309075Y-77166273D01*
X135312739Y-77178350D01*
X135338123Y-77262031D01*
X135385294Y-77350283D01*
X135432873Y-77408258D01*
X135448776Y-77427636D01*
X135468153Y-77443538D01*
X135875615Y-77851000D01*
X134009944Y-77851000D01*
X133985000Y-77848543D01*
X133960056Y-77851000D01*
X133960053Y-77851000D01*
X133885415Y-77858351D01*
X133789657Y-77887399D01*
X133701405Y-77934571D01*
X133624052Y-77998052D01*
X133608145Y-78017435D01*
X133362582Y-78262998D01*
X133278005Y-78262998D01*
X133136777Y-78291090D01*
X133003744Y-78346194D01*
X132884017Y-78426193D01*
X132782197Y-78528013D01*
X132702198Y-78647740D01*
X132647094Y-78780773D01*
X132619002Y-78922001D01*
X132619002Y-79065995D01*
X132647094Y-79207223D01*
X132702198Y-79340256D01*
X132782197Y-79459983D01*
X132884017Y-79561803D01*
X133003744Y-79641802D01*
X133136777Y-79696906D01*
X133278005Y-79724998D01*
X133421999Y-79724998D01*
X133563227Y-79696906D01*
X133696260Y-79641802D01*
X133815987Y-79561803D01*
X133917807Y-79459983D01*
X133997806Y-79340256D01*
X134052910Y-79207223D01*
X134081002Y-79065995D01*
X134081002Y-78981418D01*
X134195420Y-78867000D01*
X135203982Y-78867000D01*
X135187092Y-78907775D01*
X135159000Y-79049003D01*
X135159000Y-79192997D01*
X135187092Y-79334225D01*
X135242196Y-79467258D01*
X135322195Y-79586985D01*
X135424015Y-79688805D01*
X135524038Y-79755638D01*
X135509000Y-79754157D01*
X135001000Y-79754157D01*
X134926311Y-79761513D01*
X134874000Y-79777381D01*
X134821689Y-79761513D01*
X134747000Y-79754157D01*
X134459872Y-79754157D01*
X134395215Y-79747789D01*
X134395212Y-79747789D01*
X134357789Y-79744103D01*
X134320366Y-79747789D01*
X132925986Y-79747789D01*
X132814034Y-79758815D01*
X132670397Y-79802387D01*
X132588000Y-79846429D01*
X132588000Y-77931512D01*
X132956420Y-77563092D01*
X133040997Y-77563092D01*
X133182225Y-77535000D01*
X133315258Y-77479896D01*
X133434985Y-77399897D01*
X133536805Y-77298077D01*
X133616804Y-77178350D01*
X133671908Y-77045317D01*
X133700000Y-76904089D01*
X133700000Y-76760095D01*
X133671908Y-76618867D01*
X133616804Y-76485834D01*
X133536805Y-76366107D01*
X133434985Y-76264287D01*
X133315258Y-76184288D01*
X133182225Y-76129184D01*
X133040997Y-76101092D01*
X132897003Y-76101092D01*
X132755775Y-76129184D01*
X132622742Y-76184288D01*
X132503015Y-76264287D01*
X132401195Y-76366107D01*
X132321196Y-76485834D01*
X132266092Y-76618867D01*
X132238000Y-76760095D01*
X132238000Y-76844672D01*
X132017113Y-77065559D01*
X131935459Y-76868429D01*
X131796473Y-76660422D01*
X131619578Y-76483527D01*
X131411571Y-76344541D01*
X131180445Y-76248805D01*
X130935084Y-76200000D01*
X131180445Y-76151195D01*
X131411571Y-76055459D01*
X131619578Y-75916473D01*
X131796473Y-75739578D01*
X131935459Y-75531571D01*
X132031195Y-75300445D01*
X132080000Y-75055084D01*
X132080000Y-74804916D01*
X132031195Y-74559555D01*
X131935459Y-74328429D01*
X131796473Y-74120422D01*
X131619578Y-73943527D01*
X131411571Y-73804541D01*
X131180445Y-73708805D01*
X130935084Y-73660000D01*
X131180445Y-73611195D01*
X131411571Y-73515459D01*
X131619578Y-73376473D01*
X131796473Y-73199578D01*
X131935459Y-72991571D01*
X132031195Y-72760445D01*
X132080000Y-72515084D01*
X132080000Y-72264916D01*
X132031195Y-72019555D01*
X131935459Y-71788429D01*
X131796473Y-71580422D01*
X131619578Y-71403527D01*
X131411571Y-71264541D01*
X131180445Y-71168805D01*
X130935084Y-71120000D01*
X131180445Y-71071195D01*
X131411571Y-70975459D01*
X131619578Y-70836473D01*
X131796473Y-70659578D01*
X131935459Y-70451571D01*
X132031195Y-70220445D01*
X132080000Y-69975084D01*
X132080000Y-69724916D01*
X132031195Y-69479555D01*
X131935459Y-69248429D01*
X131796473Y-69040422D01*
X131619578Y-68863527D01*
X131411571Y-68724541D01*
X131180445Y-68628805D01*
X130944349Y-68581843D01*
X131699000Y-68581843D01*
X131773689Y-68574487D01*
X131845508Y-68552701D01*
X131911696Y-68517322D01*
X131969711Y-68469711D01*
X132017322Y-68411696D01*
X132052701Y-68345508D01*
X132074487Y-68273689D01*
X132081843Y-68199000D01*
X132081843Y-66548000D01*
X154684045Y-66548000D01*
X154686000Y-66770250D01*
G37*
X154686000Y-66770250D02*
X154844750Y-66929000D01*
X155829000Y-66929000D01*
X155829000Y-66909000D01*
X156591000Y-66909000D01*
X156591000Y-66929000D01*
X156611000Y-66929000D01*
X156611000Y-67691000D01*
X156591000Y-67691000D01*
X156591000Y-67711000D01*
X155829000Y-67711000D01*
X155829000Y-67691000D01*
X154844750Y-67691000D01*
X154686000Y-67849750D01*
X154682928Y-68199000D01*
X154695188Y-68323482D01*
X154731498Y-68443180D01*
X154790463Y-68553494D01*
X154869815Y-68650185D01*
X154966506Y-68729537D01*
X155076820Y-68788502D01*
X155196518Y-68824812D01*
X155321000Y-68837072D01*
X155441602Y-68836011D01*
X155400422Y-68863527D01*
X155223527Y-69040422D01*
X155084541Y-69248429D01*
X154988805Y-69479555D01*
X154940000Y-69724916D01*
X154940000Y-69975084D01*
X154988805Y-70220445D01*
X155084541Y-70451571D01*
X155223527Y-70659578D01*
X155400422Y-70836473D01*
X155608429Y-70975459D01*
X155839555Y-71071195D01*
X156084916Y-71120000D01*
X155839555Y-71168805D01*
X155608429Y-71264541D01*
X155400422Y-71403527D01*
X155223527Y-71580422D01*
X155084541Y-71788429D01*
X154988805Y-72019555D01*
X154940000Y-72264916D01*
X154940000Y-72515084D01*
X154988805Y-72760445D01*
X155084541Y-72991571D01*
X155223527Y-73199578D01*
X155400422Y-73376473D01*
X155608429Y-73515459D01*
X155839555Y-73611195D01*
X156084916Y-73660000D01*
X155839555Y-73708805D01*
X155608429Y-73804541D01*
X155400422Y-73943527D01*
X155223527Y-74120422D01*
X155084541Y-74328429D01*
X154988805Y-74559555D01*
X154940000Y-74804916D01*
X154940000Y-75055084D01*
X154988805Y-75300445D01*
X155084541Y-75531571D01*
X155223527Y-75739578D01*
X155400422Y-75916473D01*
X155608429Y-76055459D01*
X155839555Y-76151195D01*
X156084916Y-76200000D01*
X155839555Y-76248805D01*
X155608429Y-76344541D01*
X155400422Y-76483527D01*
X155223527Y-76660422D01*
X155084541Y-76868429D01*
X154988805Y-77099555D01*
X154940000Y-77344916D01*
X154940000Y-77595084D01*
X154988805Y-77840445D01*
X155084541Y-78071571D01*
X155223527Y-78279578D01*
X155400422Y-78456473D01*
X155608429Y-78595459D01*
X155839555Y-78691195D01*
X156084916Y-78740000D01*
X155839555Y-78788805D01*
X155608429Y-78884541D01*
X155400422Y-79023527D01*
X155223527Y-79200422D01*
X155084541Y-79408429D01*
X154988805Y-79639555D01*
X154940000Y-79884916D01*
X154940000Y-80135084D01*
X154988805Y-80380445D01*
X155084541Y-80611571D01*
X155223527Y-80819578D01*
X155400422Y-80996473D01*
X155608429Y-81135459D01*
X155839555Y-81231195D01*
X156084916Y-81280000D01*
X155839555Y-81328805D01*
X155608429Y-81424541D01*
X155400422Y-81563527D01*
X155223527Y-81740422D01*
X155084541Y-81948429D01*
X154988805Y-82179555D01*
X154940000Y-82424916D01*
X154940000Y-82675084D01*
X154988805Y-82920445D01*
X155084541Y-83151571D01*
X155223527Y-83359578D01*
X155400422Y-83536473D01*
X155608429Y-83675459D01*
X155839555Y-83771195D01*
X156084916Y-83820000D01*
X155839555Y-83868805D01*
X155608429Y-83964541D01*
X155400422Y-84103527D01*
X155223527Y-84280422D01*
X155084541Y-84488429D01*
X154988805Y-84719555D01*
X154940000Y-84964916D01*
X154940000Y-85215084D01*
X154988805Y-85460445D01*
X155084541Y-85691571D01*
X155223527Y-85899578D01*
X155400422Y-86076473D01*
X155608429Y-86215459D01*
X155839555Y-86311195D01*
X156084916Y-86360000D01*
X155839555Y-86408805D01*
X155608429Y-86504541D01*
X155400422Y-86643527D01*
X155223527Y-86820422D01*
X155109931Y-86990431D01*
X151861000Y-83741501D01*
X151861000Y-83621003D01*
X151832908Y-83479775D01*
X151777804Y-83346742D01*
X151697805Y-83227015D01*
X151595985Y-83125195D01*
X151476258Y-83045196D01*
X151343225Y-82990092D01*
X151201997Y-82962000D01*
X151058003Y-82962000D01*
X150916775Y-82990092D01*
X150783742Y-83045196D01*
X150664015Y-83125195D01*
X150562195Y-83227015D01*
X150482196Y-83346742D01*
X150427092Y-83479775D01*
X150399000Y-83621003D01*
X150399000Y-83764997D01*
X150427092Y-83906225D01*
X150482196Y-84039258D01*
X150562195Y-84158985D01*
X150664015Y-84260805D01*
X150783742Y-84340804D01*
X150916775Y-84395908D01*
X151054232Y-84423250D01*
X150916775Y-84450592D01*
X150783742Y-84505696D01*
X150664015Y-84585695D01*
X150562195Y-84687515D01*
X150482196Y-84807242D01*
X150427092Y-84940275D01*
X150399000Y-85081503D01*
X150399000Y-85225497D01*
X150427092Y-85366725D01*
X150482196Y-85499758D01*
X150562195Y-85619485D01*
X150664015Y-85721305D01*
X150783742Y-85801304D01*
X150916775Y-85856408D01*
X151058003Y-85884500D01*
X151201997Y-85884500D01*
X151343225Y-85856408D01*
X151476258Y-85801304D01*
X151595985Y-85721305D01*
X151681190Y-85636100D01*
X151692101Y-85636100D01*
X154020013Y-87964013D01*
X154020013Y-88243174D01*
X154017308Y-88229575D01*
X153962204Y-88096542D01*
X153882205Y-87976815D01*
X153780385Y-87874995D01*
X153660658Y-87794996D01*
X153527625Y-87739892D01*
X153386397Y-87711800D01*
X153242403Y-87711800D01*
X153101175Y-87739892D01*
X152968142Y-87794996D01*
X152848415Y-87874995D01*
X152746595Y-87976815D01*
X152666596Y-88096542D01*
X152611492Y-88229575D01*
X152583400Y-88370803D01*
X152583400Y-88514797D01*
X152611492Y-88656025D01*
X152666596Y-88789058D01*
X152746595Y-88908785D01*
X152848415Y-89010605D01*
X152968142Y-89090604D01*
X153101175Y-89145708D01*
X153221153Y-89169573D01*
X153512001Y-89460421D01*
X153512001Y-89471141D01*
X153502225Y-89467092D01*
X153360997Y-89439000D01*
X153217003Y-89439000D01*
X153075775Y-89467092D01*
X152942742Y-89522196D01*
X152823015Y-89602195D01*
X152721195Y-89704015D01*
X152641196Y-89823742D01*
X152586092Y-89956775D01*
X152558000Y-90098003D01*
X152558000Y-90241997D01*
X152586092Y-90383225D01*
X152641196Y-90516258D01*
X152721195Y-90635985D01*
X152823015Y-90737805D01*
X152942742Y-90817804D01*
X153003991Y-90843174D01*
X153003992Y-93038588D01*
X152443580Y-93599000D01*
X152135590Y-93599000D01*
X152158804Y-93564258D01*
X152213908Y-93431225D01*
X152242000Y-93289997D01*
X152242000Y-93146003D01*
X152213908Y-93004775D01*
X152158804Y-92871742D01*
X152078805Y-92752015D01*
X152019000Y-92692210D01*
X152019000Y-92607944D01*
X152021457Y-92583000D01*
X152018035Y-92548258D01*
X152011649Y-92483415D01*
X151982601Y-92387657D01*
X151935429Y-92299405D01*
X151871948Y-92222052D01*
X151852565Y-92206145D01*
X150825211Y-91178791D01*
X150825211Y-90315802D01*
X151090565Y-90050448D01*
X151109948Y-90034541D01*
X151173429Y-89957188D01*
X151220601Y-89868936D01*
X151249649Y-89773178D01*
X151257000Y-89698540D01*
X151257000Y-89698537D01*
X151259457Y-89673593D01*
X151257000Y-89648649D01*
X151257000Y-88670944D01*
X151259457Y-88646000D01*
X151257000Y-88621053D01*
X151249649Y-88546415D01*
X151220601Y-88450657D01*
X151173429Y-88362405D01*
X151109948Y-88285052D01*
X151090565Y-88269145D01*
X150718000Y-87896580D01*
X150718000Y-87812003D01*
X150689908Y-87670775D01*
X150634804Y-87537742D01*
X150554805Y-87418015D01*
X150452985Y-87316195D01*
X150333258Y-87236196D01*
X150200225Y-87181092D01*
X150058997Y-87153000D01*
X149915003Y-87153000D01*
X149773775Y-87181092D01*
X149641390Y-87235928D01*
X149586753Y-87133709D01*
X149475659Y-86998341D01*
X149441731Y-86970497D01*
X149352000Y-86880766D01*
X149352000Y-70274660D01*
X149356300Y-70231000D01*
X149352000Y-70187340D01*
X149352000Y-70187333D01*
X149339136Y-70056726D01*
X149336792Y-70048997D01*
X149288302Y-69889147D01*
X149221289Y-69763775D01*
X149205753Y-69734709D01*
X149094659Y-69599341D01*
X149060742Y-69571506D01*
X147028740Y-67539505D01*
X146927291Y-67456248D01*
X146772852Y-67373698D01*
X146605274Y-67322864D01*
X146431000Y-67305700D01*
X146256726Y-67322864D01*
X146089148Y-67373698D01*
X145934709Y-67456248D01*
X145799341Y-67567341D01*
X145688248Y-67702709D01*
X145605698Y-67857148D01*
X145554864Y-68024726D01*
X145537700Y-68199000D01*
X145554864Y-68373274D01*
X145605698Y-68540852D01*
X145688248Y-68695291D01*
X145771505Y-68796740D01*
X147574001Y-70599237D01*
X147574000Y-87205340D01*
X147569700Y-87249000D01*
X147574000Y-87292660D01*
X147574000Y-87292666D01*
X147578786Y-87341258D01*
X147586864Y-87423274D01*
X147599106Y-87463630D01*
X147633962Y-87578535D01*
X147637698Y-87590852D01*
X147639999Y-87595157D01*
X147720247Y-87745290D01*
X147831341Y-87880659D01*
X147865265Y-87908500D01*
X147955001Y-87998236D01*
X147955000Y-91704410D01*
X147920258Y-91681196D01*
X147787225Y-91626092D01*
X147645997Y-91598000D01*
X147502003Y-91598000D01*
X147360775Y-91626092D01*
X147320000Y-91642982D01*
X147320000Y-88282790D01*
X147379805Y-88222985D01*
X147459804Y-88103258D01*
X147514908Y-87970225D01*
X147543000Y-87828997D01*
X147543000Y-87685003D01*
X147514908Y-87543775D01*
X147459804Y-87410742D01*
X147379805Y-87291015D01*
X147277985Y-87189195D01*
X147158258Y-87109196D01*
X147025225Y-87054092D01*
X146883997Y-87026000D01*
X146740003Y-87026000D01*
X146598775Y-87054092D01*
X146465742Y-87109196D01*
X146346015Y-87189195D01*
X146244195Y-87291015D01*
X146164196Y-87410742D01*
X146109092Y-87543775D01*
X146081000Y-87685003D01*
X146081000Y-87828997D01*
X146109092Y-87970225D01*
X146164196Y-88103258D01*
X146244195Y-88222985D01*
X146304001Y-88282791D01*
X146304000Y-92598644D01*
X146304001Y-92598654D01*
X146304000Y-98452504D01*
X145892000Y-98864504D01*
X145892000Y-98734003D01*
X145863908Y-98592775D01*
X145808804Y-98459742D01*
X145728805Y-98340015D01*
X145626985Y-98238195D01*
X145507258Y-98158196D01*
X145374225Y-98103092D01*
X145232997Y-98075000D01*
X145089003Y-98075000D01*
X144947775Y-98103092D01*
X144814742Y-98158196D01*
X144695015Y-98238195D01*
X144593195Y-98340015D01*
X144513196Y-98459742D01*
X144458092Y-98592775D01*
X144430000Y-98734003D01*
X144430000Y-98877997D01*
X144458092Y-99019225D01*
X144513196Y-99152258D01*
X144526001Y-99171422D01*
X144526000Y-102718053D01*
X144523543Y-102743000D01*
X144526000Y-102767944D01*
X144526000Y-102767946D01*
X144533351Y-102842584D01*
X144562399Y-102938342D01*
X144609571Y-103026595D01*
X144673052Y-103103948D01*
X144692435Y-103119855D01*
X145065000Y-103492420D01*
X145065000Y-103576997D01*
X145093092Y-103718225D01*
X145148196Y-103851258D01*
X145228195Y-103970985D01*
X145330015Y-104072805D01*
X145449742Y-104152804D01*
X145582775Y-104207908D01*
X145724003Y-104236000D01*
X145867997Y-104236000D01*
X146009225Y-104207908D01*
X146142258Y-104152804D01*
X146261985Y-104072805D01*
X146363805Y-103970985D01*
X146380189Y-103946464D01*
X146380190Y-106731235D01*
X146377732Y-106756189D01*
X146382985Y-106809519D01*
X146387541Y-106855774D01*
X146406200Y-106917283D01*
X146416589Y-106951532D01*
X146463760Y-107039784D01*
X146502769Y-107087316D01*
X146527242Y-107117137D01*
X146546619Y-107133039D01*
X147960707Y-108547128D01*
X147964189Y-108582481D01*
X148000498Y-108702179D01*
X148059463Y-108812493D01*
X148118932Y-108884956D01*
X148332216Y-109098241D01*
X148348864Y-109267274D01*
X148399698Y-109434852D01*
X148482248Y-109589291D01*
X148565505Y-109690740D01*
X149225000Y-110350236D01*
X149225001Y-110754212D01*
X146985307Y-108514518D01*
X146970191Y-108496099D01*
X146896705Y-108435791D01*
X146812867Y-108390978D01*
X146721896Y-108363383D01*
X146650997Y-108356400D01*
X146650995Y-108356400D01*
X146627290Y-108354065D01*
X146603585Y-108356400D01*
X144607417Y-108356400D01*
X144583710Y-108354065D01*
X144489103Y-108363383D01*
X144439367Y-108378470D01*
X144398133Y-108390978D01*
X144314295Y-108435791D01*
X144240809Y-108496099D01*
X144225698Y-108514513D01*
X143586012Y-109154199D01*
X143494421Y-109093000D01*
X143594985Y-109025805D01*
X143696805Y-108923985D01*
X143776804Y-108804258D01*
X143831908Y-108671225D01*
X143860000Y-108529997D01*
X143860000Y-108386003D01*
X143831908Y-108244775D01*
X143776804Y-108111742D01*
X143696805Y-107992015D01*
X143637000Y-107932210D01*
X143637000Y-107271420D01*
X144994571Y-105913850D01*
X145013948Y-105897948D01*
X145044118Y-105861185D01*
X145077429Y-105820596D01*
X145124600Y-105732345D01*
X145126435Y-105726296D01*
X145153649Y-105636585D01*
X145161000Y-105561947D01*
X145161000Y-105561945D01*
X145163457Y-105537001D01*
X145161000Y-105512057D01*
X145161000Y-105300790D01*
X145220805Y-105240985D01*
X145300804Y-105121258D01*
X145355908Y-104988225D01*
X145384000Y-104846997D01*
X145384000Y-104703003D01*
X145355908Y-104561775D01*
X145300804Y-104428742D01*
X145220805Y-104309015D01*
X145118985Y-104207195D01*
X144999258Y-104127196D01*
X144866225Y-104072092D01*
X144724997Y-104044000D01*
X144581003Y-104044000D01*
X144439775Y-104072092D01*
X144348200Y-104110024D01*
X144348200Y-96306589D01*
X145587082Y-95067707D01*
X145605501Y-95052591D01*
X145665809Y-94979105D01*
X145710622Y-94895267D01*
X145738217Y-94804296D01*
X145745200Y-94733397D01*
X145745200Y-94733388D01*
X145747534Y-94709691D01*
X145745200Y-94685994D01*
X145745200Y-92525902D01*
X145755225Y-92523908D01*
X145888258Y-92468804D01*
X146007985Y-92388805D01*
X146109805Y-92286985D01*
X146189804Y-92167258D01*
X146244908Y-92034225D01*
X146273000Y-91892997D01*
X146273000Y-91749003D01*
X146244908Y-91607775D01*
X146189804Y-91474742D01*
X146109805Y-91355015D01*
X146007985Y-91253195D01*
X145888258Y-91173196D01*
X145755225Y-91118092D01*
X145613997Y-91090000D01*
X145470003Y-91090000D01*
X145328775Y-91118092D01*
X145195742Y-91173196D01*
X145076015Y-91253195D01*
X145034000Y-91295210D01*
X144991985Y-91253195D01*
X144872258Y-91173196D01*
X144739225Y-91118092D01*
X144597997Y-91090000D01*
X144454003Y-91090000D01*
X144312775Y-91118092D01*
X144179742Y-91173196D01*
X144060015Y-91253195D01*
X143958195Y-91355015D01*
X143878196Y-91474742D01*
X143823092Y-91607775D01*
X143795000Y-91749003D01*
X143795000Y-91892997D01*
X143823092Y-92034225D01*
X143878196Y-92167258D01*
X143958195Y-92286985D01*
X144060015Y-92388805D01*
X144179742Y-92468804D01*
X144312775Y-92523908D01*
X144322801Y-92525902D01*
X144322800Y-94320411D01*
X143205210Y-95438001D01*
X143205210Y-93860210D01*
X143370420Y-93695000D01*
X143454997Y-93695000D01*
X143596225Y-93666908D01*
X143729258Y-93611804D01*
X143848985Y-93531805D01*
X143950805Y-93429985D01*
X144030804Y-93310258D01*
X144085908Y-93177225D01*
X144114000Y-93035997D01*
X144114000Y-92892003D01*
X144085908Y-92750775D01*
X144030804Y-92617742D01*
X143950805Y-92498015D01*
X143848985Y-92396195D01*
X143729258Y-92316196D01*
X143596225Y-92261092D01*
X143454997Y-92233000D01*
X143311003Y-92233000D01*
X143169775Y-92261092D01*
X143036742Y-92316196D01*
X142917015Y-92396195D01*
X142815195Y-92498015D01*
X142735196Y-92617742D01*
X142680092Y-92750775D01*
X142652000Y-92892003D01*
X142652000Y-92976580D01*
X142355645Y-93272935D01*
X142336262Y-93288842D01*
X142272781Y-93366195D01*
X142225609Y-93454448D01*
X142196561Y-93550206D01*
X142190237Y-93614415D01*
X142186753Y-93649790D01*
X142189210Y-93674734D01*
X142189211Y-100435886D01*
X142126082Y-100499015D01*
X142046083Y-100618742D01*
X141990979Y-100751775D01*
X141962887Y-100893003D01*
X141962887Y-101036997D01*
X141990979Y-101178225D01*
X142046083Y-101311258D01*
X142126082Y-101430985D01*
X142185888Y-101490791D01*
X142185887Y-104830509D01*
X140755430Y-106260967D01*
X140736053Y-106276869D01*
X140720151Y-106296246D01*
X140720150Y-106296247D01*
X140672571Y-106354222D01*
X140626848Y-106439765D01*
X140625400Y-106442474D01*
X140600189Y-106525585D01*
X140596352Y-106538233D01*
X140586543Y-106637817D01*
X140589001Y-106662771D01*
X140589000Y-110387946D01*
X140596351Y-110462584D01*
X140625399Y-110558342D01*
X140672571Y-110646595D01*
X140736052Y-110723948D01*
X140813405Y-110787429D01*
X140868240Y-110816739D01*
X141754988Y-111703487D01*
X141770099Y-111721901D01*
X141843585Y-111782209D01*
X141875803Y-111799430D01*
X141927423Y-111827022D01*
X142018393Y-111854617D01*
X142113000Y-111863935D01*
X142136707Y-111861600D01*
X143613295Y-111861600D01*
X143637000Y-111863935D01*
X143660705Y-111861600D01*
X143660707Y-111861600D01*
X143723012Y-111855463D01*
X142256493Y-113321983D01*
X142237022Y-113325856D01*
X142076690Y-113392268D01*
X142064182Y-113400625D01*
X142038967Y-113362888D01*
X141944112Y-113268033D01*
X141832574Y-113193506D01*
X141708640Y-113142171D01*
X141577073Y-113116000D01*
X141442927Y-113116000D01*
X141311360Y-113142171D01*
X141187426Y-113193506D01*
X141075888Y-113268033D01*
X140981033Y-113362888D01*
X140970091Y-113379264D01*
X141028852Y-113276102D01*
X141104724Y-113048235D01*
X140973696Y-112858000D01*
X140291000Y-112858000D01*
X140291000Y-112878000D01*
X139529000Y-112878000D01*
X139529000Y-112858000D01*
X138846304Y-112858000D01*
X138715276Y-113048235D01*
X138791148Y-113276102D01*
X138910016Y-113484789D01*
X139040654Y-113635517D01*
X138968078Y-113695078D01*
X138944220Y-113724149D01*
X138373216Y-114295154D01*
X138263851Y-114236697D01*
X138096274Y-114185864D01*
X137965667Y-114173000D01*
X136822660Y-114173000D01*
X136779000Y-114168700D01*
X136735340Y-114173000D01*
X136735333Y-114173000D01*
X136621325Y-114184229D01*
X136604725Y-114185864D01*
X136531758Y-114207998D01*
X136437149Y-114236697D01*
X136282709Y-114319247D01*
X136246693Y-114348805D01*
X136183710Y-114400494D01*
X136147341Y-114430341D01*
X136119506Y-114464258D01*
X134658186Y-115925579D01*
X133411548Y-115925579D01*
X133417908Y-115910225D01*
X133446000Y-115768997D01*
X133446000Y-115625003D01*
X133417908Y-115483775D01*
X133362804Y-115350742D01*
X133282805Y-115231015D01*
X133223000Y-115171210D01*
X133223000Y-113113420D01*
X133691565Y-112644855D01*
X133710948Y-112628948D01*
X133774429Y-112551595D01*
X133821601Y-112463343D01*
X133850649Y-112367585D01*
X133858000Y-112292947D01*
X133858000Y-112292944D01*
X133860457Y-112268000D01*
X133858000Y-112243056D01*
X133858000Y-112196003D01*
X135032000Y-112196003D01*
X135032000Y-112339997D01*
X135060092Y-112481225D01*
X135115196Y-112614258D01*
X135195195Y-112733985D01*
X135297015Y-112835805D01*
X135416742Y-112915804D01*
X135549775Y-112970908D01*
X135691003Y-112999000D01*
X135834997Y-112999000D01*
X135922319Y-112981630D01*
X135949092Y-113116225D01*
X136004196Y-113249258D01*
X136084195Y-113368985D01*
X136186015Y-113470805D01*
X136305742Y-113550804D01*
X136438775Y-113605908D01*
X136580003Y-113634000D01*
X136723997Y-113634000D01*
X136865225Y-113605908D01*
X136998258Y-113550804D01*
X137117985Y-113470805D01*
X137219805Y-113368985D01*
X137299804Y-113249258D01*
X137354908Y-113116225D01*
X137383000Y-112974997D01*
X137383000Y-112831003D01*
X137354908Y-112689775D01*
X137299804Y-112556742D01*
X137287000Y-112537579D01*
X137287000Y-111905765D01*
X138715276Y-111905765D01*
X138846304Y-112096000D01*
X139529000Y-112096000D01*
X139529000Y-111170445D01*
X140291000Y-111170445D01*
X140291000Y-112096000D01*
X140973696Y-112096000D01*
X141104724Y-111905765D01*
X141028852Y-111677898D01*
X140909984Y-111469211D01*
X140752687Y-111287724D01*
X140563006Y-111140411D01*
X140470082Y-111076304D01*
X140291000Y-111170445D01*
X139529000Y-111170445D01*
X139349918Y-111076304D01*
X139256994Y-111140411D01*
X139067313Y-111287724D01*
X138910016Y-111469211D01*
X138791148Y-111677898D01*
X138715276Y-111905765D01*
X137287000Y-111905765D01*
X137287000Y-110982421D01*
X137299804Y-110963258D01*
X137354908Y-110830225D01*
X137383000Y-110688997D01*
X137383000Y-110545003D01*
X137354908Y-110403775D01*
X137299804Y-110270742D01*
X137219805Y-110151015D01*
X137117985Y-110049195D01*
X136998258Y-109969196D01*
X136865225Y-109914092D01*
X136751545Y-109891480D01*
X137350620Y-109292404D01*
X137373225Y-109287908D01*
X137506258Y-109232804D01*
X137625985Y-109152805D01*
X137727805Y-109050985D01*
X137807804Y-108931258D01*
X137862908Y-108798225D01*
X137891000Y-108656997D01*
X137891000Y-108513003D01*
X137862908Y-108371775D01*
X137807804Y-108238742D01*
X137727805Y-108119015D01*
X137625985Y-108017195D01*
X137506258Y-107937196D01*
X137373225Y-107882092D01*
X137231997Y-107854000D01*
X137088003Y-107854000D01*
X136946775Y-107882092D01*
X136813742Y-107937196D01*
X136694015Y-108017195D01*
X136592195Y-108119015D01*
X136512196Y-108238742D01*
X136457092Y-108371775D01*
X136452596Y-108394380D01*
X135336050Y-109510926D01*
X135311815Y-109530815D01*
X135232463Y-109627507D01*
X135173498Y-109737821D01*
X135137188Y-109857519D01*
X135128000Y-109950809D01*
X135128000Y-109950819D01*
X135124929Y-109982000D01*
X135128000Y-110013181D01*
X135128001Y-111902578D01*
X135115196Y-111921742D01*
X135060092Y-112054775D01*
X135032000Y-112196003D01*
X133858000Y-112196003D01*
X133858000Y-109430420D01*
X135754572Y-107533849D01*
X135773949Y-107517947D01*
X135799844Y-107486393D01*
X135837430Y-107440595D01*
X135868709Y-107382075D01*
X135884602Y-107352342D01*
X135913650Y-107256584D01*
X135921001Y-107181946D01*
X135921001Y-107181943D01*
X135923458Y-107156999D01*
X135921001Y-107132055D01*
X135921001Y-106677738D01*
X135936225Y-106685875D01*
X136102294Y-106736252D01*
X136231727Y-106749000D01*
X136818273Y-106749000D01*
X136947706Y-106736252D01*
X137113775Y-106685875D01*
X137266825Y-106604068D01*
X137400975Y-106493975D01*
X137511068Y-106359825D01*
X137531701Y-106321224D01*
X137534185Y-106319185D01*
X137554074Y-106294950D01*
X138012069Y-105836957D01*
X138071538Y-105764494D01*
X138130502Y-105654180D01*
X138166811Y-105534482D01*
X138170293Y-105499127D01*
X140286467Y-103382953D01*
X140286467Y-104245138D01*
X138596435Y-105935171D01*
X138577052Y-105951078D01*
X138513571Y-106028431D01*
X138466399Y-106116684D01*
X138437351Y-106212442D01*
X138430641Y-106280569D01*
X138370195Y-106341015D01*
X138290196Y-106460742D01*
X138235092Y-106593775D01*
X138207000Y-106735003D01*
X138207000Y-106878997D01*
X138235092Y-107020225D01*
X138290196Y-107153258D01*
X138370195Y-107272985D01*
X138472015Y-107374805D01*
X138591742Y-107454804D01*
X138724775Y-107509908D01*
X138866003Y-107538000D01*
X139009997Y-107538000D01*
X139151225Y-107509908D01*
X139284258Y-107454804D01*
X139403985Y-107374805D01*
X139505805Y-107272985D01*
X139585804Y-107153258D01*
X139640908Y-107020225D01*
X139669000Y-106878997D01*
X139669000Y-106735003D01*
X139640908Y-106593775D01*
X139585804Y-106460742D01*
X139554522Y-106413925D01*
X141136037Y-104832410D01*
X141155414Y-104816508D01*
X141181937Y-104784189D01*
X141218895Y-104739156D01*
X141266066Y-104650905D01*
X141266067Y-104650903D01*
X141295115Y-104555145D01*
X141302466Y-104480507D01*
X141302466Y-104480505D01*
X141304923Y-104455561D01*
X141302466Y-104430617D01*
X141302466Y-92391918D01*
X142886415Y-90807970D01*
X142905792Y-90792068D01*
X142937084Y-90753938D01*
X142969273Y-90714716D01*
X143016444Y-90626465D01*
X143019338Y-90616926D01*
X143045493Y-90530705D01*
X143052844Y-90456067D01*
X143052844Y-90456065D01*
X143055301Y-90431121D01*
X143052844Y-90406177D01*
X143052844Y-80593787D01*
X143055301Y-80568843D01*
X143052844Y-80543897D01*
X143045493Y-80469259D01*
X143016445Y-80373501D01*
X142972569Y-80291415D01*
X142969273Y-80285248D01*
X142921694Y-80227273D01*
X142905792Y-80207896D01*
X142886415Y-80191994D01*
X140024585Y-77330164D01*
X141147784Y-77330164D01*
X141151826Y-77518827D01*
X141312974Y-77585328D01*
X141483998Y-77619113D01*
X141658328Y-77618884D01*
X141829264Y-77584649D01*
X141988174Y-77518827D01*
X141992216Y-77330164D01*
X142647784Y-77330164D01*
X142651826Y-77518827D01*
X142812974Y-77585328D01*
X142983998Y-77619113D01*
X143158328Y-77618884D01*
X143329264Y-77584649D01*
X143488174Y-77518827D01*
X143492216Y-77330164D01*
X143070000Y-76907948D01*
X142647784Y-77330164D01*
X141992216Y-77330164D01*
X141570000Y-76907948D01*
X141147784Y-77330164D01*
X140024585Y-77330164D01*
X139274585Y-76580164D01*
X140397784Y-76580164D01*
X140401826Y-76768827D01*
X140562974Y-76835328D01*
X140692858Y-76860986D01*
X140719351Y-76993264D01*
X140785173Y-77152174D01*
X140973836Y-77156216D01*
X141396052Y-76734000D01*
X140820000Y-76157948D01*
X140397784Y-76580164D01*
X139274585Y-76580164D01*
X138684000Y-75989579D01*
X138684000Y-75897998D01*
X139934887Y-75897998D01*
X139935116Y-76072328D01*
X139969351Y-76243264D01*
X140035173Y-76402174D01*
X140223836Y-76406216D01*
X140646052Y-75984000D01*
X140223836Y-75561784D01*
X140035173Y-75565826D01*
X139968672Y-75726974D01*
X139934887Y-75897998D01*
X138684000Y-75897998D01*
X138684000Y-75080164D01*
X140397784Y-75080164D01*
X140401080Y-75234000D01*
X140397784Y-75387836D01*
X140820000Y-75810052D01*
X141015050Y-75615002D01*
X141143748Y-75615002D01*
X140985000Y-75773750D01*
X140981928Y-75934000D01*
X140994188Y-76058482D01*
X141030498Y-76178180D01*
X141089463Y-76288494D01*
X141168815Y-76385185D01*
X141265506Y-76464537D01*
X141375820Y-76523502D01*
X141495518Y-76559812D01*
X141620000Y-76572072D01*
X141780250Y-76569000D01*
X141938998Y-76410252D01*
X141938998Y-76538950D01*
X141743948Y-76734000D01*
X142166164Y-77156216D01*
X142320000Y-77152920D01*
X142473836Y-77156216D01*
X142896052Y-76734000D01*
X143243948Y-76734000D01*
X143666164Y-77156216D01*
X143854827Y-77152174D01*
X143921328Y-76991026D01*
X143946986Y-76861142D01*
X144079264Y-76834649D01*
X144238174Y-76768827D01*
X144242216Y-76580164D01*
X143820000Y-76157948D01*
X143243948Y-76734000D01*
X142896052Y-76734000D01*
X142701002Y-76538950D01*
X142701002Y-76410252D01*
X142859750Y-76569000D01*
X143020000Y-76572072D01*
X143144482Y-76559812D01*
X143264180Y-76523502D01*
X143374494Y-76464537D01*
X143471185Y-76385185D01*
X143550537Y-76288494D01*
X143609502Y-76178180D01*
X143645812Y-76058482D01*
X143653147Y-75984000D01*
X143993948Y-75984000D01*
X144416164Y-76406216D01*
X144604827Y-76402174D01*
X144671328Y-76241026D01*
X144705113Y-76070002D01*
X144704884Y-75895672D01*
X144670649Y-75724736D01*
X144604827Y-75565826D01*
X144416164Y-75561784D01*
X143993948Y-75984000D01*
X143653147Y-75984000D01*
X143658072Y-75934000D01*
X143655000Y-75773750D01*
X143496252Y-75615002D01*
X143624950Y-75615002D01*
X143820000Y-75810052D01*
X144242216Y-75387836D01*
X144238920Y-75234000D01*
X144242216Y-75080164D01*
X143820000Y-74657948D01*
X143624950Y-74852998D01*
X143496252Y-74852998D01*
X143655000Y-74694250D01*
X143658072Y-74534000D01*
X143653148Y-74484000D01*
X143993948Y-74484000D01*
X144416164Y-74906216D01*
X144604827Y-74902174D01*
X144671328Y-74741026D01*
X144705113Y-74570002D01*
X144704884Y-74395672D01*
X144670649Y-74224736D01*
X144604827Y-74065826D01*
X144416164Y-74061784D01*
X143993948Y-74484000D01*
X143653148Y-74484000D01*
X143645812Y-74409518D01*
X143609502Y-74289820D01*
X143550537Y-74179506D01*
X143471185Y-74082815D01*
X143374494Y-74003463D01*
X143264180Y-73944498D01*
X143144482Y-73908188D01*
X143020000Y-73895928D01*
X142859750Y-73899000D01*
X142701002Y-74057748D01*
X142701002Y-73929050D01*
X142896052Y-73734000D01*
X143243948Y-73734000D01*
X143820000Y-74310052D01*
X144242216Y-73887836D01*
X144238174Y-73699173D01*
X144077026Y-73632672D01*
X143947142Y-73607014D01*
X143920649Y-73474736D01*
X143854827Y-73315826D01*
X143666164Y-73311784D01*
X143243948Y-73734000D01*
X142896052Y-73734000D01*
X142473836Y-73311784D01*
X142320000Y-73315080D01*
X142166164Y-73311784D01*
X141743948Y-73734000D01*
X141938998Y-73929050D01*
X141938998Y-74057748D01*
X141780250Y-73899000D01*
X141620000Y-73895928D01*
X141495518Y-73908188D01*
X141375820Y-73944498D01*
X141265506Y-74003463D01*
X141168815Y-74082815D01*
X141089463Y-74179506D01*
X141030498Y-74289820D01*
X140994188Y-74409518D01*
X140981928Y-74534000D01*
X140985000Y-74694250D01*
X141143748Y-74852998D01*
X141015050Y-74852998D01*
X140820000Y-74657948D01*
X140397784Y-75080164D01*
X138684000Y-75080164D01*
X138684000Y-74397998D01*
X139934887Y-74397998D01*
X139935116Y-74572328D01*
X139969351Y-74743264D01*
X140035173Y-74902174D01*
X140223836Y-74906216D01*
X140646052Y-74484000D01*
X140223836Y-74061784D01*
X140035173Y-74065826D01*
X139968672Y-74226974D01*
X139934887Y-74397998D01*
X138684000Y-74397998D01*
X138684000Y-73887836D01*
X140397784Y-73887836D01*
X140820000Y-74310052D01*
X141396052Y-73734000D01*
X140973836Y-73311784D01*
X140785173Y-73315826D01*
X140718672Y-73476974D01*
X140693014Y-73606858D01*
X140560736Y-73633351D01*
X140401826Y-73699173D01*
X140397784Y-73887836D01*
X138684000Y-73887836D01*
X138684000Y-73668754D01*
X138887404Y-73465351D01*
X138906782Y-73449448D01*
X138958866Y-73385983D01*
X138970263Y-73372096D01*
X139017434Y-73283845D01*
X139023760Y-73262991D01*
X139046483Y-73188085D01*
X139051431Y-73137836D01*
X141147784Y-73137836D01*
X141570000Y-73560052D01*
X141992216Y-73137836D01*
X142647784Y-73137836D01*
X143070000Y-73560052D01*
X143492216Y-73137836D01*
X143488174Y-72949173D01*
X143327026Y-72882672D01*
X143156002Y-72848887D01*
X142981672Y-72849116D01*
X142810736Y-72883351D01*
X142651826Y-72949173D01*
X142647784Y-73137836D01*
X141992216Y-73137836D01*
X141988174Y-72949173D01*
X141827026Y-72882672D01*
X141656002Y-72848887D01*
X141481672Y-72849116D01*
X141310736Y-72883351D01*
X141151826Y-72949173D01*
X141147784Y-73137836D01*
X139051431Y-73137836D01*
X139053834Y-73113447D01*
X139053834Y-73113445D01*
X139056291Y-73088501D01*
X139053834Y-73063557D01*
X139053834Y-72738586D01*
X139433421Y-72359000D01*
X139517997Y-72359000D01*
X139659225Y-72330908D01*
X139792258Y-72275804D01*
X139911985Y-72195805D01*
X140013805Y-72093985D01*
X140093804Y-71974258D01*
X140148908Y-71841225D01*
X140177000Y-71699997D01*
X140177000Y-71556003D01*
X140148908Y-71414775D01*
X140093804Y-71281742D01*
X140013805Y-71162015D01*
X139911985Y-71060195D01*
X139792258Y-70980196D01*
X139659225Y-70925092D01*
X139517997Y-70897000D01*
X139374003Y-70897000D01*
X139232775Y-70925092D01*
X139099742Y-70980196D01*
X138980015Y-71060195D01*
X138878195Y-71162015D01*
X138798196Y-71281742D01*
X138743092Y-71414775D01*
X138715000Y-71556003D01*
X138715000Y-71640579D01*
X138228410Y-72127170D01*
X138211882Y-72116126D01*
X138156917Y-72093359D01*
X138168649Y-72054683D01*
X138176000Y-71980045D01*
X138176000Y-71980043D01*
X138178457Y-71955099D01*
X138176000Y-71930155D01*
X138176000Y-71144935D01*
X138178457Y-71119991D01*
X138175035Y-71085250D01*
X138168649Y-71020407D01*
X138139601Y-70924649D01*
X138121345Y-70890495D01*
X138092429Y-70836396D01*
X138044850Y-70778421D01*
X138028948Y-70759044D01*
X138018000Y-70750059D01*
X138018000Y-70690893D01*
X138104003Y-70708000D01*
X138247997Y-70708000D01*
X138389225Y-70679908D01*
X138522258Y-70624804D01*
X138641985Y-70544805D01*
X138743805Y-70442985D01*
X138823804Y-70323258D01*
X138878908Y-70190225D01*
X138907000Y-70048997D01*
X138907000Y-69905003D01*
X138878908Y-69763775D01*
X138823804Y-69630742D01*
X138743805Y-69511015D01*
X138641985Y-69409195D01*
X138522258Y-69329196D01*
X138389225Y-69274092D01*
X138247997Y-69246000D01*
X138104003Y-69246000D01*
X137962775Y-69274092D01*
X137829742Y-69329196D01*
X137755382Y-69378882D01*
X137760568Y-69352810D01*
X137760568Y-69208816D01*
X137732476Y-69067588D01*
X137677372Y-68934555D01*
X137597373Y-68814828D01*
X137495553Y-68713008D01*
X137375826Y-68633009D01*
X137242793Y-68577905D01*
X137101565Y-68549813D01*
X136957571Y-68549813D01*
X136816343Y-68577905D01*
X136683310Y-68633009D01*
X136563583Y-68713008D01*
X136461763Y-68814828D01*
X136381764Y-68934555D01*
X136326660Y-69067588D01*
X136298568Y-69208816D01*
X136298568Y-69293392D01*
X135468158Y-70123803D01*
X135448775Y-70139710D01*
X135385294Y-70217063D01*
X135338122Y-70305316D01*
X135309074Y-70401074D01*
X135304101Y-70451571D01*
X135299266Y-70500658D01*
X135301723Y-70525602D01*
X135301724Y-77041734D01*
X135299266Y-77066688D01*
X135307686Y-77152174D01*
X135309075Y-77166273D01*
X135312739Y-77178350D01*
X135338123Y-77262031D01*
X135385294Y-77350283D01*
X135432873Y-77408258D01*
X135448776Y-77427636D01*
X135468153Y-77443538D01*
X135875615Y-77851000D01*
X134009944Y-77851000D01*
X133985000Y-77848543D01*
X133960056Y-77851000D01*
X133960053Y-77851000D01*
X133885415Y-77858351D01*
X133789657Y-77887399D01*
X133701405Y-77934571D01*
X133624052Y-77998052D01*
X133608145Y-78017435D01*
X133362582Y-78262998D01*
X133278005Y-78262998D01*
X133136777Y-78291090D01*
X133003744Y-78346194D01*
X132884017Y-78426193D01*
X132782197Y-78528013D01*
X132702198Y-78647740D01*
X132647094Y-78780773D01*
X132619002Y-78922001D01*
X132619002Y-79065995D01*
X132647094Y-79207223D01*
X132702198Y-79340256D01*
X132782197Y-79459983D01*
X132884017Y-79561803D01*
X133003744Y-79641802D01*
X133136777Y-79696906D01*
X133278005Y-79724998D01*
X133421999Y-79724998D01*
X133563227Y-79696906D01*
X133696260Y-79641802D01*
X133815987Y-79561803D01*
X133917807Y-79459983D01*
X133997806Y-79340256D01*
X134052910Y-79207223D01*
X134081002Y-79065995D01*
X134081002Y-78981418D01*
X134195420Y-78867000D01*
X135203982Y-78867000D01*
X135187092Y-78907775D01*
X135159000Y-79049003D01*
X135159000Y-79192997D01*
X135187092Y-79334225D01*
X135242196Y-79467258D01*
X135322195Y-79586985D01*
X135424015Y-79688805D01*
X135524038Y-79755638D01*
X135509000Y-79754157D01*
X135001000Y-79754157D01*
X134926311Y-79761513D01*
X134874000Y-79777381D01*
X134821689Y-79761513D01*
X134747000Y-79754157D01*
X134459872Y-79754157D01*
X134395215Y-79747789D01*
X134395212Y-79747789D01*
X134357789Y-79744103D01*
X134320366Y-79747789D01*
X132925986Y-79747789D01*
X132814034Y-79758815D01*
X132670397Y-79802387D01*
X132588000Y-79846429D01*
X132588000Y-77931512D01*
X132956420Y-77563092D01*
X133040997Y-77563092D01*
X133182225Y-77535000D01*
X133315258Y-77479896D01*
X133434985Y-77399897D01*
X133536805Y-77298077D01*
X133616804Y-77178350D01*
X133671908Y-77045317D01*
X133700000Y-76904089D01*
X133700000Y-76760095D01*
X133671908Y-76618867D01*
X133616804Y-76485834D01*
X133536805Y-76366107D01*
X133434985Y-76264287D01*
X133315258Y-76184288D01*
X133182225Y-76129184D01*
X133040997Y-76101092D01*
X132897003Y-76101092D01*
X132755775Y-76129184D01*
X132622742Y-76184288D01*
X132503015Y-76264287D01*
X132401195Y-76366107D01*
X132321196Y-76485834D01*
X132266092Y-76618867D01*
X132238000Y-76760095D01*
X132238000Y-76844672D01*
X132017113Y-77065559D01*
X131935459Y-76868429D01*
X131796473Y-76660422D01*
X131619578Y-76483527D01*
X131411571Y-76344541D01*
X131180445Y-76248805D01*
X130935084Y-76200000D01*
X131180445Y-76151195D01*
X131411571Y-76055459D01*
X131619578Y-75916473D01*
X131796473Y-75739578D01*
X131935459Y-75531571D01*
X132031195Y-75300445D01*
X132080000Y-75055084D01*
X132080000Y-74804916D01*
X132031195Y-74559555D01*
X131935459Y-74328429D01*
X131796473Y-74120422D01*
X131619578Y-73943527D01*
X131411571Y-73804541D01*
X131180445Y-73708805D01*
X130935084Y-73660000D01*
X131180445Y-73611195D01*
X131411571Y-73515459D01*
X131619578Y-73376473D01*
X131796473Y-73199578D01*
X131935459Y-72991571D01*
X132031195Y-72760445D01*
X132080000Y-72515084D01*
X132080000Y-72264916D01*
X132031195Y-72019555D01*
X131935459Y-71788429D01*
X131796473Y-71580422D01*
X131619578Y-71403527D01*
X131411571Y-71264541D01*
X131180445Y-71168805D01*
X130935084Y-71120000D01*
X131180445Y-71071195D01*
X131411571Y-70975459D01*
X131619578Y-70836473D01*
X131796473Y-70659578D01*
X131935459Y-70451571D01*
X132031195Y-70220445D01*
X132080000Y-69975084D01*
X132080000Y-69724916D01*
X132031195Y-69479555D01*
X131935459Y-69248429D01*
X131796473Y-69040422D01*
X131619578Y-68863527D01*
X131411571Y-68724541D01*
X131180445Y-68628805D01*
X130944349Y-68581843D01*
X131699000Y-68581843D01*
X131773689Y-68574487D01*
X131845508Y-68552701D01*
X131911696Y-68517322D01*
X131969711Y-68469711D01*
X132017322Y-68411696D01*
X132052701Y-68345508D01*
X132074487Y-68273689D01*
X132081843Y-68199000D01*
X132081843Y-66548000D01*
X154684045Y-66548000D01*
X154686000Y-66770250D01*
G36*
X142701000Y-74853000D02*
G01*
X142721000Y-74853000D01*
X142721000Y-75615000D01*
X142701000Y-75615000D01*
X142701000Y-75635000D01*
X141939000Y-75635000D01*
X141939000Y-75615000D01*
X141919000Y-75615000D01*
X141919000Y-74853000D01*
X141939000Y-74853000D01*
X141939000Y-74833000D01*
X142701000Y-74833000D01*
X142701000Y-74853000D01*
G37*
X142701000Y-74853000D02*
X142721000Y-74853000D01*
X142721000Y-75615000D01*
X142701000Y-75615000D01*
X142701000Y-75635000D01*
X141939000Y-75635000D01*
X141939000Y-75615000D01*
X141919000Y-75615000D01*
X141919000Y-74853000D01*
X141939000Y-74853000D01*
X141939000Y-74833000D01*
X142701000Y-74833000D01*
X142701000Y-74853000D01*
G36*
X146728998Y-111089497D02*
G01*
X146728998Y-111170444D01*
X146549918Y-111076304D01*
X146456994Y-111140411D01*
X146267313Y-111287724D01*
X146110016Y-111469211D01*
X145991148Y-111677898D01*
X145915276Y-111905765D01*
X146046304Y-112096000D01*
X146729000Y-112096000D01*
X146729000Y-112076000D01*
X147491000Y-112076000D01*
X147491000Y-112096000D01*
X147511000Y-112096000D01*
X147511000Y-112858000D01*
X147491000Y-112858000D01*
X147491000Y-112878000D01*
X146729000Y-112878000D01*
X146729000Y-112858000D01*
X146046304Y-112858000D01*
X145915276Y-113048235D01*
X145991148Y-113276102D01*
X146049909Y-113379264D01*
X146038967Y-113362888D01*
X145944112Y-113268033D01*
X145832574Y-113193506D01*
X145708640Y-113142171D01*
X145577073Y-113116000D01*
X145442927Y-113116000D01*
X145311360Y-113142171D01*
X145187426Y-113193506D01*
X145075888Y-113268033D01*
X144981033Y-113362888D01*
X144906506Y-113474426D01*
X144855171Y-113598360D01*
X144829000Y-113729927D01*
X144829000Y-113864073D01*
X144855171Y-113995640D01*
X144906506Y-114119574D01*
X144981033Y-114231112D01*
X145075888Y-114325967D01*
X145187426Y-114400494D01*
X145211255Y-114410364D01*
X144940620Y-114681000D01*
X143214135Y-114681000D01*
X143274732Y-114590310D01*
X143341144Y-114429978D01*
X143375000Y-114259771D01*
X143375000Y-114086229D01*
X143360615Y-114013909D01*
X145999676Y-111374849D01*
X146086310Y-111338964D01*
X146230605Y-111242550D01*
X146353318Y-111119837D01*
X146449732Y-110975542D01*
X146498151Y-110858650D01*
X146728998Y-111089497D01*
G37*
X146728998Y-111089497D02*
X146728998Y-111170444D01*
X146549918Y-111076304D01*
X146456994Y-111140411D01*
X146267313Y-111287724D01*
X146110016Y-111469211D01*
X145991148Y-111677898D01*
X145915276Y-111905765D01*
X146046304Y-112096000D01*
X146729000Y-112096000D01*
X146729000Y-112076000D01*
X147491000Y-112076000D01*
X147491000Y-112096000D01*
X147511000Y-112096000D01*
X147511000Y-112858000D01*
X147491000Y-112858000D01*
X147491000Y-112878000D01*
X146729000Y-112878000D01*
X146729000Y-112858000D01*
X146046304Y-112858000D01*
X145915276Y-113048235D01*
X145991148Y-113276102D01*
X146049909Y-113379264D01*
X146038967Y-113362888D01*
X145944112Y-113268033D01*
X145832574Y-113193506D01*
X145708640Y-113142171D01*
X145577073Y-113116000D01*
X145442927Y-113116000D01*
X145311360Y-113142171D01*
X145187426Y-113193506D01*
X145075888Y-113268033D01*
X144981033Y-113362888D01*
X144906506Y-113474426D01*
X144855171Y-113598360D01*
X144829000Y-113729927D01*
X144829000Y-113864073D01*
X144855171Y-113995640D01*
X144906506Y-114119574D01*
X144981033Y-114231112D01*
X145075888Y-114325967D01*
X145187426Y-114400494D01*
X145211255Y-114410364D01*
X144940620Y-114681000D01*
X143214135Y-114681000D01*
X143274732Y-114590310D01*
X143341144Y-114429978D01*
X143375000Y-114259771D01*
X143375000Y-114086229D01*
X143360615Y-114013909D01*
X145999676Y-111374849D01*
X146086310Y-111338964D01*
X146230605Y-111242550D01*
X146353318Y-111119837D01*
X146449732Y-110975542D01*
X146498151Y-110858650D01*
X146728998Y-111089497D01*
G36*
X149374983Y-113735482D02*
G01*
X149390099Y-113753901D01*
X149463585Y-113814209D01*
X149547423Y-113859022D01*
X149638394Y-113886617D01*
X149709293Y-113893600D01*
X149709302Y-113893600D01*
X149732999Y-113895934D01*
X149756696Y-113893600D01*
X150728788Y-113893600D01*
X150712690Y-113900268D01*
X150684655Y-113919000D01*
X148524630Y-113919000D01*
X148266284Y-113660654D01*
X148242422Y-113631578D01*
X148126392Y-113536355D01*
X148084636Y-113514036D01*
X148109984Y-113484789D01*
X148228852Y-113276102D01*
X148304724Y-113048235D01*
X148173697Y-112858002D01*
X148345000Y-112858002D01*
X148345000Y-112705499D01*
X149374983Y-113735482D01*
G37*
X149374983Y-113735482D02*
X149390099Y-113753901D01*
X149463585Y-113814209D01*
X149547423Y-113859022D01*
X149638394Y-113886617D01*
X149709293Y-113893600D01*
X149709302Y-113893600D01*
X149732999Y-113895934D01*
X149756696Y-113893600D01*
X150728788Y-113893600D01*
X150712690Y-113900268D01*
X150684655Y-113919000D01*
X148524630Y-113919000D01*
X148266284Y-113660654D01*
X148242422Y-113631578D01*
X148126392Y-113536355D01*
X148084636Y-113514036D01*
X148109984Y-113484789D01*
X148228852Y-113276102D01*
X148304724Y-113048235D01*
X148173697Y-112858002D01*
X148345000Y-112858002D01*
X148345000Y-112705499D01*
X149374983Y-113735482D01*
G36*
X138228311Y-101594487D02*
G01*
X138303000Y-101601843D01*
X138544521Y-101601843D01*
X138557000Y-101603072D01*
X138569479Y-101601843D01*
X138811000Y-101601843D01*
X138885689Y-101594487D01*
X138914833Y-101585646D01*
X138914833Y-101793747D01*
X138219580Y-102489000D01*
X137795954Y-102489000D01*
X137768493Y-102466463D01*
X137658179Y-102407498D01*
X137538481Y-102371189D01*
X137413999Y-102358929D01*
X137289518Y-102371189D01*
X137169820Y-102407498D01*
X137059505Y-102466463D01*
X137029607Y-102491000D01*
X136906000Y-102491000D01*
X136906000Y-102495640D01*
X136818273Y-102487000D01*
X136231727Y-102487000D01*
X136144000Y-102495640D01*
X136144000Y-102491000D01*
X136124000Y-102491000D01*
X136124000Y-101745000D01*
X136144000Y-101745000D01*
X136144000Y-101740360D01*
X136231727Y-101749000D01*
X136818273Y-101749000D01*
X136906000Y-101740360D01*
X136906000Y-101745000D01*
X137677183Y-101745000D01*
X137750921Y-101622565D01*
X137787378Y-101618974D01*
X137843851Y-101601843D01*
X138049000Y-101601843D01*
X138123689Y-101594487D01*
X138176000Y-101578619D01*
X138228311Y-101594487D01*
G37*
X138228311Y-101594487D02*
X138303000Y-101601843D01*
X138544521Y-101601843D01*
X138557000Y-101603072D01*
X138569479Y-101601843D01*
X138811000Y-101601843D01*
X138885689Y-101594487D01*
X138914833Y-101585646D01*
X138914833Y-101793747D01*
X138219580Y-102489000D01*
X137795954Y-102489000D01*
X137768493Y-102466463D01*
X137658179Y-102407498D01*
X137538481Y-102371189D01*
X137413999Y-102358929D01*
X137289518Y-102371189D01*
X137169820Y-102407498D01*
X137059505Y-102466463D01*
X137029607Y-102491000D01*
X136906000Y-102491000D01*
X136906000Y-102495640D01*
X136818273Y-102487000D01*
X136231727Y-102487000D01*
X136144000Y-102495640D01*
X136144000Y-102491000D01*
X136124000Y-102491000D01*
X136124000Y-101745000D01*
X136144000Y-101745000D01*
X136144000Y-101740360D01*
X136231727Y-101749000D01*
X136818273Y-101749000D01*
X136906000Y-101740360D01*
X136906000Y-101745000D01*
X137677183Y-101745000D01*
X137750921Y-101622565D01*
X137787378Y-101618974D01*
X137843851Y-101601843D01*
X138049000Y-101601843D01*
X138123689Y-101594487D01*
X138176000Y-101578619D01*
X138228311Y-101594487D01*
G36*
X148311505Y-92672740D02*
G01*
X148971000Y-93332236D01*
X148971001Y-97619330D01*
X148966700Y-97663000D01*
X148983864Y-97837274D01*
X149034698Y-98004852D01*
X149117248Y-98159291D01*
X149191232Y-98249440D01*
X149228342Y-98294659D01*
X149262260Y-98322495D01*
X149327568Y-98387802D01*
X148266370Y-99449000D01*
X148122229Y-99449000D01*
X147952022Y-99482856D01*
X147802600Y-99544749D01*
X147802600Y-93544898D01*
X147898477Y-93449021D01*
X147916901Y-93433901D01*
X147977209Y-93360415D01*
X148022022Y-93276577D01*
X148049617Y-93185606D01*
X148056600Y-93114707D01*
X148056600Y-93114706D01*
X148058935Y-93091001D01*
X148056600Y-93067296D01*
X148056600Y-92880190D01*
X148141805Y-92794985D01*
X148221804Y-92675258D01*
X148248814Y-92610049D01*
X148311505Y-92672740D01*
G37*
X148311505Y-92672740D02*
X148971000Y-93332236D01*
X148971001Y-97619330D01*
X148966700Y-97663000D01*
X148983864Y-97837274D01*
X149034698Y-98004852D01*
X149117248Y-98159291D01*
X149191232Y-98249440D01*
X149228342Y-98294659D01*
X149262260Y-98322495D01*
X149327568Y-98387802D01*
X148266370Y-99449000D01*
X148122229Y-99449000D01*
X147952022Y-99482856D01*
X147802600Y-99544749D01*
X147802600Y-93544898D01*
X147898477Y-93449021D01*
X147916901Y-93433901D01*
X147977209Y-93360415D01*
X148022022Y-93276577D01*
X148049617Y-93185606D01*
X148056600Y-93114707D01*
X148056600Y-93114706D01*
X148058935Y-93091001D01*
X148056600Y-93067296D01*
X148056600Y-92880190D01*
X148141805Y-92794985D01*
X148221804Y-92675258D01*
X148248814Y-92610049D01*
X148311505Y-92672740D01*
G36*
X139192001Y-81813978D02*
G01*
X139192001Y-82184581D01*
X139124805Y-82084015D01*
X139022985Y-81982195D01*
X138903258Y-81902196D01*
X138770225Y-81847092D01*
X138628997Y-81819000D01*
X138485003Y-81819000D01*
X138343775Y-81847092D01*
X138210742Y-81902196D01*
X138091015Y-81982195D01*
X137989195Y-82084015D01*
X137909196Y-82203742D01*
X137854092Y-82336775D01*
X137826000Y-82478003D01*
X137826000Y-82562580D01*
X137580467Y-82808113D01*
X137561084Y-82824020D01*
X137497603Y-82901373D01*
X137450431Y-82989626D01*
X137421383Y-83085384D01*
X137414032Y-83160021D01*
X137411575Y-83184968D01*
X137414032Y-83209912D01*
X137414032Y-83346245D01*
X136641077Y-84119201D01*
X133583742Y-84119201D01*
X133558798Y-84116744D01*
X133533854Y-84119201D01*
X133533852Y-84119201D01*
X133506790Y-84121866D01*
X133421997Y-84105000D01*
X133278003Y-84105000D01*
X133136775Y-84133092D01*
X133003742Y-84188196D01*
X132884015Y-84268195D01*
X132782195Y-84370015D01*
X132702196Y-84489742D01*
X132647092Y-84622775D01*
X132619000Y-84764003D01*
X132619000Y-84907997D01*
X132647092Y-85049225D01*
X132702196Y-85182258D01*
X132782195Y-85301985D01*
X132884015Y-85403805D01*
X133003742Y-85483804D01*
X133016339Y-85489022D01*
X131888298Y-86617064D01*
X131857192Y-86614000D01*
X131857180Y-86614000D01*
X131825999Y-86610929D01*
X131794818Y-86614000D01*
X131575388Y-86614000D01*
X131411571Y-86504541D01*
X131180445Y-86408805D01*
X130935084Y-86360000D01*
X131180445Y-86311195D01*
X131411571Y-86215459D01*
X131619578Y-86076473D01*
X131796473Y-85899578D01*
X131935459Y-85691571D01*
X132031195Y-85460445D01*
X132080000Y-85215084D01*
X132080000Y-84964916D01*
X132031195Y-84719555D01*
X131935459Y-84488429D01*
X131931371Y-84482311D01*
X131975538Y-84428494D01*
X132034502Y-84318180D01*
X132070811Y-84198481D01*
X132074293Y-84163127D01*
X132417410Y-83820010D01*
X136180690Y-83820010D01*
X136205634Y-83822467D01*
X136230578Y-83820010D01*
X136230581Y-83820010D01*
X136305219Y-83812659D01*
X136400977Y-83783611D01*
X136489229Y-83736439D01*
X136566582Y-83672958D01*
X136582489Y-83653576D01*
X136993580Y-83242485D01*
X137012958Y-83226582D01*
X137047109Y-83184968D01*
X137076439Y-83149230D01*
X137110565Y-83085384D01*
X137123611Y-83060977D01*
X137152659Y-82965219D01*
X137160010Y-82890581D01*
X137160010Y-82890578D01*
X137162467Y-82865634D01*
X137160010Y-82840690D01*
X137160010Y-82497527D01*
X138136571Y-81520967D01*
X138155948Y-81505065D01*
X138188857Y-81464965D01*
X138219429Y-81427713D01*
X138266600Y-81339461D01*
X138266601Y-81339460D01*
X138295649Y-81243702D01*
X138303000Y-81169064D01*
X138303000Y-81169061D01*
X138305457Y-81144117D01*
X138303000Y-81119173D01*
X138303000Y-80924977D01*
X139192001Y-81813978D01*
G37*
X139192001Y-81813978D02*
X139192001Y-82184581D01*
X139124805Y-82084015D01*
X139022985Y-81982195D01*
X138903258Y-81902196D01*
X138770225Y-81847092D01*
X138628997Y-81819000D01*
X138485003Y-81819000D01*
X138343775Y-81847092D01*
X138210742Y-81902196D01*
X138091015Y-81982195D01*
X137989195Y-82084015D01*
X137909196Y-82203742D01*
X137854092Y-82336775D01*
X137826000Y-82478003D01*
X137826000Y-82562580D01*
X137580467Y-82808113D01*
X137561084Y-82824020D01*
X137497603Y-82901373D01*
X137450431Y-82989626D01*
X137421383Y-83085384D01*
X137414032Y-83160021D01*
X137411575Y-83184968D01*
X137414032Y-83209912D01*
X137414032Y-83346245D01*
X136641077Y-84119201D01*
X133583742Y-84119201D01*
X133558798Y-84116744D01*
X133533854Y-84119201D01*
X133533852Y-84119201D01*
X133506790Y-84121866D01*
X133421997Y-84105000D01*
X133278003Y-84105000D01*
X133136775Y-84133092D01*
X133003742Y-84188196D01*
X132884015Y-84268195D01*
X132782195Y-84370015D01*
X132702196Y-84489742D01*
X132647092Y-84622775D01*
X132619000Y-84764003D01*
X132619000Y-84907997D01*
X132647092Y-85049225D01*
X132702196Y-85182258D01*
X132782195Y-85301985D01*
X132884015Y-85403805D01*
X133003742Y-85483804D01*
X133016339Y-85489022D01*
X131888298Y-86617064D01*
X131857192Y-86614000D01*
X131857180Y-86614000D01*
X131825999Y-86610929D01*
X131794818Y-86614000D01*
X131575388Y-86614000D01*
X131411571Y-86504541D01*
X131180445Y-86408805D01*
X130935084Y-86360000D01*
X131180445Y-86311195D01*
X131411571Y-86215459D01*
X131619578Y-86076473D01*
X131796473Y-85899578D01*
X131935459Y-85691571D01*
X132031195Y-85460445D01*
X132080000Y-85215084D01*
X132080000Y-84964916D01*
X132031195Y-84719555D01*
X131935459Y-84488429D01*
X131931371Y-84482311D01*
X131975538Y-84428494D01*
X132034502Y-84318180D01*
X132070811Y-84198481D01*
X132074293Y-84163127D01*
X132417410Y-83820010D01*
X136180690Y-83820010D01*
X136205634Y-83822467D01*
X136230578Y-83820010D01*
X136230581Y-83820010D01*
X136305219Y-83812659D01*
X136400977Y-83783611D01*
X136489229Y-83736439D01*
X136566582Y-83672958D01*
X136582489Y-83653576D01*
X136993580Y-83242485D01*
X137012958Y-83226582D01*
X137047109Y-83184968D01*
X137076439Y-83149230D01*
X137110565Y-83085384D01*
X137123611Y-83060977D01*
X137152659Y-82965219D01*
X137160010Y-82890581D01*
X137160010Y-82890578D01*
X137162467Y-82865634D01*
X137160010Y-82840690D01*
X137160010Y-82497527D01*
X138136571Y-81520967D01*
X138155948Y-81505065D01*
X138188857Y-81464965D01*
X138219429Y-81427713D01*
X138266600Y-81339461D01*
X138266601Y-81339460D01*
X138295649Y-81243702D01*
X138303000Y-81169064D01*
X138303000Y-81169061D01*
X138305457Y-81144117D01*
X138303000Y-81119173D01*
X138303000Y-80924977D01*
X139192001Y-81813978D01*
G36*
X137287001Y-80601422D02*
G01*
X137287000Y-80933696D01*
X136310440Y-81910257D01*
X136310107Y-81910530D01*
X136183015Y-81842598D01*
X136039378Y-81799026D01*
X135927426Y-81788000D01*
X135527713Y-81788000D01*
X135509000Y-81786157D01*
X135001000Y-81786157D01*
X134926311Y-81793513D01*
X134874000Y-81809381D01*
X134821689Y-81793513D01*
X134747000Y-81786157D01*
X134239000Y-81786157D01*
X134220287Y-81788000D01*
X132868074Y-81788000D01*
X132756122Y-81799026D01*
X132612485Y-81842598D01*
X132480108Y-81913355D01*
X132364078Y-82008578D01*
X132268855Y-82124608D01*
X132198098Y-82256985D01*
X132154526Y-82400622D01*
X132139814Y-82550000D01*
X132154526Y-82699378D01*
X132186143Y-82803606D01*
X132182046Y-82804010D01*
X132182043Y-82804010D01*
X132107405Y-82811361D01*
X132049393Y-82828959D01*
X132080000Y-82675084D01*
X132080000Y-82424916D01*
X132031195Y-82179555D01*
X131970647Y-82033379D01*
X132043069Y-81960957D01*
X132102538Y-81888494D01*
X132161502Y-81778180D01*
X132197811Y-81658482D01*
X132201293Y-81623127D01*
X132421570Y-81402851D01*
X132440948Y-81386948D01*
X132480579Y-81338657D01*
X132504429Y-81309596D01*
X132551600Y-81221345D01*
X132551733Y-81220908D01*
X132569259Y-81163132D01*
X132670397Y-81217191D01*
X132814034Y-81260763D01*
X132925986Y-81271789D01*
X134155417Y-81271789D01*
X134164311Y-81274487D01*
X134239000Y-81281843D01*
X134347288Y-81281843D01*
X134365999Y-81283686D01*
X134384711Y-81281843D01*
X134747000Y-81281843D01*
X134821689Y-81274487D01*
X134874000Y-81258619D01*
X134926311Y-81274487D01*
X135001000Y-81281843D01*
X135509000Y-81281843D01*
X135527713Y-81280000D01*
X135927426Y-81280000D01*
X136039378Y-81268974D01*
X136183015Y-81225402D01*
X136315392Y-81154645D01*
X136431422Y-81059422D01*
X136526645Y-80943392D01*
X136597402Y-80811015D01*
X136640974Y-80667378D01*
X136655686Y-80518000D01*
X136640974Y-80368622D01*
X136597402Y-80224985D01*
X136526645Y-80092608D01*
X136431422Y-79976578D01*
X136315392Y-79881355D01*
X136183015Y-79810598D01*
X136155505Y-79802253D01*
X136236258Y-79768804D01*
X136355985Y-79688805D01*
X136365185Y-79679605D01*
X137287001Y-80601422D01*
G37*
X137287001Y-80601422D02*
X137287000Y-80933696D01*
X136310440Y-81910257D01*
X136310107Y-81910530D01*
X136183015Y-81842598D01*
X136039378Y-81799026D01*
X135927426Y-81788000D01*
X135527713Y-81788000D01*
X135509000Y-81786157D01*
X135001000Y-81786157D01*
X134926311Y-81793513D01*
X134874000Y-81809381D01*
X134821689Y-81793513D01*
X134747000Y-81786157D01*
X134239000Y-81786157D01*
X134220287Y-81788000D01*
X132868074Y-81788000D01*
X132756122Y-81799026D01*
X132612485Y-81842598D01*
X132480108Y-81913355D01*
X132364078Y-82008578D01*
X132268855Y-82124608D01*
X132198098Y-82256985D01*
X132154526Y-82400622D01*
X132139814Y-82550000D01*
X132154526Y-82699378D01*
X132186143Y-82803606D01*
X132182046Y-82804010D01*
X132182043Y-82804010D01*
X132107405Y-82811361D01*
X132049393Y-82828959D01*
X132080000Y-82675084D01*
X132080000Y-82424916D01*
X132031195Y-82179555D01*
X131970647Y-82033379D01*
X132043069Y-81960957D01*
X132102538Y-81888494D01*
X132161502Y-81778180D01*
X132197811Y-81658482D01*
X132201293Y-81623127D01*
X132421570Y-81402851D01*
X132440948Y-81386948D01*
X132480579Y-81338657D01*
X132504429Y-81309596D01*
X132551600Y-81221345D01*
X132551733Y-81220908D01*
X132569259Y-81163132D01*
X132670397Y-81217191D01*
X132814034Y-81260763D01*
X132925986Y-81271789D01*
X134155417Y-81271789D01*
X134164311Y-81274487D01*
X134239000Y-81281843D01*
X134347288Y-81281843D01*
X134365999Y-81283686D01*
X134384711Y-81281843D01*
X134747000Y-81281843D01*
X134821689Y-81274487D01*
X134874000Y-81258619D01*
X134926311Y-81274487D01*
X135001000Y-81281843D01*
X135509000Y-81281843D01*
X135527713Y-81280000D01*
X135927426Y-81280000D01*
X136039378Y-81268974D01*
X136183015Y-81225402D01*
X136315392Y-81154645D01*
X136431422Y-81059422D01*
X136526645Y-80943392D01*
X136597402Y-80811015D01*
X136640974Y-80667378D01*
X136655686Y-80518000D01*
X136640974Y-80368622D01*
X136597402Y-80224985D01*
X136526645Y-80092608D01*
X136431422Y-79976578D01*
X136315392Y-79881355D01*
X136183015Y-79810598D01*
X136155505Y-79802253D01*
X136236258Y-79768804D01*
X136355985Y-79688805D01*
X136365185Y-79679605D01*
X137287001Y-80601422D01*
G36*
X145288000Y-77978000D02*
G01*
X140672421Y-77978000D01*
X139192000Y-76497579D01*
X139192000Y-72600420D01*
X139275420Y-72517000D01*
X145288000Y-72517000D01*
X145288000Y-77978000D01*
G37*
X145288000Y-77978000D02*
X140672421Y-77978000D01*
X139192000Y-76497579D01*
X139192000Y-72600420D01*
X139275420Y-72517000D01*
X145288000Y-72517000D01*
X145288000Y-77978000D01*
G36*
X151388149Y-96861570D02*
G01*
X151404052Y-96880948D01*
X151423429Y-96896850D01*
X151481404Y-96944429D01*
X151528576Y-96969643D01*
X151569657Y-96991601D01*
X151665415Y-97020649D01*
X151740053Y-97028000D01*
X151740056Y-97028000D01*
X151765000Y-97030457D01*
X151789944Y-97028000D01*
X152570580Y-97028000D01*
X153415978Y-97873399D01*
X153415979Y-102210024D01*
X153413521Y-102234978D01*
X153423330Y-102334562D01*
X153452378Y-102430321D01*
X153499549Y-102518573D01*
X153523417Y-102547656D01*
X153563031Y-102595926D01*
X153582408Y-102611828D01*
X153924000Y-102953420D01*
X153924001Y-104369046D01*
X153921543Y-104394000D01*
X153925821Y-104437429D01*
X153931352Y-104493585D01*
X153940414Y-104523457D01*
X153960400Y-104589343D01*
X154007571Y-104677595D01*
X154053029Y-104732985D01*
X154071053Y-104754948D01*
X154090430Y-104770850D01*
X154432000Y-105112421D01*
X154432001Y-106401046D01*
X154429543Y-106426000D01*
X154435451Y-106485978D01*
X154439352Y-106525585D01*
X154454641Y-106575987D01*
X154468400Y-106621343D01*
X154515571Y-106709595D01*
X154553810Y-106756189D01*
X154579053Y-106786948D01*
X154598430Y-106802850D01*
X154818707Y-107023128D01*
X154822189Y-107058481D01*
X154858498Y-107178179D01*
X154917463Y-107288493D01*
X154976932Y-107360956D01*
X155049354Y-107433378D01*
X154988805Y-107579555D01*
X154940000Y-107824916D01*
X154940000Y-108075084D01*
X154988805Y-108320445D01*
X155084541Y-108551571D01*
X155109561Y-108589016D01*
X155019726Y-108597864D01*
X155004870Y-108602371D01*
X154358209Y-107955710D01*
X154343093Y-107937291D01*
X154269607Y-107876983D01*
X154185769Y-107832170D01*
X154094798Y-107804575D01*
X154023899Y-107797592D01*
X154023897Y-107797592D01*
X154000192Y-107795257D01*
X153976487Y-107797592D01*
X152422092Y-107797592D01*
X151234017Y-106609518D01*
X151218901Y-106591099D01*
X151145415Y-106530791D01*
X151061577Y-106485978D01*
X150970606Y-106458383D01*
X150899707Y-106451400D01*
X150899705Y-106451400D01*
X150876000Y-106449065D01*
X150852295Y-106451400D01*
X149929845Y-106451400D01*
X147828000Y-104349555D01*
X147828000Y-101125772D01*
X147952022Y-101177144D01*
X148122229Y-101211000D01*
X148295771Y-101211000D01*
X148465978Y-101177144D01*
X148626310Y-101110732D01*
X148719462Y-101048490D01*
X148756015Y-101037402D01*
X148888392Y-100966645D01*
X148890396Y-100965000D01*
X148971000Y-100965000D01*
X148971000Y-101488579D01*
X148958196Y-101507742D01*
X148903092Y-101640775D01*
X148875000Y-101782003D01*
X148875000Y-101925997D01*
X148903092Y-102067225D01*
X148958196Y-102200258D01*
X148971000Y-102219421D01*
X148971001Y-103580981D01*
X148878742Y-103619196D01*
X148759015Y-103699195D01*
X148657195Y-103801015D01*
X148577196Y-103920742D01*
X148522092Y-104053775D01*
X148494000Y-104195003D01*
X148494000Y-104338997D01*
X148522092Y-104480225D01*
X148577196Y-104613258D01*
X148657195Y-104732985D01*
X148759015Y-104834805D01*
X148878742Y-104914804D01*
X149011775Y-104969908D01*
X149153003Y-104998000D01*
X149296997Y-104998000D01*
X149438225Y-104969908D01*
X149571258Y-104914804D01*
X149690985Y-104834805D01*
X149792805Y-104732985D01*
X149872804Y-104613258D01*
X149927908Y-104480225D01*
X149932405Y-104457619D01*
X150032950Y-104357074D01*
X150057185Y-104337185D01*
X150124929Y-104254639D01*
X150136537Y-104240495D01*
X150169177Y-104179429D01*
X150195502Y-104130180D01*
X150231812Y-104010482D01*
X150241000Y-103917192D01*
X150241000Y-103917182D01*
X150244071Y-103886001D01*
X150241000Y-103854820D01*
X150241000Y-102219421D01*
X150253804Y-102200258D01*
X150308908Y-102067225D01*
X150337000Y-101925997D01*
X150337000Y-101782003D01*
X150308908Y-101640775D01*
X150253804Y-101507742D01*
X150241000Y-101488579D01*
X150241000Y-100847024D01*
X152064955Y-99023070D01*
X152089185Y-99003185D01*
X152090077Y-99002098D01*
X152103985Y-98992805D01*
X152205805Y-98890985D01*
X152285804Y-98771258D01*
X152340908Y-98638225D01*
X152369000Y-98496997D01*
X152369000Y-98353003D01*
X152340908Y-98211775D01*
X152285804Y-98078742D01*
X152205805Y-97959015D01*
X152103985Y-97857195D01*
X151984258Y-97777196D01*
X151851225Y-97722092D01*
X151709997Y-97694000D01*
X151566003Y-97694000D01*
X151424775Y-97722092D01*
X151291742Y-97777196D01*
X151172015Y-97857195D01*
X151120933Y-97908277D01*
X151117136Y-97869726D01*
X151117136Y-97869724D01*
X151084629Y-97762562D01*
X151066303Y-97702149D01*
X150983753Y-97547709D01*
X150872659Y-97412341D01*
X150838731Y-97384497D01*
X150749000Y-97294766D01*
X150749000Y-96222420D01*
X151388149Y-96861570D01*
G37*
X151388149Y-96861570D02*
X151404052Y-96880948D01*
X151423429Y-96896850D01*
X151481404Y-96944429D01*
X151528576Y-96969643D01*
X151569657Y-96991601D01*
X151665415Y-97020649D01*
X151740053Y-97028000D01*
X151740056Y-97028000D01*
X151765000Y-97030457D01*
X151789944Y-97028000D01*
X152570580Y-97028000D01*
X153415978Y-97873399D01*
X153415979Y-102210024D01*
X153413521Y-102234978D01*
X153423330Y-102334562D01*
X153452378Y-102430321D01*
X153499549Y-102518573D01*
X153523417Y-102547656D01*
X153563031Y-102595926D01*
X153582408Y-102611828D01*
X153924000Y-102953420D01*
X153924001Y-104369046D01*
X153921543Y-104394000D01*
X153925821Y-104437429D01*
X153931352Y-104493585D01*
X153940414Y-104523457D01*
X153960400Y-104589343D01*
X154007571Y-104677595D01*
X154053029Y-104732985D01*
X154071053Y-104754948D01*
X154090430Y-104770850D01*
X154432000Y-105112421D01*
X154432001Y-106401046D01*
X154429543Y-106426000D01*
X154435451Y-106485978D01*
X154439352Y-106525585D01*
X154454641Y-106575987D01*
X154468400Y-106621343D01*
X154515571Y-106709595D01*
X154553810Y-106756189D01*
X154579053Y-106786948D01*
X154598430Y-106802850D01*
X154818707Y-107023128D01*
X154822189Y-107058481D01*
X154858498Y-107178179D01*
X154917463Y-107288493D01*
X154976932Y-107360956D01*
X155049354Y-107433378D01*
X154988805Y-107579555D01*
X154940000Y-107824916D01*
X154940000Y-108075084D01*
X154988805Y-108320445D01*
X155084541Y-108551571D01*
X155109561Y-108589016D01*
X155019726Y-108597864D01*
X155004870Y-108602371D01*
X154358209Y-107955710D01*
X154343093Y-107937291D01*
X154269607Y-107876983D01*
X154185769Y-107832170D01*
X154094798Y-107804575D01*
X154023899Y-107797592D01*
X154023897Y-107797592D01*
X154000192Y-107795257D01*
X153976487Y-107797592D01*
X152422092Y-107797592D01*
X151234017Y-106609518D01*
X151218901Y-106591099D01*
X151145415Y-106530791D01*
X151061577Y-106485978D01*
X150970606Y-106458383D01*
X150899707Y-106451400D01*
X150899705Y-106451400D01*
X150876000Y-106449065D01*
X150852295Y-106451400D01*
X149929845Y-106451400D01*
X147828000Y-104349555D01*
X147828000Y-101125772D01*
X147952022Y-101177144D01*
X148122229Y-101211000D01*
X148295771Y-101211000D01*
X148465978Y-101177144D01*
X148626310Y-101110732D01*
X148719462Y-101048490D01*
X148756015Y-101037402D01*
X148888392Y-100966645D01*
X148890396Y-100965000D01*
X148971000Y-100965000D01*
X148971000Y-101488579D01*
X148958196Y-101507742D01*
X148903092Y-101640775D01*
X148875000Y-101782003D01*
X148875000Y-101925997D01*
X148903092Y-102067225D01*
X148958196Y-102200258D01*
X148971000Y-102219421D01*
X148971001Y-103580981D01*
X148878742Y-103619196D01*
X148759015Y-103699195D01*
X148657195Y-103801015D01*
X148577196Y-103920742D01*
X148522092Y-104053775D01*
X148494000Y-104195003D01*
X148494000Y-104338997D01*
X148522092Y-104480225D01*
X148577196Y-104613258D01*
X148657195Y-104732985D01*
X148759015Y-104834805D01*
X148878742Y-104914804D01*
X149011775Y-104969908D01*
X149153003Y-104998000D01*
X149296997Y-104998000D01*
X149438225Y-104969908D01*
X149571258Y-104914804D01*
X149690985Y-104834805D01*
X149792805Y-104732985D01*
X149872804Y-104613258D01*
X149927908Y-104480225D01*
X149932405Y-104457619D01*
X150032950Y-104357074D01*
X150057185Y-104337185D01*
X150124929Y-104254639D01*
X150136537Y-104240495D01*
X150169177Y-104179429D01*
X150195502Y-104130180D01*
X150231812Y-104010482D01*
X150241000Y-103917192D01*
X150241000Y-103917182D01*
X150244071Y-103886001D01*
X150241000Y-103854820D01*
X150241000Y-102219421D01*
X150253804Y-102200258D01*
X150308908Y-102067225D01*
X150337000Y-101925997D01*
X150337000Y-101782003D01*
X150308908Y-101640775D01*
X150253804Y-101507742D01*
X150241000Y-101488579D01*
X150241000Y-100847024D01*
X152064955Y-99023070D01*
X152089185Y-99003185D01*
X152090077Y-99002098D01*
X152103985Y-98992805D01*
X152205805Y-98890985D01*
X152285804Y-98771258D01*
X152340908Y-98638225D01*
X152369000Y-98496997D01*
X152369000Y-98353003D01*
X152340908Y-98211775D01*
X152285804Y-98078742D01*
X152205805Y-97959015D01*
X152103985Y-97857195D01*
X151984258Y-97777196D01*
X151851225Y-97722092D01*
X151709997Y-97694000D01*
X151566003Y-97694000D01*
X151424775Y-97722092D01*
X151291742Y-97777196D01*
X151172015Y-97857195D01*
X151120933Y-97908277D01*
X151117136Y-97869726D01*
X151117136Y-97869724D01*
X151084629Y-97762562D01*
X151066303Y-97702149D01*
X150983753Y-97547709D01*
X150872659Y-97412341D01*
X150838731Y-97384497D01*
X150749000Y-97294766D01*
X150749000Y-96222420D01*
X151388149Y-96861570D01*
M02*
