G04 #@! TF.GenerationSoftware,KiCad,Pcbnew,5.1.6-c6e7f7d~87~ubuntu18.04.1*
G04 #@! TF.CreationDate,2020-11-11T15:50:36+02:00*
G04 #@! TF.ProjectId,ESP32-S2-DevKit-USB_Rev_B,45535033-322d-4533-922d-4465764b6974,B*
G04 #@! TF.SameCoordinates,Original*
G04 #@! TF.FileFunction,Legend,Bot*
G04 #@! TF.FilePolarity,Positive*
%FSLAX46Y46*%
G04 Gerber Fmt 4.6, Leading zero omitted, Abs format (unit mm)*
G04 Created by KiCad (PCBNEW 5.1.6-c6e7f7d~87~ubuntu18.04.1) date 2020-11-11 15:50:36*
%MOMM*%
%LPD*%
G01*
G04 APERTURE LIST*
%ADD10C,0.254000*%
%ADD11C,0.190500*%
%ADD12C,0.158750*%
%ADD13C,0.222250*%
%ADD14C,0.203200*%
%ADD15C,0.177800*%
%ADD16C,0.200000*%
%ADD17C,1.000000*%
%ADD18C,0.150000*%
%ADD19C,0.370000*%
%ADD20C,0.380000*%
%ADD21C,0.400000*%
%ADD22C,0.420000*%
%ADD23C,0.127000*%
%ADD24C,0.100000*%
%ADD25C,0.700000*%
%ADD26C,0.500000*%
%ADD27C,0.152400*%
G04 APERTURE END LIST*
D10*
X138176000Y-101473000D02*
X138176000Y-109220000D01*
X137160000Y-104140000D02*
X138176000Y-104140000D01*
X131826000Y-104140000D02*
X135255000Y-104140000D01*
X137160000Y-101473000D02*
X138176000Y-101473000D01*
X131826000Y-101600000D02*
X135255000Y-101600000D01*
X137160000Y-99060000D02*
X138176000Y-99060000D01*
X138726333Y-77518380D02*
X138774714Y-77566761D01*
X138919857Y-77663523D01*
X139016619Y-77711904D01*
X139161761Y-77760285D01*
X139403666Y-77808666D01*
X139597190Y-77808666D01*
X139839095Y-77760285D01*
X139984238Y-77711904D01*
X140081000Y-77663523D01*
X140226142Y-77566761D01*
X140274523Y-77518380D01*
X139210142Y-76550761D02*
X139161761Y-76599142D01*
X139113380Y-76744285D01*
X139113380Y-76841047D01*
X139161761Y-76986190D01*
X139258523Y-77082952D01*
X139355285Y-77131333D01*
X139548809Y-77179714D01*
X139693952Y-77179714D01*
X139887476Y-77131333D01*
X139984238Y-77082952D01*
X140081000Y-76986190D01*
X140129380Y-76841047D01*
X140129380Y-76744285D01*
X140081000Y-76599142D01*
X140032619Y-76550761D01*
X138726333Y-76212095D02*
X138774714Y-76163714D01*
X138919857Y-76066952D01*
X139016619Y-76018571D01*
X139161761Y-75970190D01*
X139403666Y-75921809D01*
X139597190Y-75921809D01*
X139839095Y-75970190D01*
X139984238Y-76018571D01*
X140081000Y-76066952D01*
X140226142Y-76163714D01*
X140274523Y-76212095D01*
X140032619Y-75486380D02*
X140081000Y-75438000D01*
X140129380Y-75341238D01*
X140129380Y-75099333D01*
X140081000Y-75002571D01*
X140032619Y-74954190D01*
X139935857Y-74905809D01*
X139839095Y-74905809D01*
X139693952Y-74954190D01*
X139113380Y-75534761D01*
X139113380Y-74905809D01*
X140129380Y-74276857D02*
X140129380Y-74180095D01*
X140081000Y-74083333D01*
X140032619Y-74034952D01*
X139935857Y-73986571D01*
X139742333Y-73938190D01*
X139500428Y-73938190D01*
X139306904Y-73986571D01*
X139210142Y-74034952D01*
X139161761Y-74083333D01*
X139113380Y-74180095D01*
X139113380Y-74276857D01*
X139161761Y-74373619D01*
X139210142Y-74422000D01*
X139306904Y-74470380D01*
X139500428Y-74518761D01*
X139742333Y-74518761D01*
X139935857Y-74470380D01*
X140032619Y-74422000D01*
X140081000Y-74373619D01*
X140129380Y-74276857D01*
X140032619Y-73551142D02*
X140081000Y-73502761D01*
X140129380Y-73406000D01*
X140129380Y-73164095D01*
X140081000Y-73067333D01*
X140032619Y-73018952D01*
X139935857Y-72970571D01*
X139839095Y-72970571D01*
X139693952Y-73018952D01*
X139113380Y-73599523D01*
X139113380Y-72970571D01*
X140129380Y-72341619D02*
X140129380Y-72244857D01*
X140081000Y-72148095D01*
X140032619Y-72099714D01*
X139935857Y-72051333D01*
X139742333Y-72002952D01*
X139500428Y-72002952D01*
X139306904Y-72051333D01*
X139210142Y-72099714D01*
X139161761Y-72148095D01*
X139113380Y-72244857D01*
X139113380Y-72341619D01*
X139161761Y-72438380D01*
X139210142Y-72486761D01*
X139306904Y-72535142D01*
X139500428Y-72583523D01*
X139742333Y-72583523D01*
X139935857Y-72535142D01*
X140032619Y-72486761D01*
X140081000Y-72438380D01*
X140129380Y-72341619D01*
X148844000Y-111760000D02*
X148844000Y-97536000D01*
X148971000Y-119380000D02*
X148844000Y-119253000D01*
X136373809Y-69596000D02*
X136470571Y-69547619D01*
X136615714Y-69547619D01*
X136760857Y-69596000D01*
X136857619Y-69692761D01*
X136906000Y-69789523D01*
X136954380Y-69983047D01*
X136954380Y-70128190D01*
X136906000Y-70321714D01*
X136857619Y-70418476D01*
X136760857Y-70515238D01*
X136615714Y-70563619D01*
X136518952Y-70563619D01*
X136373809Y-70515238D01*
X136325428Y-70466857D01*
X136325428Y-70128190D01*
X136518952Y-70128190D01*
X135890000Y-70563619D02*
X135890000Y-69547619D01*
X135502952Y-69547619D01*
X135406190Y-69596000D01*
X135357809Y-69644380D01*
X135309428Y-69741142D01*
X135309428Y-69886285D01*
X135357809Y-69983047D01*
X135406190Y-70031428D01*
X135502952Y-70079809D01*
X135890000Y-70079809D01*
X134874000Y-70563619D02*
X134874000Y-69547619D01*
X134196666Y-69547619D02*
X134003142Y-69547619D01*
X133906380Y-69596000D01*
X133809619Y-69692761D01*
X133761238Y-69886285D01*
X133761238Y-70224952D01*
X133809619Y-70418476D01*
X133906380Y-70515238D01*
X134003142Y-70563619D01*
X134196666Y-70563619D01*
X134293428Y-70515238D01*
X134390190Y-70418476D01*
X134438571Y-70224952D01*
X134438571Y-69886285D01*
X134390190Y-69692761D01*
X134293428Y-69596000D01*
X134196666Y-69547619D01*
X133132285Y-69547619D02*
X133035523Y-69547619D01*
X132938761Y-69596000D01*
X132890380Y-69644380D01*
X132842000Y-69741142D01*
X132793619Y-69934666D01*
X132793619Y-70176571D01*
X132842000Y-70370095D01*
X132890380Y-70466857D01*
X132938761Y-70515238D01*
X133035523Y-70563619D01*
X133132285Y-70563619D01*
X133229047Y-70515238D01*
X133277428Y-70466857D01*
X133325809Y-70370095D01*
X133374190Y-70176571D01*
X133374190Y-69934666D01*
X133325809Y-69741142D01*
X133277428Y-69644380D01*
X133229047Y-69596000D01*
X133132285Y-69547619D01*
X136373809Y-72009000D02*
X136470571Y-71960619D01*
X136615714Y-71960619D01*
X136760857Y-72009000D01*
X136857619Y-72105761D01*
X136906000Y-72202523D01*
X136954380Y-72396047D01*
X136954380Y-72541190D01*
X136906000Y-72734714D01*
X136857619Y-72831476D01*
X136760857Y-72928238D01*
X136615714Y-72976619D01*
X136518952Y-72976619D01*
X136373809Y-72928238D01*
X136325428Y-72879857D01*
X136325428Y-72541190D01*
X136518952Y-72541190D01*
X135890000Y-72976619D02*
X135890000Y-71960619D01*
X135502952Y-71960619D01*
X135406190Y-72009000D01*
X135357809Y-72057380D01*
X135309428Y-72154142D01*
X135309428Y-72299285D01*
X135357809Y-72396047D01*
X135406190Y-72444428D01*
X135502952Y-72492809D01*
X135890000Y-72492809D01*
X134874000Y-72976619D02*
X134874000Y-71960619D01*
X134196666Y-71960619D02*
X134003142Y-71960619D01*
X133906380Y-72009000D01*
X133809619Y-72105761D01*
X133761238Y-72299285D01*
X133761238Y-72637952D01*
X133809619Y-72831476D01*
X133906380Y-72928238D01*
X134003142Y-72976619D01*
X134196666Y-72976619D01*
X134293428Y-72928238D01*
X134390190Y-72831476D01*
X134438571Y-72637952D01*
X134438571Y-72299285D01*
X134390190Y-72105761D01*
X134293428Y-72009000D01*
X134196666Y-71960619D01*
X132793619Y-72976619D02*
X133374190Y-72976619D01*
X133083904Y-72976619D02*
X133083904Y-71960619D01*
X133180666Y-72105761D01*
X133277428Y-72202523D01*
X133374190Y-72250904D01*
X136627809Y-74422000D02*
X136724571Y-74373619D01*
X136869714Y-74373619D01*
X137014857Y-74422000D01*
X137111619Y-74518761D01*
X137160000Y-74615523D01*
X137208380Y-74809047D01*
X137208380Y-74954190D01*
X137160000Y-75147714D01*
X137111619Y-75244476D01*
X137014857Y-75341238D01*
X136869714Y-75389619D01*
X136772952Y-75389619D01*
X136627809Y-75341238D01*
X136579428Y-75292857D01*
X136579428Y-74954190D01*
X136772952Y-74954190D01*
X136144000Y-75389619D02*
X136144000Y-74373619D01*
X135756952Y-74373619D01*
X135660190Y-74422000D01*
X135611809Y-74470380D01*
X135563428Y-74567142D01*
X135563428Y-74712285D01*
X135611809Y-74809047D01*
X135660190Y-74857428D01*
X135756952Y-74905809D01*
X136144000Y-74905809D01*
X135128000Y-75389619D02*
X135128000Y-74373619D01*
X134450666Y-74373619D02*
X134257142Y-74373619D01*
X134160380Y-74422000D01*
X134063619Y-74518761D01*
X134015238Y-74712285D01*
X134015238Y-75050952D01*
X134063619Y-75244476D01*
X134160380Y-75341238D01*
X134257142Y-75389619D01*
X134450666Y-75389619D01*
X134547428Y-75341238D01*
X134644190Y-75244476D01*
X134692571Y-75050952D01*
X134692571Y-74712285D01*
X134644190Y-74518761D01*
X134547428Y-74422000D01*
X134450666Y-74373619D01*
X133628190Y-74470380D02*
X133579809Y-74422000D01*
X133483047Y-74373619D01*
X133241142Y-74373619D01*
X133144380Y-74422000D01*
X133096000Y-74470380D01*
X133047619Y-74567142D01*
X133047619Y-74663904D01*
X133096000Y-74809047D01*
X133676571Y-75389619D01*
X133047619Y-75389619D01*
X135938380Y-66614523D02*
X135152190Y-66614523D01*
X135575523Y-67098333D01*
X135394095Y-67098333D01*
X135273142Y-67158809D01*
X135212666Y-67219285D01*
X135152190Y-67340238D01*
X135152190Y-67642619D01*
X135212666Y-67763571D01*
X135273142Y-67824047D01*
X135394095Y-67884523D01*
X135756952Y-67884523D01*
X135877904Y-67824047D01*
X135938380Y-67763571D01*
X134789333Y-66614523D02*
X134366000Y-67884523D01*
X133942666Y-66614523D01*
X133640285Y-66614523D02*
X132854095Y-66614523D01*
X133277428Y-67098333D01*
X133096000Y-67098333D01*
X132975047Y-67158809D01*
X132914571Y-67219285D01*
X132854095Y-67340238D01*
X132854095Y-67642619D01*
X132914571Y-67763571D01*
X132975047Y-67824047D01*
X133096000Y-67884523D01*
X133458857Y-67884523D01*
X133579809Y-67824047D01*
X133640285Y-67763571D01*
X131826000Y-68580000D02*
X138176000Y-68580000D01*
X137008809Y-76962000D02*
X137105571Y-76913619D01*
X137250714Y-76913619D01*
X137395857Y-76962000D01*
X137492619Y-77058761D01*
X137541000Y-77155523D01*
X137589380Y-77349047D01*
X137589380Y-77494190D01*
X137541000Y-77687714D01*
X137492619Y-77784476D01*
X137395857Y-77881238D01*
X137250714Y-77929619D01*
X137153952Y-77929619D01*
X137008809Y-77881238D01*
X136960428Y-77832857D01*
X136960428Y-77494190D01*
X137153952Y-77494190D01*
X136525000Y-77929619D02*
X136525000Y-76913619D01*
X136137952Y-76913619D01*
X136041190Y-76962000D01*
X135992809Y-77010380D01*
X135944428Y-77107142D01*
X135944428Y-77252285D01*
X135992809Y-77349047D01*
X136041190Y-77397428D01*
X136137952Y-77445809D01*
X136525000Y-77445809D01*
X135509000Y-77929619D02*
X135509000Y-76913619D01*
X134831666Y-76913619D02*
X134638142Y-76913619D01*
X134541380Y-76962000D01*
X134444619Y-77058761D01*
X134396238Y-77252285D01*
X134396238Y-77590952D01*
X134444619Y-77784476D01*
X134541380Y-77881238D01*
X134638142Y-77929619D01*
X134831666Y-77929619D01*
X134928428Y-77881238D01*
X135025190Y-77784476D01*
X135073571Y-77590952D01*
X135073571Y-77252285D01*
X135025190Y-77058761D01*
X134928428Y-76962000D01*
X134831666Y-76913619D01*
X134057571Y-76913619D02*
X133428619Y-76913619D01*
X133767285Y-77300666D01*
X133622142Y-77300666D01*
X133525380Y-77349047D01*
X133477000Y-77397428D01*
X133428619Y-77494190D01*
X133428619Y-77736095D01*
X133477000Y-77832857D01*
X133525380Y-77881238D01*
X133622142Y-77929619D01*
X133912428Y-77929619D01*
X134009190Y-77881238D01*
X134057571Y-77832857D01*
X135763000Y-81026000D02*
X141224000Y-81026000D01*
D11*
X135236857Y-79121000D02*
X135309428Y-79084714D01*
X135418285Y-79084714D01*
X135527142Y-79121000D01*
X135599714Y-79193571D01*
X135636000Y-79266142D01*
X135672285Y-79411285D01*
X135672285Y-79520142D01*
X135636000Y-79665285D01*
X135599714Y-79737857D01*
X135527142Y-79810428D01*
X135418285Y-79846714D01*
X135345714Y-79846714D01*
X135236857Y-79810428D01*
X135200571Y-79774142D01*
X135200571Y-79520142D01*
X135345714Y-79520142D01*
X134874000Y-79846714D02*
X134874000Y-79084714D01*
X134583714Y-79084714D01*
X134511142Y-79121000D01*
X134474857Y-79157285D01*
X134438571Y-79229857D01*
X134438571Y-79338714D01*
X134474857Y-79411285D01*
X134511142Y-79447571D01*
X134583714Y-79483857D01*
X134874000Y-79483857D01*
X134112000Y-79846714D02*
X134112000Y-79084714D01*
X133604000Y-79084714D02*
X133458857Y-79084714D01*
X133386285Y-79121000D01*
X133313714Y-79193571D01*
X133277428Y-79338714D01*
X133277428Y-79592714D01*
X133313714Y-79737857D01*
X133386285Y-79810428D01*
X133458857Y-79846714D01*
X133604000Y-79846714D01*
X133676571Y-79810428D01*
X133749142Y-79737857D01*
X133785428Y-79592714D01*
X133785428Y-79338714D01*
X133749142Y-79193571D01*
X133676571Y-79121000D01*
X133604000Y-79084714D01*
X132624285Y-79338714D02*
X132624285Y-79846714D01*
X132805714Y-79048428D02*
X132987142Y-79592714D01*
X132515428Y-79592714D01*
D10*
X138176000Y-82169000D02*
X141224000Y-82169000D01*
D11*
X133132285Y-83312000D02*
X133894285Y-83312000D01*
X133894285Y-82804000D02*
X133894285Y-82658857D01*
X133858000Y-82586285D01*
X133785428Y-82513714D01*
X133640285Y-82477428D01*
X133386285Y-82477428D01*
X133241142Y-82513714D01*
X133168571Y-82586285D01*
X133132285Y-82658857D01*
X133132285Y-82804000D01*
X133168571Y-82876571D01*
X133241142Y-82949142D01*
X133386285Y-82985428D01*
X133640285Y-82985428D01*
X133785428Y-82949142D01*
X133858000Y-82876571D01*
X133894285Y-82804000D01*
X133894285Y-81788000D02*
X133894285Y-82150857D01*
X133531428Y-82187142D01*
X133567714Y-82150857D01*
X133604000Y-82078285D01*
X133604000Y-81896857D01*
X133567714Y-81824285D01*
X133531428Y-81788000D01*
X133458857Y-81751714D01*
X133277428Y-81751714D01*
X133204857Y-81788000D01*
X133168571Y-81824285D01*
X133132285Y-81896857D01*
X133132285Y-82078285D01*
X133168571Y-82150857D01*
X133204857Y-82187142D01*
D10*
X137262809Y-84582000D02*
X137359571Y-84533619D01*
X137504714Y-84533619D01*
X137649857Y-84582000D01*
X137746619Y-84678761D01*
X137795000Y-84775523D01*
X137843380Y-84969047D01*
X137843380Y-85114190D01*
X137795000Y-85307714D01*
X137746619Y-85404476D01*
X137649857Y-85501238D01*
X137504714Y-85549619D01*
X137407952Y-85549619D01*
X137262809Y-85501238D01*
X137214428Y-85452857D01*
X137214428Y-85114190D01*
X137407952Y-85114190D01*
X136779000Y-85549619D02*
X136779000Y-84533619D01*
X136391952Y-84533619D01*
X136295190Y-84582000D01*
X136246809Y-84630380D01*
X136198428Y-84727142D01*
X136198428Y-84872285D01*
X136246809Y-84969047D01*
X136295190Y-85017428D01*
X136391952Y-85065809D01*
X136779000Y-85065809D01*
X135763000Y-85549619D02*
X135763000Y-84533619D01*
X135085666Y-84533619D02*
X134892142Y-84533619D01*
X134795380Y-84582000D01*
X134698619Y-84678761D01*
X134650238Y-84872285D01*
X134650238Y-85210952D01*
X134698619Y-85404476D01*
X134795380Y-85501238D01*
X134892142Y-85549619D01*
X135085666Y-85549619D01*
X135182428Y-85501238D01*
X135279190Y-85404476D01*
X135327571Y-85210952D01*
X135327571Y-84872285D01*
X135279190Y-84678761D01*
X135182428Y-84582000D01*
X135085666Y-84533619D01*
X133779380Y-84533619D02*
X133972904Y-84533619D01*
X134069666Y-84582000D01*
X134118047Y-84630380D01*
X134214809Y-84775523D01*
X134263190Y-84969047D01*
X134263190Y-85356095D01*
X134214809Y-85452857D01*
X134166428Y-85501238D01*
X134069666Y-85549619D01*
X133876142Y-85549619D01*
X133779380Y-85501238D01*
X133731000Y-85452857D01*
X133682619Y-85356095D01*
X133682619Y-85114190D01*
X133731000Y-85017428D01*
X133779380Y-84969047D01*
X133876142Y-84920666D01*
X134069666Y-84920666D01*
X134166428Y-84969047D01*
X134214809Y-85017428D01*
X134263190Y-85114190D01*
X136627809Y-87122000D02*
X136724571Y-87073619D01*
X136869714Y-87073619D01*
X137014857Y-87122000D01*
X137111619Y-87218761D01*
X137160000Y-87315523D01*
X137208380Y-87509047D01*
X137208380Y-87654190D01*
X137160000Y-87847714D01*
X137111619Y-87944476D01*
X137014857Y-88041238D01*
X136869714Y-88089619D01*
X136772952Y-88089619D01*
X136627809Y-88041238D01*
X136579428Y-87992857D01*
X136579428Y-87654190D01*
X136772952Y-87654190D01*
X136144000Y-88089619D02*
X136144000Y-87073619D01*
X135756952Y-87073619D01*
X135660190Y-87122000D01*
X135611809Y-87170380D01*
X135563428Y-87267142D01*
X135563428Y-87412285D01*
X135611809Y-87509047D01*
X135660190Y-87557428D01*
X135756952Y-87605809D01*
X136144000Y-87605809D01*
X135128000Y-88089619D02*
X135128000Y-87073619D01*
X134450666Y-87073619D02*
X134257142Y-87073619D01*
X134160380Y-87122000D01*
X134063619Y-87218761D01*
X134015238Y-87412285D01*
X134015238Y-87750952D01*
X134063619Y-87944476D01*
X134160380Y-88041238D01*
X134257142Y-88089619D01*
X134450666Y-88089619D01*
X134547428Y-88041238D01*
X134644190Y-87944476D01*
X134692571Y-87750952D01*
X134692571Y-87412285D01*
X134644190Y-87218761D01*
X134547428Y-87122000D01*
X134450666Y-87073619D01*
X133676571Y-87073619D02*
X132999238Y-87073619D01*
X133434666Y-88089619D01*
X136627809Y-89916000D02*
X136724571Y-89867619D01*
X136869714Y-89867619D01*
X137014857Y-89916000D01*
X137111619Y-90012761D01*
X137160000Y-90109523D01*
X137208380Y-90303047D01*
X137208380Y-90448190D01*
X137160000Y-90641714D01*
X137111619Y-90738476D01*
X137014857Y-90835238D01*
X136869714Y-90883619D01*
X136772952Y-90883619D01*
X136627809Y-90835238D01*
X136579428Y-90786857D01*
X136579428Y-90448190D01*
X136772952Y-90448190D01*
X136144000Y-90883619D02*
X136144000Y-89867619D01*
X135756952Y-89867619D01*
X135660190Y-89916000D01*
X135611809Y-89964380D01*
X135563428Y-90061142D01*
X135563428Y-90206285D01*
X135611809Y-90303047D01*
X135660190Y-90351428D01*
X135756952Y-90399809D01*
X136144000Y-90399809D01*
X135128000Y-90883619D02*
X135128000Y-89867619D01*
X134450666Y-89867619D02*
X134257142Y-89867619D01*
X134160380Y-89916000D01*
X134063619Y-90012761D01*
X134015238Y-90206285D01*
X134015238Y-90544952D01*
X134063619Y-90738476D01*
X134160380Y-90835238D01*
X134257142Y-90883619D01*
X134450666Y-90883619D01*
X134547428Y-90835238D01*
X134644190Y-90738476D01*
X134692571Y-90544952D01*
X134692571Y-90206285D01*
X134644190Y-90012761D01*
X134547428Y-89916000D01*
X134450666Y-89867619D01*
X133434666Y-90303047D02*
X133531428Y-90254666D01*
X133579809Y-90206285D01*
X133628190Y-90109523D01*
X133628190Y-90061142D01*
X133579809Y-89964380D01*
X133531428Y-89916000D01*
X133434666Y-89867619D01*
X133241142Y-89867619D01*
X133144380Y-89916000D01*
X133096000Y-89964380D01*
X133047619Y-90061142D01*
X133047619Y-90109523D01*
X133096000Y-90206285D01*
X133144380Y-90254666D01*
X133241142Y-90303047D01*
X133434666Y-90303047D01*
X133531428Y-90351428D01*
X133579809Y-90399809D01*
X133628190Y-90496571D01*
X133628190Y-90690095D01*
X133579809Y-90786857D01*
X133531428Y-90835238D01*
X133434666Y-90883619D01*
X133241142Y-90883619D01*
X133144380Y-90835238D01*
X133096000Y-90786857D01*
X133047619Y-90690095D01*
X133047619Y-90496571D01*
X133096000Y-90399809D01*
X133144380Y-90351428D01*
X133241142Y-90303047D01*
X137238619Y-94615000D02*
X137335380Y-94566619D01*
X137480523Y-94566619D01*
X137625666Y-94615000D01*
X137722428Y-94711761D01*
X137770809Y-94808523D01*
X137819190Y-95002047D01*
X137819190Y-95147190D01*
X137770809Y-95340714D01*
X137722428Y-95437476D01*
X137625666Y-95534238D01*
X137480523Y-95582619D01*
X137383761Y-95582619D01*
X137238619Y-95534238D01*
X137190238Y-95485857D01*
X137190238Y-95147190D01*
X137383761Y-95147190D01*
X136754809Y-95582619D02*
X136754809Y-94566619D01*
X136367761Y-94566619D01*
X136271000Y-94615000D01*
X136222619Y-94663380D01*
X136174238Y-94760142D01*
X136174238Y-94905285D01*
X136222619Y-95002047D01*
X136271000Y-95050428D01*
X136367761Y-95098809D01*
X136754809Y-95098809D01*
X135738809Y-95582619D02*
X135738809Y-94566619D01*
X135061476Y-94566619D02*
X134867952Y-94566619D01*
X134771190Y-94615000D01*
X134674428Y-94711761D01*
X134626047Y-94905285D01*
X134626047Y-95243952D01*
X134674428Y-95437476D01*
X134771190Y-95534238D01*
X134867952Y-95582619D01*
X135061476Y-95582619D01*
X135158238Y-95534238D01*
X135255000Y-95437476D01*
X135303380Y-95243952D01*
X135303380Y-94905285D01*
X135255000Y-94711761D01*
X135158238Y-94615000D01*
X135061476Y-94566619D01*
X133658428Y-95582619D02*
X134239000Y-95582619D01*
X133948714Y-95582619D02*
X133948714Y-94566619D01*
X134045476Y-94711761D01*
X134142238Y-94808523D01*
X134239000Y-94856904D01*
X133029476Y-94566619D02*
X132932714Y-94566619D01*
X132835952Y-94615000D01*
X132787571Y-94663380D01*
X132739190Y-94760142D01*
X132690809Y-94953666D01*
X132690809Y-95195571D01*
X132739190Y-95389095D01*
X132787571Y-95485857D01*
X132835952Y-95534238D01*
X132932714Y-95582619D01*
X133029476Y-95582619D01*
X133126238Y-95534238D01*
X133174619Y-95485857D01*
X133223000Y-95389095D01*
X133271380Y-95195571D01*
X133271380Y-94953666D01*
X133223000Y-94760142D01*
X133174619Y-94663380D01*
X133126238Y-94615000D01*
X133029476Y-94566619D01*
X137111619Y-97282000D02*
X137208380Y-97233619D01*
X137353523Y-97233619D01*
X137498666Y-97282000D01*
X137595428Y-97378761D01*
X137643809Y-97475523D01*
X137692190Y-97669047D01*
X137692190Y-97814190D01*
X137643809Y-98007714D01*
X137595428Y-98104476D01*
X137498666Y-98201238D01*
X137353523Y-98249619D01*
X137256761Y-98249619D01*
X137111619Y-98201238D01*
X137063238Y-98152857D01*
X137063238Y-97814190D01*
X137256761Y-97814190D01*
X136627809Y-98249619D02*
X136627809Y-97233619D01*
X136240761Y-97233619D01*
X136144000Y-97282000D01*
X136095619Y-97330380D01*
X136047238Y-97427142D01*
X136047238Y-97572285D01*
X136095619Y-97669047D01*
X136144000Y-97717428D01*
X136240761Y-97765809D01*
X136627809Y-97765809D01*
X135611809Y-98249619D02*
X135611809Y-97233619D01*
X134934476Y-97233619D02*
X134740952Y-97233619D01*
X134644190Y-97282000D01*
X134547428Y-97378761D01*
X134499047Y-97572285D01*
X134499047Y-97910952D01*
X134547428Y-98104476D01*
X134644190Y-98201238D01*
X134740952Y-98249619D01*
X134934476Y-98249619D01*
X135031238Y-98201238D01*
X135128000Y-98104476D01*
X135176380Y-97910952D01*
X135176380Y-97572285D01*
X135128000Y-97378761D01*
X135031238Y-97282000D01*
X134934476Y-97233619D01*
X133531428Y-98249619D02*
X134112000Y-98249619D01*
X133821714Y-98249619D02*
X133821714Y-97233619D01*
X133918476Y-97378761D01*
X134015238Y-97475523D01*
X134112000Y-97523904D01*
X132563809Y-98249619D02*
X133144380Y-98249619D01*
X132854095Y-98249619D02*
X132854095Y-97233619D01*
X132950857Y-97378761D01*
X133047619Y-97475523D01*
X133144380Y-97523904D01*
D12*
X135224761Y-100012500D02*
X135285238Y-99982261D01*
X135375952Y-99982261D01*
X135466666Y-100012500D01*
X135527142Y-100072976D01*
X135557380Y-100133452D01*
X135587619Y-100254404D01*
X135587619Y-100345119D01*
X135557380Y-100466071D01*
X135527142Y-100526547D01*
X135466666Y-100587023D01*
X135375952Y-100617261D01*
X135315476Y-100617261D01*
X135224761Y-100587023D01*
X135194523Y-100556785D01*
X135194523Y-100345119D01*
X135315476Y-100345119D01*
X134922380Y-100617261D02*
X134922380Y-99982261D01*
X134680476Y-99982261D01*
X134620000Y-100012500D01*
X134589761Y-100042738D01*
X134559523Y-100103214D01*
X134559523Y-100193928D01*
X134589761Y-100254404D01*
X134620000Y-100284642D01*
X134680476Y-100314880D01*
X134922380Y-100314880D01*
X134287380Y-100617261D02*
X134287380Y-99982261D01*
X133864047Y-99982261D02*
X133743095Y-99982261D01*
X133682619Y-100012500D01*
X133622142Y-100072976D01*
X133591904Y-100193928D01*
X133591904Y-100405595D01*
X133622142Y-100526547D01*
X133682619Y-100587023D01*
X133743095Y-100617261D01*
X133864047Y-100617261D01*
X133924523Y-100587023D01*
X133985000Y-100526547D01*
X134015238Y-100405595D01*
X134015238Y-100193928D01*
X133985000Y-100072976D01*
X133924523Y-100012500D01*
X133864047Y-99982261D01*
X132987142Y-100617261D02*
X133350000Y-100617261D01*
X133168571Y-100617261D02*
X133168571Y-99982261D01*
X133229047Y-100072976D01*
X133289523Y-100133452D01*
X133350000Y-100163690D01*
X132745238Y-100042738D02*
X132715000Y-100012500D01*
X132654523Y-99982261D01*
X132503333Y-99982261D01*
X132442857Y-100012500D01*
X132412619Y-100042738D01*
X132382380Y-100103214D01*
X132382380Y-100163690D01*
X132412619Y-100254404D01*
X132775476Y-100617261D01*
X132382380Y-100617261D01*
X135224761Y-102552500D02*
X135285238Y-102522261D01*
X135375952Y-102522261D01*
X135466666Y-102552500D01*
X135527142Y-102612976D01*
X135557380Y-102673452D01*
X135587619Y-102794404D01*
X135587619Y-102885119D01*
X135557380Y-103006071D01*
X135527142Y-103066547D01*
X135466666Y-103127023D01*
X135375952Y-103157261D01*
X135315476Y-103157261D01*
X135224761Y-103127023D01*
X135194523Y-103096785D01*
X135194523Y-102885119D01*
X135315476Y-102885119D01*
X134922380Y-103157261D02*
X134922380Y-102522261D01*
X134680476Y-102522261D01*
X134620000Y-102552500D01*
X134589761Y-102582738D01*
X134559523Y-102643214D01*
X134559523Y-102733928D01*
X134589761Y-102794404D01*
X134620000Y-102824642D01*
X134680476Y-102854880D01*
X134922380Y-102854880D01*
X134287380Y-103157261D02*
X134287380Y-102522261D01*
X133864047Y-102522261D02*
X133743095Y-102522261D01*
X133682619Y-102552500D01*
X133622142Y-102612976D01*
X133591904Y-102733928D01*
X133591904Y-102945595D01*
X133622142Y-103066547D01*
X133682619Y-103127023D01*
X133743095Y-103157261D01*
X133864047Y-103157261D01*
X133924523Y-103127023D01*
X133985000Y-103066547D01*
X134015238Y-102945595D01*
X134015238Y-102733928D01*
X133985000Y-102612976D01*
X133924523Y-102552500D01*
X133864047Y-102522261D01*
X132987142Y-103157261D02*
X133350000Y-103157261D01*
X133168571Y-103157261D02*
X133168571Y-102522261D01*
X133229047Y-102612976D01*
X133289523Y-102673452D01*
X133350000Y-102703690D01*
X132775476Y-102522261D02*
X132382380Y-102522261D01*
X132594047Y-102764166D01*
X132503333Y-102764166D01*
X132442857Y-102794404D01*
X132412619Y-102824642D01*
X132382380Y-102885119D01*
X132382380Y-103036309D01*
X132412619Y-103096785D01*
X132442857Y-103127023D01*
X132503333Y-103157261D01*
X132684761Y-103157261D01*
X132745238Y-103127023D01*
X132775476Y-103096785D01*
X135224761Y-104965500D02*
X135285238Y-104935261D01*
X135375952Y-104935261D01*
X135466666Y-104965500D01*
X135527142Y-105025976D01*
X135557380Y-105086452D01*
X135587619Y-105207404D01*
X135587619Y-105298119D01*
X135557380Y-105419071D01*
X135527142Y-105479547D01*
X135466666Y-105540023D01*
X135375952Y-105570261D01*
X135315476Y-105570261D01*
X135224761Y-105540023D01*
X135194523Y-105509785D01*
X135194523Y-105298119D01*
X135315476Y-105298119D01*
X134922380Y-105570261D02*
X134922380Y-104935261D01*
X134680476Y-104935261D01*
X134620000Y-104965500D01*
X134589761Y-104995738D01*
X134559523Y-105056214D01*
X134559523Y-105146928D01*
X134589761Y-105207404D01*
X134620000Y-105237642D01*
X134680476Y-105267880D01*
X134922380Y-105267880D01*
X134287380Y-105570261D02*
X134287380Y-104935261D01*
X133864047Y-104935261D02*
X133743095Y-104935261D01*
X133682619Y-104965500D01*
X133622142Y-105025976D01*
X133591904Y-105146928D01*
X133591904Y-105358595D01*
X133622142Y-105479547D01*
X133682619Y-105540023D01*
X133743095Y-105570261D01*
X133864047Y-105570261D01*
X133924523Y-105540023D01*
X133985000Y-105479547D01*
X134015238Y-105358595D01*
X134015238Y-105146928D01*
X133985000Y-105025976D01*
X133924523Y-104965500D01*
X133864047Y-104935261D01*
X132987142Y-105570261D02*
X133350000Y-105570261D01*
X133168571Y-105570261D02*
X133168571Y-104935261D01*
X133229047Y-105025976D01*
X133289523Y-105086452D01*
X133350000Y-105116690D01*
X132442857Y-105146928D02*
X132442857Y-105570261D01*
X132594047Y-104905023D02*
X132745238Y-105358595D01*
X132352142Y-105358595D01*
D10*
X137111619Y-112776000D02*
X137208380Y-112727619D01*
X137353523Y-112727619D01*
X137498666Y-112776000D01*
X137595428Y-112872761D01*
X137643809Y-112969523D01*
X137692190Y-113163047D01*
X137692190Y-113308190D01*
X137643809Y-113501714D01*
X137595428Y-113598476D01*
X137498666Y-113695238D01*
X137353523Y-113743619D01*
X137256761Y-113743619D01*
X137111619Y-113695238D01*
X137063238Y-113646857D01*
X137063238Y-113308190D01*
X137256761Y-113308190D01*
X136627809Y-113743619D02*
X136627809Y-112727619D01*
X136240761Y-112727619D01*
X136144000Y-112776000D01*
X136095619Y-112824380D01*
X136047238Y-112921142D01*
X136047238Y-113066285D01*
X136095619Y-113163047D01*
X136144000Y-113211428D01*
X136240761Y-113259809D01*
X136627809Y-113259809D01*
X135611809Y-113743619D02*
X135611809Y-112727619D01*
X134934476Y-112727619D02*
X134740952Y-112727619D01*
X134644190Y-112776000D01*
X134547428Y-112872761D01*
X134499047Y-113066285D01*
X134499047Y-113404952D01*
X134547428Y-113598476D01*
X134644190Y-113695238D01*
X134740952Y-113743619D01*
X134934476Y-113743619D01*
X135031238Y-113695238D01*
X135128000Y-113598476D01*
X135176380Y-113404952D01*
X135176380Y-113066285D01*
X135128000Y-112872761D01*
X135031238Y-112776000D01*
X134934476Y-112727619D01*
X133531428Y-113743619D02*
X134112000Y-113743619D01*
X133821714Y-113743619D02*
X133821714Y-112727619D01*
X133918476Y-112872761D01*
X134015238Y-112969523D01*
X134112000Y-113017904D01*
X133192761Y-112727619D02*
X132515428Y-112727619D01*
X132950857Y-113743619D01*
X137111619Y-109982000D02*
X137208380Y-109933619D01*
X137353523Y-109933619D01*
X137498666Y-109982000D01*
X137595428Y-110078761D01*
X137643809Y-110175523D01*
X137692190Y-110369047D01*
X137692190Y-110514190D01*
X137643809Y-110707714D01*
X137595428Y-110804476D01*
X137498666Y-110901238D01*
X137353523Y-110949619D01*
X137256761Y-110949619D01*
X137111619Y-110901238D01*
X137063238Y-110852857D01*
X137063238Y-110514190D01*
X137256761Y-110514190D01*
X136627809Y-110949619D02*
X136627809Y-109933619D01*
X136240761Y-109933619D01*
X136144000Y-109982000D01*
X136095619Y-110030380D01*
X136047238Y-110127142D01*
X136047238Y-110272285D01*
X136095619Y-110369047D01*
X136144000Y-110417428D01*
X136240761Y-110465809D01*
X136627809Y-110465809D01*
X135611809Y-110949619D02*
X135611809Y-109933619D01*
X134934476Y-109933619D02*
X134740952Y-109933619D01*
X134644190Y-109982000D01*
X134547428Y-110078761D01*
X134499047Y-110272285D01*
X134499047Y-110610952D01*
X134547428Y-110804476D01*
X134644190Y-110901238D01*
X134740952Y-110949619D01*
X134934476Y-110949619D01*
X135031238Y-110901238D01*
X135128000Y-110804476D01*
X135176380Y-110610952D01*
X135176380Y-110272285D01*
X135128000Y-110078761D01*
X135031238Y-109982000D01*
X134934476Y-109933619D01*
X133531428Y-110949619D02*
X134112000Y-110949619D01*
X133821714Y-110949619D02*
X133821714Y-109933619D01*
X133918476Y-110078761D01*
X134015238Y-110175523D01*
X134112000Y-110223904D01*
X132660571Y-109933619D02*
X132854095Y-109933619D01*
X132950857Y-109982000D01*
X132999238Y-110030380D01*
X133096000Y-110175523D01*
X133144380Y-110369047D01*
X133144380Y-110756095D01*
X133096000Y-110852857D01*
X133047619Y-110901238D01*
X132950857Y-110949619D01*
X132757333Y-110949619D01*
X132660571Y-110901238D01*
X132612190Y-110852857D01*
X132563809Y-110756095D01*
X132563809Y-110514190D01*
X132612190Y-110417428D01*
X132660571Y-110369047D01*
X132757333Y-110320666D01*
X132950857Y-110320666D01*
X133047619Y-110369047D01*
X133096000Y-110417428D01*
X133144380Y-110514190D01*
X136824357Y-115660714D02*
X135856738Y-115660714D01*
X136340547Y-116144523D02*
X136340547Y-115176904D01*
X134647214Y-114874523D02*
X135251976Y-114874523D01*
X135312452Y-115479285D01*
X135251976Y-115418809D01*
X135131023Y-115358333D01*
X134828642Y-115358333D01*
X134707690Y-115418809D01*
X134647214Y-115479285D01*
X134586738Y-115600238D01*
X134586738Y-115902619D01*
X134647214Y-116023571D01*
X134707690Y-116084047D01*
X134828642Y-116144523D01*
X135131023Y-116144523D01*
X135251976Y-116084047D01*
X135312452Y-116023571D01*
X134223880Y-114874523D02*
X133800547Y-116144523D01*
X133377214Y-114874523D01*
X148082000Y-114300001D02*
X148082000Y-117221000D01*
X148844000Y-114300000D02*
X148082000Y-114300000D01*
X148844000Y-117221000D02*
X148082000Y-117221000D01*
X148844000Y-119253000D02*
X148844000Y-117221000D01*
D13*
X153881666Y-117919500D02*
X153966333Y-117877166D01*
X154093333Y-117877166D01*
X154220333Y-117919500D01*
X154305000Y-118004166D01*
X154347333Y-118088833D01*
X154389666Y-118258166D01*
X154389666Y-118385166D01*
X154347333Y-118554500D01*
X154305000Y-118639166D01*
X154220333Y-118723833D01*
X154093333Y-118766166D01*
X154008666Y-118766166D01*
X153881666Y-118723833D01*
X153839333Y-118681500D01*
X153839333Y-118385166D01*
X154008666Y-118385166D01*
X153458333Y-118766166D02*
X153458333Y-117877166D01*
X153119666Y-117877166D01*
X153035000Y-117919500D01*
X152992666Y-117961833D01*
X152950333Y-118046500D01*
X152950333Y-118173500D01*
X152992666Y-118258166D01*
X153035000Y-118300500D01*
X153119666Y-118342833D01*
X153458333Y-118342833D01*
X152569333Y-118766166D02*
X152569333Y-117877166D01*
X151976666Y-117877166D02*
X151807333Y-117877166D01*
X151722666Y-117919500D01*
X151638000Y-118004166D01*
X151595666Y-118173500D01*
X151595666Y-118469833D01*
X151638000Y-118639166D01*
X151722666Y-118723833D01*
X151807333Y-118766166D01*
X151976666Y-118766166D01*
X152061333Y-118723833D01*
X152146000Y-118639166D01*
X152188333Y-118469833D01*
X152188333Y-118173500D01*
X152146000Y-118004166D01*
X152061333Y-117919500D01*
X151976666Y-117877166D01*
X150749000Y-118766166D02*
X151257000Y-118766166D01*
X151003000Y-118766166D02*
X151003000Y-117877166D01*
X151087666Y-118004166D01*
X151172333Y-118088833D01*
X151257000Y-118131166D01*
X150241000Y-118258166D02*
X150325666Y-118215833D01*
X150368000Y-118173500D01*
X150410333Y-118088833D01*
X150410333Y-118046500D01*
X150368000Y-117961833D01*
X150325666Y-117919500D01*
X150241000Y-117877166D01*
X150071666Y-117877166D01*
X149987000Y-117919500D01*
X149944666Y-117961833D01*
X149902333Y-118046500D01*
X149902333Y-118088833D01*
X149944666Y-118173500D01*
X149987000Y-118215833D01*
X150071666Y-118258166D01*
X150241000Y-118258166D01*
X150325666Y-118300500D01*
X150368000Y-118342833D01*
X150410333Y-118427500D01*
X150410333Y-118596833D01*
X150368000Y-118681500D01*
X150325666Y-118723833D01*
X150241000Y-118766166D01*
X150071666Y-118766166D01*
X149987000Y-118723833D01*
X149944666Y-118681500D01*
X149902333Y-118596833D01*
X149902333Y-118427500D01*
X149944666Y-118342833D01*
X149987000Y-118300500D01*
X150071666Y-118258166D01*
D11*
X154631571Y-114581214D02*
X154631571Y-115198071D01*
X154595285Y-115270642D01*
X154559000Y-115306928D01*
X154486428Y-115343214D01*
X154341285Y-115343214D01*
X154268714Y-115306928D01*
X154232428Y-115270642D01*
X154196142Y-115198071D01*
X154196142Y-114581214D01*
X153869571Y-115306928D02*
X153760714Y-115343214D01*
X153579285Y-115343214D01*
X153506714Y-115306928D01*
X153470428Y-115270642D01*
X153434142Y-115198071D01*
X153434142Y-115125500D01*
X153470428Y-115052928D01*
X153506714Y-115016642D01*
X153579285Y-114980357D01*
X153724428Y-114944071D01*
X153797000Y-114907785D01*
X153833285Y-114871500D01*
X153869571Y-114798928D01*
X153869571Y-114726357D01*
X153833285Y-114653785D01*
X153797000Y-114617500D01*
X153724428Y-114581214D01*
X153543000Y-114581214D01*
X153434142Y-114617500D01*
X152853571Y-114944071D02*
X152744714Y-114980357D01*
X152708428Y-115016642D01*
X152672142Y-115089214D01*
X152672142Y-115198071D01*
X152708428Y-115270642D01*
X152744714Y-115306928D01*
X152817285Y-115343214D01*
X153107571Y-115343214D01*
X153107571Y-114581214D01*
X152853571Y-114581214D01*
X152781000Y-114617500D01*
X152744714Y-114653785D01*
X152708428Y-114726357D01*
X152708428Y-114798928D01*
X152744714Y-114871500D01*
X152781000Y-114907785D01*
X152853571Y-114944071D01*
X153107571Y-114944071D01*
X152527000Y-115415785D02*
X151946428Y-115415785D01*
X151765000Y-115343214D02*
X151765000Y-114581214D01*
X151583571Y-114581214D01*
X151474714Y-114617500D01*
X151402142Y-114690071D01*
X151365857Y-114762642D01*
X151329571Y-114907785D01*
X151329571Y-115016642D01*
X151365857Y-115161785D01*
X151402142Y-115234357D01*
X151474714Y-115306928D01*
X151583571Y-115343214D01*
X151765000Y-115343214D01*
X151003000Y-115052928D02*
X150422428Y-115052928D01*
D10*
X154698095Y-112727619D02*
X154698095Y-113550095D01*
X154649714Y-113646857D01*
X154601333Y-113695238D01*
X154504571Y-113743619D01*
X154311047Y-113743619D01*
X154214285Y-113695238D01*
X154165904Y-113646857D01*
X154117523Y-113550095D01*
X154117523Y-112727619D01*
X153682095Y-113695238D02*
X153536952Y-113743619D01*
X153295047Y-113743619D01*
X153198285Y-113695238D01*
X153149904Y-113646857D01*
X153101523Y-113550095D01*
X153101523Y-113453333D01*
X153149904Y-113356571D01*
X153198285Y-113308190D01*
X153295047Y-113259809D01*
X153488571Y-113211428D01*
X153585333Y-113163047D01*
X153633714Y-113114666D01*
X153682095Y-113017904D01*
X153682095Y-112921142D01*
X153633714Y-112824380D01*
X153585333Y-112776000D01*
X153488571Y-112727619D01*
X153246666Y-112727619D01*
X153101523Y-112776000D01*
X152327428Y-113211428D02*
X152182285Y-113259809D01*
X152133904Y-113308190D01*
X152085523Y-113404952D01*
X152085523Y-113550095D01*
X152133904Y-113646857D01*
X152182285Y-113695238D01*
X152279047Y-113743619D01*
X152666095Y-113743619D01*
X152666095Y-112727619D01*
X152327428Y-112727619D01*
X152230666Y-112776000D01*
X152182285Y-112824380D01*
X152133904Y-112921142D01*
X152133904Y-113017904D01*
X152182285Y-113114666D01*
X152230666Y-113163047D01*
X152327428Y-113211428D01*
X152666095Y-113211428D01*
X151892000Y-113840380D02*
X151117904Y-113840380D01*
X150876000Y-113743619D02*
X150876000Y-112727619D01*
X150634095Y-112727619D01*
X150488952Y-112776000D01*
X150392190Y-112872761D01*
X150343809Y-112969523D01*
X150295428Y-113163047D01*
X150295428Y-113308190D01*
X150343809Y-113501714D01*
X150392190Y-113598476D01*
X150488952Y-113695238D01*
X150634095Y-113743619D01*
X150876000Y-113743619D01*
X149860000Y-113356571D02*
X149085904Y-113356571D01*
X149472952Y-113743619D02*
X149472952Y-112969523D01*
X153343428Y-71882000D02*
X153440190Y-71833619D01*
X153585333Y-71833619D01*
X153730476Y-71882000D01*
X153827238Y-71978761D01*
X153875619Y-72075523D01*
X153924000Y-72269047D01*
X153924000Y-72414190D01*
X153875619Y-72607714D01*
X153827238Y-72704476D01*
X153730476Y-72801238D01*
X153585333Y-72849619D01*
X153488571Y-72849619D01*
X153343428Y-72801238D01*
X153295047Y-72752857D01*
X153295047Y-72414190D01*
X153488571Y-72414190D01*
X152859619Y-72849619D02*
X152859619Y-71833619D01*
X152472571Y-71833619D01*
X152375809Y-71882000D01*
X152327428Y-71930380D01*
X152279047Y-72027142D01*
X152279047Y-72172285D01*
X152327428Y-72269047D01*
X152375809Y-72317428D01*
X152472571Y-72365809D01*
X152859619Y-72365809D01*
X151843619Y-72849619D02*
X151843619Y-71833619D01*
X150924380Y-72172285D02*
X150924380Y-72849619D01*
X151166285Y-71785238D02*
X151408190Y-72510952D01*
X150779238Y-72510952D01*
X149956761Y-71833619D02*
X150150285Y-71833619D01*
X150247047Y-71882000D01*
X150295428Y-71930380D01*
X150392190Y-72075523D01*
X150440571Y-72269047D01*
X150440571Y-72656095D01*
X150392190Y-72752857D01*
X150343809Y-72801238D01*
X150247047Y-72849619D01*
X150053523Y-72849619D01*
X149956761Y-72801238D01*
X149908380Y-72752857D01*
X149860000Y-72656095D01*
X149860000Y-72414190D01*
X149908380Y-72317428D01*
X149956761Y-72269047D01*
X150053523Y-72220666D01*
X150247047Y-72220666D01*
X150343809Y-72269047D01*
X150392190Y-72317428D01*
X150440571Y-72414190D01*
X154480380Y-69523428D02*
X154141714Y-69523428D01*
X153996571Y-70055619D02*
X154480380Y-70055619D01*
X154480380Y-69039619D01*
X153996571Y-69039619D01*
X153609523Y-70007238D02*
X153464380Y-70055619D01*
X153222476Y-70055619D01*
X153125714Y-70007238D01*
X153077333Y-69958857D01*
X153028952Y-69862095D01*
X153028952Y-69765333D01*
X153077333Y-69668571D01*
X153125714Y-69620190D01*
X153222476Y-69571809D01*
X153416000Y-69523428D01*
X153512761Y-69475047D01*
X153561142Y-69426666D01*
X153609523Y-69329904D01*
X153609523Y-69233142D01*
X153561142Y-69136380D01*
X153512761Y-69088000D01*
X153416000Y-69039619D01*
X153174095Y-69039619D01*
X153028952Y-69088000D01*
X152593523Y-70055619D02*
X152593523Y-69039619D01*
X152206476Y-69039619D01*
X152109714Y-69088000D01*
X152061333Y-69136380D01*
X152012952Y-69233142D01*
X152012952Y-69378285D01*
X152061333Y-69475047D01*
X152109714Y-69523428D01*
X152206476Y-69571809D01*
X152593523Y-69571809D01*
X151819428Y-70152380D02*
X151045333Y-70152380D01*
X150803428Y-69523428D02*
X150464761Y-69523428D01*
X150319619Y-70055619D02*
X150803428Y-70055619D01*
X150803428Y-69039619D01*
X150319619Y-69039619D01*
X149884190Y-70055619D02*
X149884190Y-69039619D01*
X149303619Y-70055619D01*
X149303619Y-69039619D01*
X148844000Y-71120000D02*
X155194000Y-71120000D01*
X154280809Y-116295714D02*
X153313190Y-116295714D01*
X149454809Y-116295714D02*
X148487190Y-116295714D01*
X148971000Y-116779523D02*
X148971000Y-115811904D01*
X138176000Y-78740000D02*
X138176000Y-66040000D01*
X141224000Y-82169000D02*
X141224000Y-78740000D01*
X148844000Y-111760000D02*
X148844000Y-114300000D01*
X138176000Y-119253000D02*
X138049000Y-119380000D01*
X131826000Y-119380000D02*
X138049000Y-119380000D01*
X131826000Y-71120000D02*
X138176000Y-71120000D01*
X148844000Y-68580000D02*
X155194000Y-68580000D01*
X148971000Y-119380000D02*
X155321000Y-119380000D01*
X145463380Y-109353047D02*
X145947190Y-109691714D01*
X145463380Y-109933619D02*
X146479380Y-109933619D01*
X146479380Y-109546571D01*
X146431000Y-109449809D01*
X146382619Y-109401428D01*
X146285857Y-109353047D01*
X146140714Y-109353047D01*
X146043952Y-109401428D01*
X145995571Y-109449809D01*
X145947190Y-109546571D01*
X145947190Y-109933619D01*
X145511761Y-108530571D02*
X145463380Y-108627333D01*
X145463380Y-108820857D01*
X145511761Y-108917619D01*
X145608523Y-108966000D01*
X145995571Y-108966000D01*
X146092333Y-108917619D01*
X146140714Y-108820857D01*
X146140714Y-108627333D01*
X146092333Y-108530571D01*
X145995571Y-108482190D01*
X145898809Y-108482190D01*
X145802047Y-108966000D01*
X146140714Y-108143523D02*
X145463380Y-107901619D01*
X146140714Y-107659714D01*
X145366619Y-107514571D02*
X145366619Y-106740476D01*
X145995571Y-106159904D02*
X145947190Y-106014761D01*
X145898809Y-105966380D01*
X145802047Y-105918000D01*
X145656904Y-105918000D01*
X145560142Y-105966380D01*
X145511761Y-106014761D01*
X145463380Y-106111523D01*
X145463380Y-106498571D01*
X146479380Y-106498571D01*
X146479380Y-106159904D01*
X146431000Y-106063142D01*
X146382619Y-106014761D01*
X146285857Y-105966380D01*
X146189095Y-105966380D01*
X146092333Y-106014761D01*
X146043952Y-106063142D01*
X145995571Y-106159904D01*
X145995571Y-106498571D01*
D13*
X139932833Y-110722833D02*
X140821833Y-110722833D01*
X139932833Y-110341833D02*
X140398500Y-110341833D01*
X140483166Y-110384166D01*
X140525500Y-110468833D01*
X140525500Y-110595833D01*
X140483166Y-110680500D01*
X140440833Y-110722833D01*
X140525500Y-110045500D02*
X140525500Y-109706833D01*
X140821833Y-109918500D02*
X140059833Y-109918500D01*
X139975166Y-109876166D01*
X139932833Y-109791500D01*
X139932833Y-109706833D01*
X140525500Y-109537500D02*
X140525500Y-109198833D01*
X140821833Y-109410500D02*
X140059833Y-109410500D01*
X139975166Y-109368166D01*
X139932833Y-109283500D01*
X139932833Y-109198833D01*
X140525500Y-108902500D02*
X139636500Y-108902500D01*
X140483166Y-108902500D02*
X140525500Y-108817833D01*
X140525500Y-108648500D01*
X140483166Y-108563833D01*
X140440833Y-108521500D01*
X140356166Y-108479166D01*
X140102166Y-108479166D01*
X140017500Y-108521500D01*
X139975166Y-108563833D01*
X139932833Y-108648500D01*
X139932833Y-108817833D01*
X139975166Y-108902500D01*
X139975166Y-108140500D02*
X139932833Y-108055833D01*
X139932833Y-107886500D01*
X139975166Y-107801833D01*
X140059833Y-107759500D01*
X140102166Y-107759500D01*
X140186833Y-107801833D01*
X140229166Y-107886500D01*
X140229166Y-108013500D01*
X140271500Y-108098166D01*
X140356166Y-108140500D01*
X140398500Y-108140500D01*
X140483166Y-108098166D01*
X140525500Y-108013500D01*
X140525500Y-107886500D01*
X140483166Y-107801833D01*
X140017500Y-107378500D02*
X139975166Y-107336166D01*
X139932833Y-107378500D01*
X139975166Y-107420833D01*
X140017500Y-107378500D01*
X139932833Y-107378500D01*
X140483166Y-107378500D02*
X140440833Y-107336166D01*
X140398500Y-107378500D01*
X140440833Y-107420833D01*
X140483166Y-107378500D01*
X140398500Y-107378500D01*
X140864166Y-106320166D02*
X139721166Y-107082166D01*
X140864166Y-105388833D02*
X139721166Y-106150833D01*
X140525500Y-105177166D02*
X139932833Y-105007833D01*
X140356166Y-104838500D01*
X139932833Y-104669166D01*
X140525500Y-104499833D01*
X140525500Y-104245833D02*
X139932833Y-104076500D01*
X140356166Y-103907166D01*
X139932833Y-103737833D01*
X140525500Y-103568500D01*
X140525500Y-103314500D02*
X139932833Y-103145166D01*
X140356166Y-102975833D01*
X139932833Y-102806500D01*
X140525500Y-102637166D01*
X140017500Y-102298500D02*
X139975166Y-102256166D01*
X139932833Y-102298500D01*
X139975166Y-102340833D01*
X140017500Y-102298500D01*
X139932833Y-102298500D01*
X139932833Y-101748166D02*
X139975166Y-101832833D01*
X140017500Y-101875166D01*
X140102166Y-101917500D01*
X140356166Y-101917500D01*
X140440833Y-101875166D01*
X140483166Y-101832833D01*
X140525500Y-101748166D01*
X140525500Y-101621166D01*
X140483166Y-101536500D01*
X140440833Y-101494166D01*
X140356166Y-101451833D01*
X140102166Y-101451833D01*
X140017500Y-101494166D01*
X139975166Y-101536500D01*
X139932833Y-101621166D01*
X139932833Y-101748166D01*
X139932833Y-100943833D02*
X139975166Y-101028500D01*
X140059833Y-101070833D01*
X140821833Y-101070833D01*
X139932833Y-100605166D02*
X140525500Y-100605166D01*
X140821833Y-100605166D02*
X140779500Y-100647500D01*
X140737166Y-100605166D01*
X140779500Y-100562833D01*
X140821833Y-100605166D01*
X140737166Y-100605166D01*
X139932833Y-100181833D02*
X140525500Y-100181833D01*
X140440833Y-100181833D02*
X140483166Y-100139500D01*
X140525500Y-100054833D01*
X140525500Y-99927833D01*
X140483166Y-99843166D01*
X140398500Y-99800833D01*
X139932833Y-99800833D01*
X140398500Y-99800833D02*
X140483166Y-99758500D01*
X140525500Y-99673833D01*
X140525500Y-99546833D01*
X140483166Y-99462166D01*
X140398500Y-99419833D01*
X139932833Y-99419833D01*
X139975166Y-98657833D02*
X139932833Y-98742500D01*
X139932833Y-98911833D01*
X139975166Y-98996500D01*
X140059833Y-99038833D01*
X140398500Y-99038833D01*
X140483166Y-98996500D01*
X140525500Y-98911833D01*
X140525500Y-98742500D01*
X140483166Y-98657833D01*
X140398500Y-98615500D01*
X140313833Y-98615500D01*
X140229166Y-99038833D01*
X139932833Y-98319166D02*
X140525500Y-97853500D01*
X140525500Y-98319166D02*
X139932833Y-97853500D01*
X140017500Y-97514833D02*
X139975166Y-97472500D01*
X139932833Y-97514833D01*
X139975166Y-97557166D01*
X140017500Y-97514833D01*
X139932833Y-97514833D01*
X139975166Y-96710500D02*
X139932833Y-96795166D01*
X139932833Y-96964500D01*
X139975166Y-97049166D01*
X140017500Y-97091500D01*
X140102166Y-97133833D01*
X140356166Y-97133833D01*
X140440833Y-97091500D01*
X140483166Y-97049166D01*
X140525500Y-96964500D01*
X140525500Y-96795166D01*
X140483166Y-96710500D01*
X139932833Y-96202500D02*
X139975166Y-96287166D01*
X140017500Y-96329500D01*
X140102166Y-96371833D01*
X140356166Y-96371833D01*
X140440833Y-96329500D01*
X140483166Y-96287166D01*
X140525500Y-96202500D01*
X140525500Y-96075500D01*
X140483166Y-95990833D01*
X140440833Y-95948500D01*
X140356166Y-95906166D01*
X140102166Y-95906166D01*
X140017500Y-95948500D01*
X139975166Y-95990833D01*
X139932833Y-96075500D01*
X139932833Y-96202500D01*
X139932833Y-95525166D02*
X140525500Y-95525166D01*
X140440833Y-95525166D02*
X140483166Y-95482833D01*
X140525500Y-95398166D01*
X140525500Y-95271166D01*
X140483166Y-95186500D01*
X140398500Y-95144166D01*
X139932833Y-95144166D01*
X140398500Y-95144166D02*
X140483166Y-95101833D01*
X140525500Y-95017166D01*
X140525500Y-94890166D01*
X140483166Y-94805500D01*
X140398500Y-94763166D01*
X139932833Y-94763166D01*
D10*
X154489452Y-109933619D02*
X154489452Y-110756095D01*
X154441071Y-110852857D01*
X154392690Y-110901238D01*
X154295928Y-110949619D01*
X154102404Y-110949619D01*
X154005642Y-110901238D01*
X153957261Y-110852857D01*
X153908880Y-110756095D01*
X153908880Y-109933619D01*
X153473452Y-110901238D02*
X153328309Y-110949619D01*
X153086404Y-110949619D01*
X152989642Y-110901238D01*
X152941261Y-110852857D01*
X152892880Y-110756095D01*
X152892880Y-110659333D01*
X152941261Y-110562571D01*
X152989642Y-110514190D01*
X153086404Y-110465809D01*
X153279928Y-110417428D01*
X153376690Y-110369047D01*
X153425071Y-110320666D01*
X153473452Y-110223904D01*
X153473452Y-110127142D01*
X153425071Y-110030380D01*
X153376690Y-109982000D01*
X153279928Y-109933619D01*
X153038023Y-109933619D01*
X152892880Y-109982000D01*
X152118785Y-110417428D02*
X151973642Y-110465809D01*
X151925261Y-110514190D01*
X151876880Y-110610952D01*
X151876880Y-110756095D01*
X151925261Y-110852857D01*
X151973642Y-110901238D01*
X152070404Y-110949619D01*
X152457452Y-110949619D01*
X152457452Y-109933619D01*
X152118785Y-109933619D01*
X152022023Y-109982000D01*
X151973642Y-110030380D01*
X151925261Y-110127142D01*
X151925261Y-110223904D01*
X151973642Y-110320666D01*
X152022023Y-110369047D01*
X152118785Y-110417428D01*
X152457452Y-110417428D01*
X151441452Y-110562571D02*
X150667357Y-110562571D01*
X150183547Y-110949619D02*
X150183547Y-109933619D01*
X149699738Y-110949619D02*
X149699738Y-109933619D01*
X149457833Y-109933619D01*
X149312690Y-109982000D01*
X149215928Y-110078761D01*
X149167547Y-110175523D01*
X149119166Y-110369047D01*
X149119166Y-110514190D01*
X149167547Y-110707714D01*
X149215928Y-110804476D01*
X149312690Y-110901238D01*
X149457833Y-110949619D01*
X149699738Y-110949619D01*
X153875619Y-107696000D02*
X153972380Y-107647619D01*
X154117523Y-107647619D01*
X154262666Y-107696000D01*
X154359428Y-107792761D01*
X154407809Y-107889523D01*
X154456190Y-108083047D01*
X154456190Y-108228190D01*
X154407809Y-108421714D01*
X154359428Y-108518476D01*
X154262666Y-108615238D01*
X154117523Y-108663619D01*
X154020761Y-108663619D01*
X153875619Y-108615238D01*
X153827238Y-108566857D01*
X153827238Y-108228190D01*
X154020761Y-108228190D01*
X153391809Y-108663619D02*
X153391809Y-107647619D01*
X153004761Y-107647619D01*
X152908000Y-107696000D01*
X152859619Y-107744380D01*
X152811238Y-107841142D01*
X152811238Y-107986285D01*
X152859619Y-108083047D01*
X152908000Y-108131428D01*
X153004761Y-108179809D01*
X153391809Y-108179809D01*
X152375809Y-108663619D02*
X152375809Y-107647619D01*
X151698476Y-107647619D02*
X151504952Y-107647619D01*
X151408190Y-107696000D01*
X151311428Y-107792761D01*
X151263047Y-107986285D01*
X151263047Y-108324952D01*
X151311428Y-108518476D01*
X151408190Y-108615238D01*
X151504952Y-108663619D01*
X151698476Y-108663619D01*
X151795238Y-108615238D01*
X151892000Y-108518476D01*
X151940380Y-108324952D01*
X151940380Y-107986285D01*
X151892000Y-107792761D01*
X151795238Y-107696000D01*
X151698476Y-107647619D01*
X150876000Y-107744380D02*
X150827619Y-107696000D01*
X150730857Y-107647619D01*
X150488952Y-107647619D01*
X150392190Y-107696000D01*
X150343809Y-107744380D01*
X150295428Y-107841142D01*
X150295428Y-107937904D01*
X150343809Y-108083047D01*
X150924380Y-108663619D01*
X150295428Y-108663619D01*
X149424571Y-107647619D02*
X149618095Y-107647619D01*
X149714857Y-107696000D01*
X149763238Y-107744380D01*
X149860000Y-107889523D01*
X149908380Y-108083047D01*
X149908380Y-108470095D01*
X149860000Y-108566857D01*
X149811619Y-108615238D01*
X149714857Y-108663619D01*
X149521333Y-108663619D01*
X149424571Y-108615238D01*
X149376190Y-108566857D01*
X149327809Y-108470095D01*
X149327809Y-108228190D01*
X149376190Y-108131428D01*
X149424571Y-108083047D01*
X149521333Y-108034666D01*
X149714857Y-108034666D01*
X149811619Y-108083047D01*
X149860000Y-108131428D01*
X149908380Y-108228190D01*
X153875619Y-104965500D02*
X153972380Y-104917119D01*
X154117523Y-104917119D01*
X154262666Y-104965500D01*
X154359428Y-105062261D01*
X154407809Y-105159023D01*
X154456190Y-105352547D01*
X154456190Y-105497690D01*
X154407809Y-105691214D01*
X154359428Y-105787976D01*
X154262666Y-105884738D01*
X154117523Y-105933119D01*
X154020761Y-105933119D01*
X153875619Y-105884738D01*
X153827238Y-105836357D01*
X153827238Y-105497690D01*
X154020761Y-105497690D01*
X153391809Y-105933119D02*
X153391809Y-104917119D01*
X153004761Y-104917119D01*
X152908000Y-104965500D01*
X152859619Y-105013880D01*
X152811238Y-105110642D01*
X152811238Y-105255785D01*
X152859619Y-105352547D01*
X152908000Y-105400928D01*
X153004761Y-105449309D01*
X153391809Y-105449309D01*
X152375809Y-105933119D02*
X152375809Y-104917119D01*
X151698476Y-104917119D02*
X151504952Y-104917119D01*
X151408190Y-104965500D01*
X151311428Y-105062261D01*
X151263047Y-105255785D01*
X151263047Y-105594452D01*
X151311428Y-105787976D01*
X151408190Y-105884738D01*
X151504952Y-105933119D01*
X151698476Y-105933119D01*
X151795238Y-105884738D01*
X151892000Y-105787976D01*
X151940380Y-105594452D01*
X151940380Y-105255785D01*
X151892000Y-105062261D01*
X151795238Y-104965500D01*
X151698476Y-104917119D01*
X150924380Y-104917119D02*
X150295428Y-104917119D01*
X150634095Y-105304166D01*
X150488952Y-105304166D01*
X150392190Y-105352547D01*
X150343809Y-105400928D01*
X150295428Y-105497690D01*
X150295428Y-105739595D01*
X150343809Y-105836357D01*
X150392190Y-105884738D01*
X150488952Y-105933119D01*
X150779238Y-105933119D01*
X150876000Y-105884738D01*
X150924380Y-105836357D01*
X149956761Y-104917119D02*
X149327809Y-104917119D01*
X149666476Y-105304166D01*
X149521333Y-105304166D01*
X149424571Y-105352547D01*
X149376190Y-105400928D01*
X149327809Y-105497690D01*
X149327809Y-105739595D01*
X149376190Y-105836357D01*
X149424571Y-105884738D01*
X149521333Y-105933119D01*
X149811619Y-105933119D01*
X149908380Y-105884738D01*
X149956761Y-105836357D01*
X153875619Y-102489000D02*
X153972380Y-102440619D01*
X154117523Y-102440619D01*
X154262666Y-102489000D01*
X154359428Y-102585761D01*
X154407809Y-102682523D01*
X154456190Y-102876047D01*
X154456190Y-103021190D01*
X154407809Y-103214714D01*
X154359428Y-103311476D01*
X154262666Y-103408238D01*
X154117523Y-103456619D01*
X154020761Y-103456619D01*
X153875619Y-103408238D01*
X153827238Y-103359857D01*
X153827238Y-103021190D01*
X154020761Y-103021190D01*
X153391809Y-103456619D02*
X153391809Y-102440619D01*
X153004761Y-102440619D01*
X152908000Y-102489000D01*
X152859619Y-102537380D01*
X152811238Y-102634142D01*
X152811238Y-102779285D01*
X152859619Y-102876047D01*
X152908000Y-102924428D01*
X153004761Y-102972809D01*
X153391809Y-102972809D01*
X152375809Y-103456619D02*
X152375809Y-102440619D01*
X151698476Y-102440619D02*
X151504952Y-102440619D01*
X151408190Y-102489000D01*
X151311428Y-102585761D01*
X151263047Y-102779285D01*
X151263047Y-103117952D01*
X151311428Y-103311476D01*
X151408190Y-103408238D01*
X151504952Y-103456619D01*
X151698476Y-103456619D01*
X151795238Y-103408238D01*
X151892000Y-103311476D01*
X151940380Y-103117952D01*
X151940380Y-102779285D01*
X151892000Y-102585761D01*
X151795238Y-102489000D01*
X151698476Y-102440619D01*
X150924380Y-102440619D02*
X150295428Y-102440619D01*
X150634095Y-102827666D01*
X150488952Y-102827666D01*
X150392190Y-102876047D01*
X150343809Y-102924428D01*
X150295428Y-103021190D01*
X150295428Y-103263095D01*
X150343809Y-103359857D01*
X150392190Y-103408238D01*
X150488952Y-103456619D01*
X150779238Y-103456619D01*
X150876000Y-103408238D01*
X150924380Y-103359857D01*
X149424571Y-102779285D02*
X149424571Y-103456619D01*
X149666476Y-102392238D02*
X149908380Y-103117952D01*
X149279428Y-103117952D01*
X153875619Y-99822000D02*
X153972380Y-99773619D01*
X154117523Y-99773619D01*
X154262666Y-99822000D01*
X154359428Y-99918761D01*
X154407809Y-100015523D01*
X154456190Y-100209047D01*
X154456190Y-100354190D01*
X154407809Y-100547714D01*
X154359428Y-100644476D01*
X154262666Y-100741238D01*
X154117523Y-100789619D01*
X154020761Y-100789619D01*
X153875619Y-100741238D01*
X153827238Y-100692857D01*
X153827238Y-100354190D01*
X154020761Y-100354190D01*
X153391809Y-100789619D02*
X153391809Y-99773619D01*
X153004761Y-99773619D01*
X152908000Y-99822000D01*
X152859619Y-99870380D01*
X152811238Y-99967142D01*
X152811238Y-100112285D01*
X152859619Y-100209047D01*
X152908000Y-100257428D01*
X153004761Y-100305809D01*
X153391809Y-100305809D01*
X152375809Y-100789619D02*
X152375809Y-99773619D01*
X151698476Y-99773619D02*
X151504952Y-99773619D01*
X151408190Y-99822000D01*
X151311428Y-99918761D01*
X151263047Y-100112285D01*
X151263047Y-100450952D01*
X151311428Y-100644476D01*
X151408190Y-100741238D01*
X151504952Y-100789619D01*
X151698476Y-100789619D01*
X151795238Y-100741238D01*
X151892000Y-100644476D01*
X151940380Y-100450952D01*
X151940380Y-100112285D01*
X151892000Y-99918761D01*
X151795238Y-99822000D01*
X151698476Y-99773619D01*
X150924380Y-99773619D02*
X150295428Y-99773619D01*
X150634095Y-100160666D01*
X150488952Y-100160666D01*
X150392190Y-100209047D01*
X150343809Y-100257428D01*
X150295428Y-100354190D01*
X150295428Y-100596095D01*
X150343809Y-100692857D01*
X150392190Y-100741238D01*
X150488952Y-100789619D01*
X150779238Y-100789619D01*
X150876000Y-100741238D01*
X150924380Y-100692857D01*
X149376190Y-99773619D02*
X149860000Y-99773619D01*
X149908380Y-100257428D01*
X149860000Y-100209047D01*
X149763238Y-100160666D01*
X149521333Y-100160666D01*
X149424571Y-100209047D01*
X149376190Y-100257428D01*
X149327809Y-100354190D01*
X149327809Y-100596095D01*
X149376190Y-100692857D01*
X149424571Y-100741238D01*
X149521333Y-100789619D01*
X149763238Y-100789619D01*
X149860000Y-100741238D01*
X149908380Y-100692857D01*
D13*
X153881666Y-97091500D02*
X153966333Y-97049166D01*
X154093333Y-97049166D01*
X154220333Y-97091500D01*
X154305000Y-97176166D01*
X154347333Y-97260833D01*
X154389666Y-97430166D01*
X154389666Y-97557166D01*
X154347333Y-97726500D01*
X154305000Y-97811166D01*
X154220333Y-97895833D01*
X154093333Y-97938166D01*
X154008666Y-97938166D01*
X153881666Y-97895833D01*
X153839333Y-97853500D01*
X153839333Y-97557166D01*
X154008666Y-97557166D01*
X153458333Y-97938166D02*
X153458333Y-97049166D01*
X153119666Y-97049166D01*
X153035000Y-97091500D01*
X152992666Y-97133833D01*
X152950333Y-97218500D01*
X152950333Y-97345500D01*
X152992666Y-97430166D01*
X153035000Y-97472500D01*
X153119666Y-97514833D01*
X153458333Y-97514833D01*
X152569333Y-97938166D02*
X152569333Y-97049166D01*
X151976666Y-97049166D02*
X151807333Y-97049166D01*
X151722666Y-97091500D01*
X151638000Y-97176166D01*
X151595666Y-97345500D01*
X151595666Y-97641833D01*
X151638000Y-97811166D01*
X151722666Y-97895833D01*
X151807333Y-97938166D01*
X151976666Y-97938166D01*
X152061333Y-97895833D01*
X152146000Y-97811166D01*
X152188333Y-97641833D01*
X152188333Y-97345500D01*
X152146000Y-97176166D01*
X152061333Y-97091500D01*
X151976666Y-97049166D01*
X151299333Y-97049166D02*
X150749000Y-97049166D01*
X151045333Y-97387833D01*
X150918333Y-97387833D01*
X150833666Y-97430166D01*
X150791333Y-97472500D01*
X150749000Y-97557166D01*
X150749000Y-97768833D01*
X150791333Y-97853500D01*
X150833666Y-97895833D01*
X150918333Y-97938166D01*
X151172333Y-97938166D01*
X151257000Y-97895833D01*
X151299333Y-97853500D01*
X149987000Y-97049166D02*
X150156333Y-97049166D01*
X150241000Y-97091500D01*
X150283333Y-97133833D01*
X150368000Y-97260833D01*
X150410333Y-97430166D01*
X150410333Y-97768833D01*
X150368000Y-97853500D01*
X150325666Y-97895833D01*
X150241000Y-97938166D01*
X150071666Y-97938166D01*
X149987000Y-97895833D01*
X149944666Y-97853500D01*
X149902333Y-97768833D01*
X149902333Y-97557166D01*
X149944666Y-97472500D01*
X149987000Y-97430166D01*
X150071666Y-97387833D01*
X150241000Y-97387833D01*
X150325666Y-97430166D01*
X150368000Y-97472500D01*
X150410333Y-97557166D01*
D10*
X153875619Y-94869000D02*
X153972380Y-94820619D01*
X154117523Y-94820619D01*
X154262666Y-94869000D01*
X154359428Y-94965761D01*
X154407809Y-95062523D01*
X154456190Y-95256047D01*
X154456190Y-95401190D01*
X154407809Y-95594714D01*
X154359428Y-95691476D01*
X154262666Y-95788238D01*
X154117523Y-95836619D01*
X154020761Y-95836619D01*
X153875619Y-95788238D01*
X153827238Y-95739857D01*
X153827238Y-95401190D01*
X154020761Y-95401190D01*
X153391809Y-95836619D02*
X153391809Y-94820619D01*
X153004761Y-94820619D01*
X152908000Y-94869000D01*
X152859619Y-94917380D01*
X152811238Y-95014142D01*
X152811238Y-95159285D01*
X152859619Y-95256047D01*
X152908000Y-95304428D01*
X153004761Y-95352809D01*
X153391809Y-95352809D01*
X152375809Y-95836619D02*
X152375809Y-94820619D01*
X151698476Y-94820619D02*
X151504952Y-94820619D01*
X151408190Y-94869000D01*
X151311428Y-94965761D01*
X151263047Y-95159285D01*
X151263047Y-95497952D01*
X151311428Y-95691476D01*
X151408190Y-95788238D01*
X151504952Y-95836619D01*
X151698476Y-95836619D01*
X151795238Y-95788238D01*
X151892000Y-95691476D01*
X151940380Y-95497952D01*
X151940380Y-95159285D01*
X151892000Y-94965761D01*
X151795238Y-94869000D01*
X151698476Y-94820619D01*
X150924380Y-94820619D02*
X150295428Y-94820619D01*
X150634095Y-95207666D01*
X150488952Y-95207666D01*
X150392190Y-95256047D01*
X150343809Y-95304428D01*
X150295428Y-95401190D01*
X150295428Y-95643095D01*
X150343809Y-95739857D01*
X150392190Y-95788238D01*
X150488952Y-95836619D01*
X150779238Y-95836619D01*
X150876000Y-95788238D01*
X150924380Y-95739857D01*
X149956761Y-94820619D02*
X149279428Y-94820619D01*
X149714857Y-95836619D01*
X154002619Y-91948000D02*
X154099380Y-91899619D01*
X154244523Y-91899619D01*
X154389666Y-91948000D01*
X154486428Y-92044761D01*
X154534809Y-92141523D01*
X154583190Y-92335047D01*
X154583190Y-92480190D01*
X154534809Y-92673714D01*
X154486428Y-92770476D01*
X154389666Y-92867238D01*
X154244523Y-92915619D01*
X154147761Y-92915619D01*
X154002619Y-92867238D01*
X153954238Y-92818857D01*
X153954238Y-92480190D01*
X154147761Y-92480190D01*
X153518809Y-92915619D02*
X153518809Y-91899619D01*
X153131761Y-91899619D01*
X153035000Y-91948000D01*
X152986619Y-91996380D01*
X152938238Y-92093142D01*
X152938238Y-92238285D01*
X152986619Y-92335047D01*
X153035000Y-92383428D01*
X153131761Y-92431809D01*
X153518809Y-92431809D01*
X152502809Y-92915619D02*
X152502809Y-91899619D01*
X151825476Y-91899619D02*
X151631952Y-91899619D01*
X151535190Y-91948000D01*
X151438428Y-92044761D01*
X151390047Y-92238285D01*
X151390047Y-92576952D01*
X151438428Y-92770476D01*
X151535190Y-92867238D01*
X151631952Y-92915619D01*
X151825476Y-92915619D01*
X151922238Y-92867238D01*
X152019000Y-92770476D01*
X152067380Y-92576952D01*
X152067380Y-92238285D01*
X152019000Y-92044761D01*
X151922238Y-91948000D01*
X151825476Y-91899619D01*
X151051380Y-91899619D02*
X150422428Y-91899619D01*
X150761095Y-92286666D01*
X150615952Y-92286666D01*
X150519190Y-92335047D01*
X150470809Y-92383428D01*
X150422428Y-92480190D01*
X150422428Y-92722095D01*
X150470809Y-92818857D01*
X150519190Y-92867238D01*
X150615952Y-92915619D01*
X150906238Y-92915619D01*
X151003000Y-92867238D01*
X151051380Y-92818857D01*
X149841857Y-92335047D02*
X149938619Y-92286666D01*
X149987000Y-92238285D01*
X150035380Y-92141523D01*
X150035380Y-92093142D01*
X149987000Y-91996380D01*
X149938619Y-91948000D01*
X149841857Y-91899619D01*
X149648333Y-91899619D01*
X149551571Y-91948000D01*
X149503190Y-91996380D01*
X149454809Y-92093142D01*
X149454809Y-92141523D01*
X149503190Y-92238285D01*
X149551571Y-92286666D01*
X149648333Y-92335047D01*
X149841857Y-92335047D01*
X149938619Y-92383428D01*
X149987000Y-92431809D01*
X150035380Y-92528571D01*
X150035380Y-92722095D01*
X149987000Y-92818857D01*
X149938619Y-92867238D01*
X149841857Y-92915619D01*
X149648333Y-92915619D01*
X149551571Y-92867238D01*
X149503190Y-92818857D01*
X149454809Y-92722095D01*
X149454809Y-92528571D01*
X149503190Y-92431809D01*
X149551571Y-92383428D01*
X149648333Y-92335047D01*
D14*
X153605895Y-89636600D02*
X153683304Y-89597895D01*
X153799419Y-89597895D01*
X153915533Y-89636600D01*
X153992942Y-89714009D01*
X154031647Y-89791419D01*
X154070352Y-89946238D01*
X154070352Y-90062352D01*
X154031647Y-90217171D01*
X153992942Y-90294580D01*
X153915533Y-90371990D01*
X153799419Y-90410695D01*
X153722009Y-90410695D01*
X153605895Y-90371990D01*
X153567190Y-90333285D01*
X153567190Y-90062352D01*
X153722009Y-90062352D01*
X153218847Y-90410695D02*
X153218847Y-89597895D01*
X152909209Y-89597895D01*
X152831800Y-89636600D01*
X152793095Y-89675304D01*
X152754390Y-89752714D01*
X152754390Y-89868828D01*
X152793095Y-89946238D01*
X152831800Y-89984942D01*
X152909209Y-90023647D01*
X153218847Y-90023647D01*
X152406047Y-90410695D02*
X152406047Y-89597895D01*
X151864180Y-89597895D02*
X151709361Y-89597895D01*
X151631952Y-89636600D01*
X151554542Y-89714009D01*
X151515838Y-89868828D01*
X151515838Y-90139761D01*
X151554542Y-90294580D01*
X151631952Y-90371990D01*
X151709361Y-90410695D01*
X151864180Y-90410695D01*
X151941590Y-90371990D01*
X152019000Y-90294580D01*
X152057704Y-90139761D01*
X152057704Y-89868828D01*
X152019000Y-89714009D01*
X151941590Y-89636600D01*
X151864180Y-89597895D01*
X151244904Y-89597895D02*
X150741742Y-89597895D01*
X151012676Y-89907533D01*
X150896561Y-89907533D01*
X150819152Y-89946238D01*
X150780447Y-89984942D01*
X150741742Y-90062352D01*
X150741742Y-90255876D01*
X150780447Y-90333285D01*
X150819152Y-90371990D01*
X150896561Y-90410695D01*
X151128790Y-90410695D01*
X151206200Y-90371990D01*
X151244904Y-90333285D01*
X150354695Y-90410695D02*
X150199876Y-90410695D01*
X150122466Y-90371990D01*
X150083761Y-90333285D01*
X150006352Y-90217171D01*
X149967647Y-90062352D01*
X149967647Y-89752714D01*
X150006352Y-89675304D01*
X150045057Y-89636600D01*
X150122466Y-89597895D01*
X150277285Y-89597895D01*
X150354695Y-89636600D01*
X150393400Y-89675304D01*
X150432104Y-89752714D01*
X150432104Y-89946238D01*
X150393400Y-90023647D01*
X150354695Y-90062352D01*
X150277285Y-90101057D01*
X150122466Y-90101057D01*
X150045057Y-90062352D01*
X150006352Y-90023647D01*
X149967647Y-89946238D01*
D13*
X153881666Y-86931500D02*
X153966333Y-86889166D01*
X154093333Y-86889166D01*
X154220333Y-86931500D01*
X154305000Y-87016166D01*
X154347333Y-87100833D01*
X154389666Y-87270166D01*
X154389666Y-87397166D01*
X154347333Y-87566500D01*
X154305000Y-87651166D01*
X154220333Y-87735833D01*
X154093333Y-87778166D01*
X154008666Y-87778166D01*
X153881666Y-87735833D01*
X153839333Y-87693500D01*
X153839333Y-87397166D01*
X154008666Y-87397166D01*
X153458333Y-87778166D02*
X153458333Y-86889166D01*
X153119666Y-86889166D01*
X153035000Y-86931500D01*
X152992666Y-86973833D01*
X152950333Y-87058500D01*
X152950333Y-87185500D01*
X152992666Y-87270166D01*
X153035000Y-87312500D01*
X153119666Y-87354833D01*
X153458333Y-87354833D01*
X152569333Y-87778166D02*
X152569333Y-86889166D01*
X151976666Y-86889166D02*
X151807333Y-86889166D01*
X151722666Y-86931500D01*
X151638000Y-87016166D01*
X151595666Y-87185500D01*
X151595666Y-87481833D01*
X151638000Y-87651166D01*
X151722666Y-87735833D01*
X151807333Y-87778166D01*
X151976666Y-87778166D01*
X152061333Y-87735833D01*
X152146000Y-87651166D01*
X152188333Y-87481833D01*
X152188333Y-87185500D01*
X152146000Y-87016166D01*
X152061333Y-86931500D01*
X151976666Y-86889166D01*
X150833666Y-87185500D02*
X150833666Y-87778166D01*
X151045333Y-86846833D02*
X151257000Y-87481833D01*
X150706666Y-87481833D01*
X150198666Y-86889166D02*
X150114000Y-86889166D01*
X150029333Y-86931500D01*
X149987000Y-86973833D01*
X149944666Y-87058500D01*
X149902333Y-87227833D01*
X149902333Y-87439500D01*
X149944666Y-87608833D01*
X149987000Y-87693500D01*
X150029333Y-87735833D01*
X150114000Y-87778166D01*
X150198666Y-87778166D01*
X150283333Y-87735833D01*
X150325666Y-87693500D01*
X150368000Y-87608833D01*
X150410333Y-87439500D01*
X150410333Y-87227833D01*
X150368000Y-87058500D01*
X150325666Y-86973833D01*
X150283333Y-86931500D01*
X150198666Y-86889166D01*
D14*
X154240895Y-84683600D02*
X154318304Y-84644895D01*
X154434419Y-84644895D01*
X154550533Y-84683600D01*
X154627942Y-84761009D01*
X154666647Y-84838419D01*
X154705352Y-84993238D01*
X154705352Y-85109352D01*
X154666647Y-85264171D01*
X154627942Y-85341580D01*
X154550533Y-85418990D01*
X154434419Y-85457695D01*
X154357009Y-85457695D01*
X154240895Y-85418990D01*
X154202190Y-85380285D01*
X154202190Y-85109352D01*
X154357009Y-85109352D01*
X153853847Y-85457695D02*
X153853847Y-84644895D01*
X153544209Y-84644895D01*
X153466800Y-84683600D01*
X153428095Y-84722304D01*
X153389390Y-84799714D01*
X153389390Y-84915828D01*
X153428095Y-84993238D01*
X153466800Y-85031942D01*
X153544209Y-85070647D01*
X153853847Y-85070647D01*
X153041047Y-85457695D02*
X153041047Y-84644895D01*
X152499180Y-84644895D02*
X152344361Y-84644895D01*
X152266952Y-84683600D01*
X152189542Y-84761009D01*
X152150838Y-84915828D01*
X152150838Y-85186761D01*
X152189542Y-85341580D01*
X152266952Y-85418990D01*
X152344361Y-85457695D01*
X152499180Y-85457695D01*
X152576590Y-85418990D01*
X152654000Y-85341580D01*
X152692704Y-85186761D01*
X152692704Y-84915828D01*
X152654000Y-84761009D01*
X152576590Y-84683600D01*
X152499180Y-84644895D01*
X151454152Y-84915828D02*
X151454152Y-85457695D01*
X151647676Y-84606190D02*
X151841200Y-85186761D01*
X151338038Y-85186761D01*
X150602647Y-85457695D02*
X151067104Y-85457695D01*
X150834876Y-85457695D02*
X150834876Y-84644895D01*
X150912285Y-84761009D01*
X150989695Y-84838419D01*
X151067104Y-84877123D01*
D15*
X154028563Y-76492100D02*
X154096296Y-76458233D01*
X154197896Y-76458233D01*
X154299496Y-76492100D01*
X154367230Y-76559833D01*
X154401096Y-76627566D01*
X154434963Y-76763033D01*
X154434963Y-76864633D01*
X154401096Y-77000100D01*
X154367230Y-77067833D01*
X154299496Y-77135566D01*
X154197896Y-77169433D01*
X154130163Y-77169433D01*
X154028563Y-77135566D01*
X153994696Y-77101700D01*
X153994696Y-76864633D01*
X154130163Y-76864633D01*
X153689896Y-77169433D02*
X153689896Y-76458233D01*
X153418963Y-76458233D01*
X153351230Y-76492100D01*
X153317363Y-76525966D01*
X153283496Y-76593700D01*
X153283496Y-76695300D01*
X153317363Y-76763033D01*
X153351230Y-76796900D01*
X153418963Y-76830766D01*
X153689896Y-76830766D01*
X152978696Y-77169433D02*
X152978696Y-76458233D01*
X152504563Y-76458233D02*
X152369096Y-76458233D01*
X152301363Y-76492100D01*
X152233630Y-76559833D01*
X152199763Y-76695300D01*
X152199763Y-76932366D01*
X152233630Y-77067833D01*
X152301363Y-77135566D01*
X152369096Y-77169433D01*
X152504563Y-77169433D01*
X152572296Y-77135566D01*
X152640030Y-77067833D01*
X152673896Y-76932366D01*
X152673896Y-76695300D01*
X152640030Y-76559833D01*
X152572296Y-76492100D01*
X152504563Y-76458233D01*
X151590163Y-76695300D02*
X151590163Y-77169433D01*
X151759496Y-76424366D02*
X151928830Y-76932366D01*
X151488563Y-76932366D01*
X150912830Y-76695300D02*
X150912830Y-77169433D01*
X151082163Y-76424366D02*
X151251496Y-76932366D01*
X150811230Y-76932366D01*
X150032296Y-76424366D02*
X150641896Y-77338766D01*
X154401096Y-77702833D02*
X154401096Y-78278566D01*
X154367230Y-78346300D01*
X154333363Y-78380166D01*
X154265630Y-78414033D01*
X154130163Y-78414033D01*
X154062430Y-78380166D01*
X154028563Y-78346300D01*
X153994696Y-78278566D01*
X153994696Y-77702833D01*
X153520563Y-77702833D02*
X153452830Y-77702833D01*
X153385096Y-77736700D01*
X153351230Y-77770566D01*
X153317363Y-77838300D01*
X153283496Y-77973766D01*
X153283496Y-78143100D01*
X153317363Y-78278566D01*
X153351230Y-78346300D01*
X153385096Y-78380166D01*
X153452830Y-78414033D01*
X153520563Y-78414033D01*
X153588296Y-78380166D01*
X153622163Y-78346300D01*
X153656030Y-78278566D01*
X153689896Y-78143100D01*
X153689896Y-77973766D01*
X153656030Y-77838300D01*
X153622163Y-77770566D01*
X153588296Y-77736700D01*
X153520563Y-77702833D01*
X152572296Y-78414033D02*
X152809363Y-78075366D01*
X152978696Y-78414033D02*
X152978696Y-77702833D01*
X152707763Y-77702833D01*
X152640030Y-77736700D01*
X152606163Y-77770566D01*
X152572296Y-77838300D01*
X152572296Y-77939900D01*
X152606163Y-78007633D01*
X152640030Y-78041500D01*
X152707763Y-78075366D01*
X152978696Y-78075366D01*
X152335230Y-77702833D02*
X151861096Y-78414033D01*
X151861096Y-77702833D02*
X152335230Y-78414033D01*
X151590163Y-78414033D02*
X151590163Y-77702833D01*
X151420830Y-77702833D01*
X151319230Y-77736700D01*
X151251496Y-77804433D01*
X151217630Y-77872166D01*
X151183763Y-78007633D01*
X151183763Y-78109233D01*
X151217630Y-78244700D01*
X151251496Y-78312433D01*
X151319230Y-78380166D01*
X151420830Y-78414033D01*
X151590163Y-78414033D01*
X154028563Y-79032100D02*
X154096296Y-78998233D01*
X154197896Y-78998233D01*
X154299496Y-79032100D01*
X154367230Y-79099833D01*
X154401096Y-79167566D01*
X154434963Y-79303033D01*
X154434963Y-79404633D01*
X154401096Y-79540100D01*
X154367230Y-79607833D01*
X154299496Y-79675566D01*
X154197896Y-79709433D01*
X154130163Y-79709433D01*
X154028563Y-79675566D01*
X153994696Y-79641700D01*
X153994696Y-79404633D01*
X154130163Y-79404633D01*
X153689896Y-79709433D02*
X153689896Y-78998233D01*
X153418963Y-78998233D01*
X153351230Y-79032100D01*
X153317363Y-79065966D01*
X153283496Y-79133700D01*
X153283496Y-79235300D01*
X153317363Y-79303033D01*
X153351230Y-79336900D01*
X153418963Y-79370766D01*
X153689896Y-79370766D01*
X152978696Y-79709433D02*
X152978696Y-78998233D01*
X152504563Y-78998233D02*
X152369096Y-78998233D01*
X152301363Y-79032100D01*
X152233630Y-79099833D01*
X152199763Y-79235300D01*
X152199763Y-79472366D01*
X152233630Y-79607833D01*
X152301363Y-79675566D01*
X152369096Y-79709433D01*
X152504563Y-79709433D01*
X152572296Y-79675566D01*
X152640030Y-79607833D01*
X152673896Y-79472366D01*
X152673896Y-79235300D01*
X152640030Y-79099833D01*
X152572296Y-79032100D01*
X152504563Y-78998233D01*
X151590163Y-79235300D02*
X151590163Y-79709433D01*
X151759496Y-78964366D02*
X151928830Y-79472366D01*
X151488563Y-79472366D01*
X151285363Y-78998233D02*
X150845096Y-78998233D01*
X151082163Y-79269166D01*
X150980563Y-79269166D01*
X150912830Y-79303033D01*
X150878963Y-79336900D01*
X150845096Y-79404633D01*
X150845096Y-79573966D01*
X150878963Y-79641700D01*
X150912830Y-79675566D01*
X150980563Y-79709433D01*
X151183763Y-79709433D01*
X151251496Y-79675566D01*
X151285363Y-79641700D01*
X150032296Y-78964366D02*
X150641896Y-79878766D01*
X154401096Y-80242833D02*
X154401096Y-80818566D01*
X154367230Y-80886300D01*
X154333363Y-80920166D01*
X154265630Y-80954033D01*
X154130163Y-80954033D01*
X154062430Y-80920166D01*
X154028563Y-80886300D01*
X153994696Y-80818566D01*
X153994696Y-80242833D01*
X153520563Y-80242833D02*
X153452830Y-80242833D01*
X153385096Y-80276700D01*
X153351230Y-80310566D01*
X153317363Y-80378300D01*
X153283496Y-80513766D01*
X153283496Y-80683100D01*
X153317363Y-80818566D01*
X153351230Y-80886300D01*
X153385096Y-80920166D01*
X153452830Y-80954033D01*
X153520563Y-80954033D01*
X153588296Y-80920166D01*
X153622163Y-80886300D01*
X153656030Y-80818566D01*
X153689896Y-80683100D01*
X153689896Y-80513766D01*
X153656030Y-80378300D01*
X153622163Y-80310566D01*
X153588296Y-80276700D01*
X153520563Y-80242833D01*
X153080296Y-80242833D02*
X152673896Y-80242833D01*
X152877096Y-80954033D02*
X152877096Y-80242833D01*
X152504563Y-80242833D02*
X152030430Y-80954033D01*
X152030430Y-80242833D02*
X152504563Y-80954033D01*
X151759496Y-80954033D02*
X151759496Y-80242833D01*
X151590163Y-80242833D01*
X151488563Y-80276700D01*
X151420830Y-80344433D01*
X151386963Y-80412166D01*
X151353096Y-80547633D01*
X151353096Y-80649233D01*
X151386963Y-80784700D01*
X151420830Y-80852433D01*
X151488563Y-80920166D01*
X151590163Y-80954033D01*
X151759496Y-80954033D01*
D10*
X148844000Y-117221000D02*
X154940000Y-117221000D01*
X148844000Y-114300000D02*
X155194000Y-114296827D01*
X148844000Y-111760000D02*
X155194000Y-111760000D01*
X148844000Y-109220000D02*
X155194000Y-109220000D01*
X148844000Y-106680000D02*
X155194000Y-106680000D01*
X148844000Y-104140000D02*
X155194000Y-104140000D01*
X148844000Y-101600000D02*
X155194000Y-101600000D01*
X148844000Y-99060000D02*
X155194000Y-99060000D01*
X148844000Y-96520000D02*
X155194000Y-96520000D01*
X148844000Y-93980000D02*
X155194000Y-93980000D01*
X148844000Y-91440000D02*
X155194000Y-91440000D01*
X148844000Y-88900000D02*
X155194000Y-88900000D01*
X148844000Y-86360000D02*
X155194000Y-86360000D01*
X148844000Y-83820000D02*
X155194000Y-83820000D01*
X148844000Y-81280000D02*
X155194000Y-81280000D01*
D12*
X154416880Y-81803875D02*
X154477357Y-81773636D01*
X154568071Y-81773636D01*
X154658785Y-81803875D01*
X154719261Y-81864351D01*
X154749500Y-81924827D01*
X154779738Y-82045779D01*
X154779738Y-82136494D01*
X154749500Y-82257446D01*
X154719261Y-82317922D01*
X154658785Y-82378398D01*
X154568071Y-82408636D01*
X154507595Y-82408636D01*
X154416880Y-82378398D01*
X154386642Y-82348160D01*
X154386642Y-82136494D01*
X154507595Y-82136494D01*
X154114500Y-82408636D02*
X154114500Y-81773636D01*
X153872595Y-81773636D01*
X153812119Y-81803875D01*
X153781880Y-81834113D01*
X153751642Y-81894589D01*
X153751642Y-81985303D01*
X153781880Y-82045779D01*
X153812119Y-82076017D01*
X153872595Y-82106255D01*
X154114500Y-82106255D01*
X153479500Y-82408636D02*
X153479500Y-81773636D01*
X153056166Y-81773636D02*
X152935214Y-81773636D01*
X152874738Y-81803875D01*
X152814261Y-81864351D01*
X152784023Y-81985303D01*
X152784023Y-82196970D01*
X152814261Y-82317922D01*
X152874738Y-82378398D01*
X152935214Y-82408636D01*
X153056166Y-82408636D01*
X153116642Y-82378398D01*
X153177119Y-82317922D01*
X153207357Y-82196970D01*
X153207357Y-81985303D01*
X153177119Y-81864351D01*
X153116642Y-81803875D01*
X153056166Y-81773636D01*
X152239738Y-81985303D02*
X152239738Y-82408636D01*
X152390928Y-81743398D02*
X152542119Y-82196970D01*
X152149023Y-82196970D01*
X151937357Y-81834113D02*
X151907119Y-81803875D01*
X151846642Y-81773636D01*
X151695452Y-81773636D01*
X151634976Y-81803875D01*
X151604738Y-81834113D01*
X151574500Y-81894589D01*
X151574500Y-81955065D01*
X151604738Y-82045779D01*
X151967595Y-82408636D01*
X151574500Y-82408636D01*
X150848785Y-81743398D02*
X151393071Y-82559827D01*
X150637119Y-81773636D02*
X150637119Y-82287684D01*
X150606880Y-82348160D01*
X150576642Y-82378398D01*
X150516166Y-82408636D01*
X150395214Y-82408636D01*
X150334738Y-82378398D01*
X150304500Y-82348160D01*
X150274261Y-82287684D01*
X150274261Y-81773636D01*
X150002119Y-82378398D02*
X149911404Y-82408636D01*
X149760214Y-82408636D01*
X149699738Y-82378398D01*
X149669500Y-82348160D01*
X149639261Y-82287684D01*
X149639261Y-82227208D01*
X149669500Y-82166732D01*
X149699738Y-82136494D01*
X149760214Y-82106255D01*
X149881166Y-82076017D01*
X149941642Y-82045779D01*
X149971880Y-82015541D01*
X150002119Y-81955065D01*
X150002119Y-81894589D01*
X149971880Y-81834113D01*
X149941642Y-81803875D01*
X149881166Y-81773636D01*
X149729976Y-81773636D01*
X149639261Y-81803875D01*
X149155452Y-82076017D02*
X149064738Y-82106255D01*
X149034500Y-82136494D01*
X149004261Y-82196970D01*
X149004261Y-82287684D01*
X149034500Y-82348160D01*
X149064738Y-82378398D01*
X149125214Y-82408636D01*
X149367119Y-82408636D01*
X149367119Y-81773636D01*
X149155452Y-81773636D01*
X149094976Y-81803875D01*
X149064738Y-81834113D01*
X149034500Y-81894589D01*
X149034500Y-81955065D01*
X149064738Y-82015541D01*
X149094976Y-82045779D01*
X149155452Y-82076017D01*
X149367119Y-82076017D01*
X154447119Y-83277982D02*
X153963309Y-83277982D01*
X153751642Y-82884886D02*
X153539976Y-83519886D01*
X153328309Y-82884886D01*
X152904976Y-83187267D02*
X152814261Y-83217505D01*
X152784023Y-83247744D01*
X152753785Y-83308220D01*
X152753785Y-83398934D01*
X152784023Y-83459410D01*
X152814261Y-83489648D01*
X152874738Y-83519886D01*
X153116642Y-83519886D01*
X153116642Y-82884886D01*
X152904976Y-82884886D01*
X152844500Y-82915125D01*
X152814261Y-82945363D01*
X152784023Y-83005839D01*
X152784023Y-83066315D01*
X152814261Y-83126791D01*
X152844500Y-83157029D01*
X152904976Y-83187267D01*
X153116642Y-83187267D01*
X152481642Y-82884886D02*
X152481642Y-83398934D01*
X152451404Y-83459410D01*
X152421166Y-83489648D01*
X152360690Y-83519886D01*
X152239738Y-83519886D01*
X152179261Y-83489648D01*
X152149023Y-83459410D01*
X152118785Y-83398934D01*
X152118785Y-82884886D01*
X151846642Y-83489648D02*
X151755928Y-83519886D01*
X151604738Y-83519886D01*
X151544261Y-83489648D01*
X151514023Y-83459410D01*
X151483785Y-83398934D01*
X151483785Y-83338458D01*
X151514023Y-83277982D01*
X151544261Y-83247744D01*
X151604738Y-83217505D01*
X151725690Y-83187267D01*
X151786166Y-83157029D01*
X151816404Y-83126791D01*
X151846642Y-83066315D01*
X151846642Y-83005839D01*
X151816404Y-82945363D01*
X151786166Y-82915125D01*
X151725690Y-82884886D01*
X151574500Y-82884886D01*
X151483785Y-82915125D01*
X151362833Y-83580363D02*
X150879023Y-83580363D01*
X150727833Y-83519886D02*
X150727833Y-82884886D01*
X150576642Y-82884886D01*
X150485928Y-82915125D01*
X150425452Y-82975601D01*
X150395214Y-83036077D01*
X150364976Y-83157029D01*
X150364976Y-83247744D01*
X150395214Y-83368696D01*
X150425452Y-83429172D01*
X150485928Y-83489648D01*
X150576642Y-83519886D01*
X150727833Y-83519886D01*
X150092833Y-83187267D02*
X149881166Y-83187267D01*
X149790452Y-83519886D02*
X150092833Y-83519886D01*
X150092833Y-82884886D01*
X149790452Y-82884886D01*
X149609023Y-82884886D02*
X149246166Y-82884886D01*
X149427595Y-83519886D02*
X149427595Y-82884886D01*
D10*
X148844000Y-78740000D02*
X155194000Y-78740000D01*
D15*
X153653066Y-73952100D02*
X153720800Y-73918233D01*
X153822400Y-73918233D01*
X153924000Y-73952100D01*
X153991733Y-74019833D01*
X154025600Y-74087566D01*
X154059466Y-74223033D01*
X154059466Y-74324633D01*
X154025600Y-74460100D01*
X153991733Y-74527833D01*
X153924000Y-74595566D01*
X153822400Y-74629433D01*
X153754666Y-74629433D01*
X153653066Y-74595566D01*
X153619200Y-74561700D01*
X153619200Y-74324633D01*
X153754666Y-74324633D01*
X153314400Y-74629433D02*
X153314400Y-73918233D01*
X153043466Y-73918233D01*
X152975733Y-73952100D01*
X152941866Y-73985966D01*
X152908000Y-74053700D01*
X152908000Y-74155300D01*
X152941866Y-74223033D01*
X152975733Y-74256900D01*
X153043466Y-74290766D01*
X153314400Y-74290766D01*
X152603200Y-74629433D02*
X152603200Y-73918233D01*
X152129066Y-73918233D02*
X151993600Y-73918233D01*
X151925866Y-73952100D01*
X151858133Y-74019833D01*
X151824266Y-74155300D01*
X151824266Y-74392366D01*
X151858133Y-74527833D01*
X151925866Y-74595566D01*
X151993600Y-74629433D01*
X152129066Y-74629433D01*
X152196800Y-74595566D01*
X152264533Y-74527833D01*
X152298400Y-74392366D01*
X152298400Y-74155300D01*
X152264533Y-74019833D01*
X152196800Y-73952100D01*
X152129066Y-73918233D01*
X151214666Y-74155300D02*
X151214666Y-74629433D01*
X151384000Y-73884366D02*
X151553333Y-74392366D01*
X151113066Y-74392366D01*
X150503466Y-73918233D02*
X150842133Y-73918233D01*
X150876000Y-74256900D01*
X150842133Y-74223033D01*
X150774400Y-74189166D01*
X150605066Y-74189166D01*
X150537333Y-74223033D01*
X150503466Y-74256900D01*
X150469600Y-74324633D01*
X150469600Y-74493966D01*
X150503466Y-74561700D01*
X150537333Y-74595566D01*
X150605066Y-74629433D01*
X150774400Y-74629433D01*
X150842133Y-74595566D01*
X150876000Y-74561700D01*
X149656800Y-73884366D02*
X150266400Y-74798766D01*
X154245733Y-75162833D02*
X154245733Y-75738566D01*
X154211866Y-75806300D01*
X154178000Y-75840166D01*
X154110266Y-75874033D01*
X153974800Y-75874033D01*
X153907066Y-75840166D01*
X153873200Y-75806300D01*
X153839333Y-75738566D01*
X153839333Y-75162833D01*
X153534533Y-75840166D02*
X153432933Y-75874033D01*
X153263600Y-75874033D01*
X153195866Y-75840166D01*
X153162000Y-75806300D01*
X153128133Y-75738566D01*
X153128133Y-75670833D01*
X153162000Y-75603100D01*
X153195866Y-75569233D01*
X153263600Y-75535366D01*
X153399066Y-75501500D01*
X153466800Y-75467633D01*
X153500666Y-75433766D01*
X153534533Y-75366033D01*
X153534533Y-75298300D01*
X153500666Y-75230566D01*
X153466800Y-75196700D01*
X153399066Y-75162833D01*
X153229733Y-75162833D01*
X153128133Y-75196700D01*
X152586266Y-75501500D02*
X152484666Y-75535366D01*
X152450800Y-75569233D01*
X152416933Y-75636966D01*
X152416933Y-75738566D01*
X152450800Y-75806300D01*
X152484666Y-75840166D01*
X152552400Y-75874033D01*
X152823333Y-75874033D01*
X152823333Y-75162833D01*
X152586266Y-75162833D01*
X152518533Y-75196700D01*
X152484666Y-75230566D01*
X152450800Y-75298300D01*
X152450800Y-75366033D01*
X152484666Y-75433766D01*
X152518533Y-75467633D01*
X152586266Y-75501500D01*
X152823333Y-75501500D01*
X152112133Y-75603100D02*
X151570266Y-75603100D01*
X151231600Y-75874033D02*
X151231600Y-75162833D01*
X151062266Y-75162833D01*
X150960666Y-75196700D01*
X150892933Y-75264433D01*
X150859066Y-75332166D01*
X150825200Y-75467633D01*
X150825200Y-75569233D01*
X150859066Y-75704700D01*
X150892933Y-75772433D01*
X150960666Y-75840166D01*
X151062266Y-75874033D01*
X151231600Y-75874033D01*
X150114000Y-75874033D02*
X150351066Y-75535366D01*
X150520400Y-75874033D02*
X150520400Y-75162833D01*
X150249466Y-75162833D01*
X150181733Y-75196700D01*
X150147866Y-75230566D01*
X150114000Y-75298300D01*
X150114000Y-75399900D01*
X150147866Y-75467633D01*
X150181733Y-75501500D01*
X150249466Y-75535366D01*
X150520400Y-75535366D01*
X149910800Y-75162833D02*
X149673733Y-75874033D01*
X149436666Y-75162833D01*
D10*
X148844000Y-76200000D02*
X155194000Y-76200000D01*
X148844000Y-97536000D02*
X148844000Y-66040000D01*
X148844000Y-73660000D02*
X155194000Y-73660000D01*
X131826000Y-73660000D02*
X138176000Y-73660000D01*
X131826000Y-76200000D02*
X138176000Y-76200000D01*
X131826000Y-78740000D02*
X141224000Y-78740000D01*
X132080000Y-81026000D02*
X133731000Y-81026000D01*
X131826000Y-83820000D02*
X138176000Y-83820000D01*
X131826000Y-86360000D02*
X138176000Y-86360000D01*
X131826000Y-88900000D02*
X138176000Y-88900000D01*
X131826000Y-91440000D02*
X138176000Y-91440000D01*
X131826000Y-93980000D02*
X138176000Y-93980000D01*
X131826000Y-96520000D02*
X138176000Y-96520000D01*
X131826000Y-99060000D02*
X135255000Y-99060000D01*
X131826000Y-106680000D02*
X138176000Y-106680000D01*
X138176000Y-100203000D02*
X138176000Y-82169000D01*
X138176000Y-109220000D02*
X138176000Y-119253000D01*
X131826000Y-116840000D02*
X138176000Y-116840000D01*
X131826000Y-109220000D02*
X138176000Y-109220000D01*
X131826000Y-111760000D02*
X138176000Y-111760000D01*
X131826000Y-114300000D02*
X138176000Y-114300000D01*
X136222619Y-117475000D02*
X136343571Y-117414523D01*
X136525000Y-117414523D01*
X136706428Y-117475000D01*
X136827380Y-117595952D01*
X136887857Y-117716904D01*
X136948333Y-117958809D01*
X136948333Y-118140238D01*
X136887857Y-118382142D01*
X136827380Y-118503095D01*
X136706428Y-118624047D01*
X136525000Y-118684523D01*
X136404047Y-118684523D01*
X136222619Y-118624047D01*
X136162142Y-118563571D01*
X136162142Y-118140238D01*
X136404047Y-118140238D01*
X135617857Y-118684523D02*
X135617857Y-117414523D01*
X134892142Y-118684523D01*
X134892142Y-117414523D01*
X134287380Y-118684523D02*
X134287380Y-117414523D01*
X133985000Y-117414523D01*
X133803571Y-117475000D01*
X133682619Y-117595952D01*
X133622142Y-117716904D01*
X133561666Y-117958809D01*
X133561666Y-118140238D01*
X133622142Y-118382142D01*
X133682619Y-118503095D01*
X133803571Y-118624047D01*
X133985000Y-118684523D01*
X134287380Y-118684523D01*
X137111619Y-107315000D02*
X137208380Y-107266619D01*
X137353523Y-107266619D01*
X137498666Y-107315000D01*
X137595428Y-107411761D01*
X137643809Y-107508523D01*
X137692190Y-107702047D01*
X137692190Y-107847190D01*
X137643809Y-108040714D01*
X137595428Y-108137476D01*
X137498666Y-108234238D01*
X137353523Y-108282619D01*
X137256761Y-108282619D01*
X137111619Y-108234238D01*
X137063238Y-108185857D01*
X137063238Y-107847190D01*
X137256761Y-107847190D01*
X136627809Y-108282619D02*
X136627809Y-107266619D01*
X136240761Y-107266619D01*
X136144000Y-107315000D01*
X136095619Y-107363380D01*
X136047238Y-107460142D01*
X136047238Y-107605285D01*
X136095619Y-107702047D01*
X136144000Y-107750428D01*
X136240761Y-107798809D01*
X136627809Y-107798809D01*
X135611809Y-108282619D02*
X135611809Y-107266619D01*
X134934476Y-107266619D02*
X134740952Y-107266619D01*
X134644190Y-107315000D01*
X134547428Y-107411761D01*
X134499047Y-107605285D01*
X134499047Y-107943952D01*
X134547428Y-108137476D01*
X134644190Y-108234238D01*
X134740952Y-108282619D01*
X134934476Y-108282619D01*
X135031238Y-108234238D01*
X135128000Y-108137476D01*
X135176380Y-107943952D01*
X135176380Y-107605285D01*
X135128000Y-107411761D01*
X135031238Y-107315000D01*
X134934476Y-107266619D01*
X133531428Y-108282619D02*
X134112000Y-108282619D01*
X133821714Y-108282619D02*
X133821714Y-107266619D01*
X133918476Y-107411761D01*
X134015238Y-107508523D01*
X134112000Y-107556904D01*
X132612190Y-107266619D02*
X133096000Y-107266619D01*
X133144380Y-107750428D01*
X133096000Y-107702047D01*
X132999238Y-107653666D01*
X132757333Y-107653666D01*
X132660571Y-107702047D01*
X132612190Y-107750428D01*
X132563809Y-107847190D01*
X132563809Y-108089095D01*
X132612190Y-108185857D01*
X132660571Y-108234238D01*
X132757333Y-108282619D01*
X132999238Y-108282619D01*
X133096000Y-108234238D01*
X133144380Y-108185857D01*
X136881809Y-92456000D02*
X136978571Y-92407619D01*
X137123714Y-92407619D01*
X137268857Y-92456000D01*
X137365619Y-92552761D01*
X137414000Y-92649523D01*
X137462380Y-92843047D01*
X137462380Y-92988190D01*
X137414000Y-93181714D01*
X137365619Y-93278476D01*
X137268857Y-93375238D01*
X137123714Y-93423619D01*
X137026952Y-93423619D01*
X136881809Y-93375238D01*
X136833428Y-93326857D01*
X136833428Y-92988190D01*
X137026952Y-92988190D01*
X136398000Y-93423619D02*
X136398000Y-92407619D01*
X136010952Y-92407619D01*
X135914190Y-92456000D01*
X135865809Y-92504380D01*
X135817428Y-92601142D01*
X135817428Y-92746285D01*
X135865809Y-92843047D01*
X135914190Y-92891428D01*
X136010952Y-92939809D01*
X136398000Y-92939809D01*
X135382000Y-93423619D02*
X135382000Y-92407619D01*
X134704666Y-92407619D02*
X134511142Y-92407619D01*
X134414380Y-92456000D01*
X134317619Y-92552761D01*
X134269238Y-92746285D01*
X134269238Y-93084952D01*
X134317619Y-93278476D01*
X134414380Y-93375238D01*
X134511142Y-93423619D01*
X134704666Y-93423619D01*
X134801428Y-93375238D01*
X134898190Y-93278476D01*
X134946571Y-93084952D01*
X134946571Y-92746285D01*
X134898190Y-92552761D01*
X134801428Y-92456000D01*
X134704666Y-92407619D01*
X133785428Y-93423619D02*
X133591904Y-93423619D01*
X133495142Y-93375238D01*
X133446761Y-93326857D01*
X133350000Y-93181714D01*
X133301619Y-92988190D01*
X133301619Y-92601142D01*
X133350000Y-92504380D01*
X133398380Y-92456000D01*
X133495142Y-92407619D01*
X133688666Y-92407619D01*
X133785428Y-92456000D01*
X133833809Y-92504380D01*
X133882190Y-92601142D01*
X133882190Y-92843047D01*
X133833809Y-92939809D01*
X133785428Y-92988190D01*
X133688666Y-93036571D01*
X133495142Y-93036571D01*
X133398380Y-92988190D01*
X133350000Y-92939809D01*
X133301619Y-92843047D01*
X153936095Y-66802000D02*
X154032857Y-66753619D01*
X154178000Y-66753619D01*
X154323142Y-66802000D01*
X154419904Y-66898761D01*
X154468285Y-66995523D01*
X154516666Y-67189047D01*
X154516666Y-67334190D01*
X154468285Y-67527714D01*
X154419904Y-67624476D01*
X154323142Y-67721238D01*
X154178000Y-67769619D01*
X154081238Y-67769619D01*
X153936095Y-67721238D01*
X153887714Y-67672857D01*
X153887714Y-67334190D01*
X154081238Y-67334190D01*
X153452285Y-67769619D02*
X153452285Y-66753619D01*
X152871714Y-67769619D01*
X152871714Y-66753619D01*
X152387904Y-67769619D02*
X152387904Y-66753619D01*
X152146000Y-66753619D01*
X152000857Y-66802000D01*
X151904095Y-66898761D01*
X151855714Y-66995523D01*
X151807333Y-67189047D01*
X151807333Y-67334190D01*
X151855714Y-67527714D01*
X151904095Y-67624476D01*
X152000857Y-67721238D01*
X152146000Y-67769619D01*
X152387904Y-67769619D01*
X147773571Y-109891285D02*
X147773571Y-109552619D01*
X147241380Y-109407476D02*
X147241380Y-109891285D01*
X148257380Y-109891285D01*
X148257380Y-109407476D01*
X147289761Y-109020428D02*
X147241380Y-108875285D01*
X147241380Y-108633380D01*
X147289761Y-108536619D01*
X147338142Y-108488238D01*
X147434904Y-108439857D01*
X147531666Y-108439857D01*
X147628428Y-108488238D01*
X147676809Y-108536619D01*
X147725190Y-108633380D01*
X147773571Y-108826904D01*
X147821952Y-108923666D01*
X147870333Y-108972047D01*
X147967095Y-109020428D01*
X148063857Y-109020428D01*
X148160619Y-108972047D01*
X148209000Y-108923666D01*
X148257380Y-108826904D01*
X148257380Y-108585000D01*
X148209000Y-108439857D01*
X147241380Y-108004428D02*
X148257380Y-108004428D01*
X148257380Y-107617380D01*
X148209000Y-107520619D01*
X148160619Y-107472238D01*
X148063857Y-107423857D01*
X147918714Y-107423857D01*
X147821952Y-107472238D01*
X147773571Y-107520619D01*
X147725190Y-107617380D01*
X147725190Y-108004428D01*
X148257380Y-107085190D02*
X148257380Y-106456238D01*
X147870333Y-106794904D01*
X147870333Y-106649761D01*
X147821952Y-106553000D01*
X147773571Y-106504619D01*
X147676809Y-106456238D01*
X147434904Y-106456238D01*
X147338142Y-106504619D01*
X147289761Y-106553000D01*
X147241380Y-106649761D01*
X147241380Y-106940047D01*
X147289761Y-107036809D01*
X147338142Y-107085190D01*
X148160619Y-106069190D02*
X148209000Y-106020809D01*
X148257380Y-105924047D01*
X148257380Y-105682142D01*
X148209000Y-105585380D01*
X148160619Y-105537000D01*
X148063857Y-105488619D01*
X147967095Y-105488619D01*
X147821952Y-105537000D01*
X147241380Y-106117571D01*
X147241380Y-105488619D01*
X147628428Y-105053190D02*
X147628428Y-104279095D01*
X147289761Y-103843666D02*
X147241380Y-103698523D01*
X147241380Y-103456619D01*
X147289761Y-103359857D01*
X147338142Y-103311476D01*
X147434904Y-103263095D01*
X147531666Y-103263095D01*
X147628428Y-103311476D01*
X147676809Y-103359857D01*
X147725190Y-103456619D01*
X147773571Y-103650142D01*
X147821952Y-103746904D01*
X147870333Y-103795285D01*
X147967095Y-103843666D01*
X148063857Y-103843666D01*
X148160619Y-103795285D01*
X148209000Y-103746904D01*
X148257380Y-103650142D01*
X148257380Y-103408238D01*
X148209000Y-103263095D01*
X148160619Y-102876047D02*
X148209000Y-102827666D01*
X148257380Y-102730904D01*
X148257380Y-102489000D01*
X148209000Y-102392238D01*
X148160619Y-102343857D01*
X148063857Y-102295476D01*
X147967095Y-102295476D01*
X147821952Y-102343857D01*
X147241380Y-102924428D01*
X147241380Y-102295476D01*
X147628428Y-101860047D02*
X147628428Y-101085952D01*
X147241380Y-100602142D02*
X148257380Y-100602142D01*
X148257380Y-100360238D01*
X148209000Y-100215095D01*
X148112238Y-100118333D01*
X148015476Y-100069952D01*
X147821952Y-100021571D01*
X147676809Y-100021571D01*
X147483285Y-100069952D01*
X147386523Y-100118333D01*
X147289761Y-100215095D01*
X147241380Y-100360238D01*
X147241380Y-100602142D01*
X147289761Y-99199095D02*
X147241380Y-99295857D01*
X147241380Y-99489380D01*
X147289761Y-99586142D01*
X147386523Y-99634523D01*
X147773571Y-99634523D01*
X147870333Y-99586142D01*
X147918714Y-99489380D01*
X147918714Y-99295857D01*
X147870333Y-99199095D01*
X147773571Y-99150714D01*
X147676809Y-99150714D01*
X147580047Y-99634523D01*
X147918714Y-98812047D02*
X147241380Y-98570142D01*
X147918714Y-98328238D01*
X147241380Y-97941190D02*
X148257380Y-97941190D01*
X147241380Y-97360619D02*
X147821952Y-97796047D01*
X148257380Y-97360619D02*
X147676809Y-97941190D01*
X147241380Y-96925190D02*
X147918714Y-96925190D01*
X148257380Y-96925190D02*
X148209000Y-96973571D01*
X148160619Y-96925190D01*
X148209000Y-96876809D01*
X148257380Y-96925190D01*
X148160619Y-96925190D01*
X147918714Y-96586523D02*
X147918714Y-96199476D01*
X148257380Y-96441380D02*
X147386523Y-96441380D01*
X147289761Y-96393000D01*
X147241380Y-96296238D01*
X147241380Y-96199476D01*
X147628428Y-95860809D02*
X147628428Y-95086714D01*
X148257380Y-94602904D02*
X147434904Y-94602904D01*
X147338142Y-94554523D01*
X147289761Y-94506142D01*
X147241380Y-94409380D01*
X147241380Y-94215857D01*
X147289761Y-94119095D01*
X147338142Y-94070714D01*
X147434904Y-94022333D01*
X148257380Y-94022333D01*
X147289761Y-93586904D02*
X147241380Y-93441761D01*
X147241380Y-93199857D01*
X147289761Y-93103095D01*
X147338142Y-93054714D01*
X147434904Y-93006333D01*
X147531666Y-93006333D01*
X147628428Y-93054714D01*
X147676809Y-93103095D01*
X147725190Y-93199857D01*
X147773571Y-93393380D01*
X147821952Y-93490142D01*
X147870333Y-93538523D01*
X147967095Y-93586904D01*
X148063857Y-93586904D01*
X148160619Y-93538523D01*
X148209000Y-93490142D01*
X148257380Y-93393380D01*
X148257380Y-93151476D01*
X148209000Y-93006333D01*
X147773571Y-92232238D02*
X147725190Y-92087095D01*
X147676809Y-92038714D01*
X147580047Y-91990333D01*
X147434904Y-91990333D01*
X147338142Y-92038714D01*
X147289761Y-92087095D01*
X147241380Y-92183857D01*
X147241380Y-92570904D01*
X148257380Y-92570904D01*
X148257380Y-92232238D01*
X148209000Y-92135476D01*
X148160619Y-92087095D01*
X148063857Y-92038714D01*
X147967095Y-92038714D01*
X147870333Y-92087095D01*
X147821952Y-92135476D01*
X147773571Y-92232238D01*
X147773571Y-92570904D01*
X157480000Y-106934000D02*
X157226000Y-106680000D01*
X155194000Y-106680000D02*
X154940000Y-106934000D01*
X154940000Y-106934000D02*
X154940000Y-108966000D01*
X154940000Y-111506000D02*
X155194000Y-111760000D01*
X157480000Y-108966000D02*
X157480000Y-106934000D01*
X157226000Y-111760000D02*
X157480000Y-111506000D01*
X154940000Y-109474000D02*
X154940000Y-111506000D01*
X155194000Y-109220000D02*
X154940000Y-109474000D01*
X157480000Y-111506000D02*
X157480000Y-109474000D01*
X157226000Y-109220000D02*
X157480000Y-108966000D01*
X157480000Y-109474000D02*
X157226000Y-109220000D01*
X154940000Y-108966000D02*
X155194000Y-109220000D01*
X154940000Y-111506000D02*
X155194000Y-111760000D01*
X157226000Y-111760000D02*
X157480000Y-111506000D01*
X157480000Y-111506000D02*
X157480000Y-109474000D01*
X154940000Y-109474000D02*
X154940000Y-111506000D01*
X155194000Y-109220000D02*
X154940000Y-109474000D01*
X157480000Y-109474000D02*
X157226000Y-109220000D01*
X157480000Y-114554000D02*
X157226000Y-114300000D01*
X155194000Y-114300000D02*
X154940000Y-114554000D01*
X154940000Y-114554000D02*
X154940000Y-116586000D01*
X157480000Y-116586000D02*
X157480000Y-114554000D01*
X157226000Y-116840000D02*
X157480000Y-116586000D01*
X154940000Y-116586000D02*
X155194000Y-116840000D01*
X154940000Y-114046000D02*
X155194000Y-114300000D01*
X157480000Y-114554000D02*
X157226000Y-114300000D01*
X157226000Y-114300000D02*
X157480000Y-114046000D01*
X157480000Y-116586000D02*
X157480000Y-114554000D01*
X155194000Y-114300000D02*
X154940000Y-114554000D01*
X154940000Y-114554000D02*
X154940000Y-116586000D01*
X157226000Y-116840000D02*
X157480000Y-116586000D01*
X157480000Y-114046000D02*
X157480000Y-112014000D01*
X154940000Y-116586000D02*
X155194000Y-116840000D01*
X154940000Y-112014000D02*
X154940000Y-114046000D01*
X155194000Y-111760000D02*
X154940000Y-112014000D01*
X157480000Y-112014000D02*
X157226000Y-111760000D01*
X157480000Y-101854000D02*
X157226000Y-101600000D01*
X155194000Y-101600000D02*
X154940000Y-101854000D01*
X154940000Y-101854000D02*
X154940000Y-103886000D01*
X154940000Y-106426000D02*
X155194000Y-106680000D01*
X157480000Y-103886000D02*
X157480000Y-101854000D01*
X157226000Y-106680000D02*
X157480000Y-106426000D01*
X154940000Y-104394000D02*
X154940000Y-106426000D01*
X155194000Y-104140000D02*
X154940000Y-104394000D01*
X157480000Y-106426000D02*
X157480000Y-104394000D01*
X157226000Y-104140000D02*
X157480000Y-103886000D01*
X157480000Y-104394000D02*
X157226000Y-104140000D01*
X154940000Y-103886000D02*
X155194000Y-104140000D01*
X154940000Y-106426000D02*
X155194000Y-106680000D01*
X157226000Y-106680000D02*
X157480000Y-106426000D01*
X157480000Y-106426000D02*
X157480000Y-104394000D01*
X154940000Y-104394000D02*
X154940000Y-106426000D01*
X155194000Y-104140000D02*
X154940000Y-104394000D01*
X157480000Y-104394000D02*
X157226000Y-104140000D01*
X157480000Y-99314000D02*
X157226000Y-99060000D01*
X155194000Y-99060000D02*
X154940000Y-99314000D01*
X154940000Y-99314000D02*
X154940000Y-101346000D01*
X157480000Y-101346000D02*
X157480000Y-99314000D01*
X157226000Y-101600000D02*
X157480000Y-101346000D01*
X154940000Y-101346000D02*
X155194000Y-101600000D01*
X154940000Y-98806000D02*
X155194000Y-99060000D01*
X157480000Y-99314000D02*
X157226000Y-99060000D01*
X157226000Y-99060000D02*
X157480000Y-98806000D01*
X157480000Y-101346000D02*
X157480000Y-99314000D01*
X155194000Y-99060000D02*
X154940000Y-99314000D01*
X154940000Y-99314000D02*
X154940000Y-101346000D01*
X157226000Y-101600000D02*
X157480000Y-101346000D01*
X157480000Y-98806000D02*
X157480000Y-96774000D01*
X154940000Y-101346000D02*
X155194000Y-101600000D01*
X154940000Y-96774000D02*
X154940000Y-98806000D01*
X155194000Y-96520000D02*
X154940000Y-96774000D01*
X157480000Y-96774000D02*
X157226000Y-96520000D01*
X157480000Y-91694000D02*
X157226000Y-91440000D01*
X155194000Y-91440000D02*
X154940000Y-91694000D01*
X154940000Y-91694000D02*
X154940000Y-93726000D01*
X154940000Y-96266000D02*
X155194000Y-96520000D01*
X157480000Y-93726000D02*
X157480000Y-91694000D01*
X157226000Y-96520000D02*
X157480000Y-96266000D01*
X154940000Y-94234000D02*
X154940000Y-96266000D01*
X155194000Y-93980000D02*
X154940000Y-94234000D01*
X157480000Y-96266000D02*
X157480000Y-94234000D01*
X157226000Y-93980000D02*
X157480000Y-93726000D01*
X157480000Y-94234000D02*
X157226000Y-93980000D01*
X154940000Y-93726000D02*
X155194000Y-93980000D01*
X154940000Y-96266000D02*
X155194000Y-96520000D01*
X157226000Y-96520000D02*
X157480000Y-96266000D01*
X157480000Y-96266000D02*
X157480000Y-94234000D01*
X154940000Y-94234000D02*
X154940000Y-96266000D01*
X155194000Y-93980000D02*
X154940000Y-94234000D01*
X157480000Y-94234000D02*
X157226000Y-93980000D01*
X157480000Y-89154000D02*
X157226000Y-88900000D01*
X155194000Y-88900000D02*
X154940000Y-89154000D01*
X154940000Y-89154000D02*
X154940000Y-91186000D01*
X157480000Y-91186000D02*
X157480000Y-89154000D01*
X157226000Y-91440000D02*
X157480000Y-91186000D01*
X154940000Y-91186000D02*
X155194000Y-91440000D01*
X154940000Y-88646000D02*
X155194000Y-88900000D01*
X157480000Y-89154000D02*
X157226000Y-88900000D01*
X157226000Y-88900000D02*
X157480000Y-88646000D01*
X157480000Y-91186000D02*
X157480000Y-89154000D01*
X155194000Y-88900000D02*
X154940000Y-89154000D01*
X154940000Y-89154000D02*
X154940000Y-91186000D01*
X157226000Y-91440000D02*
X157480000Y-91186000D01*
X157480000Y-88646000D02*
X157480000Y-86614000D01*
X154940000Y-91186000D02*
X155194000Y-91440000D01*
X154940000Y-86614000D02*
X154940000Y-88646000D01*
X155194000Y-86360000D02*
X154940000Y-86614000D01*
X157480000Y-86614000D02*
X157226000Y-86360000D01*
X157480000Y-81534000D02*
X157226000Y-81280000D01*
X155194000Y-81280000D02*
X154940000Y-81534000D01*
X154940000Y-81534000D02*
X154940000Y-83566000D01*
X154940000Y-86106000D02*
X155194000Y-86360000D01*
X157480000Y-83566000D02*
X157480000Y-81534000D01*
X157226000Y-86360000D02*
X157480000Y-86106000D01*
X154940000Y-84074000D02*
X154940000Y-86106000D01*
X155194000Y-83820000D02*
X154940000Y-84074000D01*
X157480000Y-86106000D02*
X157480000Y-84074000D01*
X157226000Y-83820000D02*
X157480000Y-83566000D01*
X157480000Y-84074000D02*
X157226000Y-83820000D01*
X154940000Y-83566000D02*
X155194000Y-83820000D01*
X154940000Y-86106000D02*
X155194000Y-86360000D01*
X157226000Y-86360000D02*
X157480000Y-86106000D01*
X157480000Y-86106000D02*
X157480000Y-84074000D01*
X154940000Y-84074000D02*
X154940000Y-86106000D01*
X155194000Y-83820000D02*
X154940000Y-84074000D01*
X157480000Y-84074000D02*
X157226000Y-83820000D01*
X157480000Y-78994000D02*
X157226000Y-78740000D01*
X155194000Y-78740000D02*
X154940000Y-78994000D01*
X154940000Y-78994000D02*
X154940000Y-81026000D01*
X157480000Y-81026000D02*
X157480000Y-78994000D01*
X157226000Y-81280000D02*
X157480000Y-81026000D01*
X154940000Y-81026000D02*
X155194000Y-81280000D01*
X154940000Y-78486000D02*
X155194000Y-78740000D01*
X157480000Y-78994000D02*
X157226000Y-78740000D01*
X157226000Y-78740000D02*
X157480000Y-78486000D01*
X157480000Y-81026000D02*
X157480000Y-78994000D01*
X155194000Y-78740000D02*
X154940000Y-78994000D01*
X154940000Y-78994000D02*
X154940000Y-81026000D01*
X157226000Y-81280000D02*
X157480000Y-81026000D01*
X157480000Y-73914000D02*
X157226000Y-73660000D01*
X157480000Y-78486000D02*
X157480000Y-76454000D01*
X154940000Y-81026000D02*
X155194000Y-81280000D01*
X154940000Y-76454000D02*
X154940000Y-78486000D01*
X155194000Y-76200000D02*
X154940000Y-76454000D01*
X154940000Y-66040000D02*
X154940000Y-66294000D01*
X154940000Y-66294000D02*
X154940000Y-68326000D01*
X154940000Y-68326000D02*
X155194000Y-68580000D01*
X155194000Y-68580000D02*
X154940000Y-68834000D01*
X154940000Y-68834000D02*
X154940000Y-70866000D01*
X154940000Y-70866000D02*
X155194000Y-71120000D01*
X155194000Y-71120000D02*
X154940000Y-71374000D01*
X154940000Y-71374000D02*
X154940000Y-73406000D01*
X154940000Y-73406000D02*
X155194000Y-73660000D01*
X155194000Y-73660000D02*
X154940000Y-73914000D01*
X154940000Y-73914000D02*
X154940000Y-75946000D01*
X154940000Y-75946000D02*
X155194000Y-76200000D01*
X157226000Y-76200000D02*
X157480000Y-75946000D01*
X157480000Y-75946000D02*
X157480000Y-73914000D01*
X157480000Y-76454000D02*
X157226000Y-76200000D01*
X157226000Y-73660000D02*
X157480000Y-73406000D01*
X157480000Y-73406000D02*
X157480000Y-71374000D01*
X155194000Y-66040000D02*
X154940000Y-66294000D01*
X157480000Y-66294000D02*
X157226000Y-66040000D01*
X157480000Y-66548000D02*
X157480000Y-66040000D01*
X157480000Y-70866000D02*
X157480000Y-68834000D01*
X157480000Y-68834000D02*
X157226000Y-68580000D01*
X157226000Y-68580000D02*
X157480000Y-68326000D01*
X157480000Y-68326000D02*
X157480000Y-66548000D01*
X157480000Y-70866000D02*
X157226000Y-71120000D01*
X157226000Y-71120000D02*
X157480000Y-71374000D01*
X154940000Y-66040000D02*
X157480000Y-66040000D01*
X154940000Y-117094000D02*
X154940000Y-119126000D01*
X157480000Y-119126000D02*
X157480000Y-117094000D01*
X154940000Y-119126000D02*
X155194000Y-119380000D01*
X155194000Y-116840000D02*
X154940000Y-117094000D01*
X157480000Y-117094000D02*
X157226000Y-116840000D01*
X154940000Y-117094000D02*
X154940000Y-119126000D01*
X157226000Y-119380000D02*
X157480000Y-119126000D01*
X157480000Y-119126000D02*
X157480000Y-117094000D01*
X157226000Y-119380000D02*
X157480000Y-119126000D01*
X155194000Y-116840000D02*
X154940000Y-117094000D01*
X155194000Y-119380000D02*
X157226000Y-119380000D01*
X157480000Y-117094000D02*
X157226000Y-116840000D01*
X154940000Y-119126000D02*
X155194000Y-119380000D01*
D16*
X145206720Y-73820020D02*
X147627340Y-76253340D01*
D10*
X148172277Y-74980800D02*
G75*
G03*
X148172277Y-74980800I-1802237J0D01*
G01*
X148717000Y-80899000D02*
X141605000Y-84455000D01*
X141605000Y-84455000D02*
X141605000Y-77343000D01*
X141605000Y-77343000D02*
X144272000Y-78676500D01*
X144272000Y-78676500D02*
X145161000Y-79121000D01*
X145161000Y-79121000D02*
X148717000Y-80899000D01*
X145097500Y-82677000D02*
X141605000Y-77343000D01*
X145161000Y-80302100D02*
X145161000Y-79121000D01*
X144272000Y-78676500D02*
X144272000Y-78994000D01*
X142684500Y-81661000D02*
X142684500Y-81508600D01*
X144081500Y-82613500D02*
X143002000Y-82613500D01*
X142684500Y-82169000D02*
X142811500Y-82169000D01*
X142875000Y-82232500D02*
X143891000Y-82232500D01*
X142875000Y-82232500D02*
X142875000Y-82296000D01*
X142875000Y-82296000D02*
G75*
G02*
X142748000Y-82423000I-127000J0D01*
G01*
X142811500Y-82169000D02*
G75*
G02*
X142875000Y-82232500I0J-63500D01*
G01*
X142618455Y-82230071D02*
G75*
G02*
X142684500Y-82169000I63505J-2429D01*
G01*
X143002000Y-82613500D02*
G75*
G02*
X142621000Y-82232500I0J381000D01*
G01*
X144397425Y-82424048D02*
G75*
G02*
X144081500Y-82613500I-315925J168688D01*
G01*
X144398858Y-82421549D02*
G75*
G02*
X144716500Y-82105500I792622J-478971D01*
G01*
X143889155Y-82230935D02*
G75*
G02*
X144335500Y-81534000I1007685J-153965D01*
G01*
X143128326Y-81787068D02*
G75*
G02*
X142811500Y-81788000I-159346J316568D01*
G01*
X142811400Y-81787967D02*
G75*
G02*
X142684500Y-81661000I63600J190467D01*
G01*
X143572507Y-80459275D02*
G75*
G02*
X143446500Y-80899000I-3709947J825195D01*
G01*
X143445035Y-80898915D02*
G75*
G02*
X142684500Y-81470500I-808795J284395D01*
G01*
X143889834Y-80836708D02*
G75*
G02*
X143129000Y-81788000I-1332334J285688D01*
G01*
X143635424Y-80324461D02*
G75*
G02*
X144081500Y-79502000I1253796J-147819D01*
G01*
X144271526Y-78993301D02*
G75*
G02*
X144081500Y-79502000I-604046J-64199D01*
G01*
X145222886Y-80517915D02*
G75*
G02*
X145161000Y-80302100I230214J182795D01*
G01*
X145224322Y-80518721D02*
G75*
G02*
X144716500Y-82105500I-1274902J-466639D01*
G01*
D17*
X142697200Y-87101680D02*
X141965680Y-86768940D01*
X142605760Y-87101680D02*
X141592300Y-85920580D01*
X142742920Y-86987380D02*
X142415260Y-86370160D01*
X143162020Y-86667340D02*
X143055340Y-86057740D01*
X144320260Y-85831680D02*
X144172940Y-86553040D01*
X145013680Y-86072980D02*
X144647920Y-86728300D01*
X145882360Y-86941660D02*
X145295620Y-87360760D01*
X146133820Y-87528400D02*
X145448020Y-87749380D01*
X146149060Y-88793320D02*
X145539460Y-88625680D01*
X145889980Y-89227660D02*
X145531840Y-89052400D01*
X145112740Y-90225880D02*
X144823180Y-89768680D01*
X144632680Y-90401140D02*
X144472660Y-89959180D01*
X143388080Y-90726260D02*
X143515080Y-90020140D01*
X142742920Y-90477340D02*
X143222980Y-89913460D01*
X141843760Y-89811860D02*
X142605760Y-89446100D01*
X143896080Y-85021420D02*
X143809720Y-86489540D01*
X146080480Y-86012020D02*
X145013680Y-87124540D01*
X147137120Y-88277700D02*
X145623280Y-88272620D01*
X146161760Y-90538300D02*
X145054320Y-89476580D01*
X143875760Y-91523820D02*
X143936720Y-90106500D01*
X141671040Y-90487500D02*
X142692120Y-89634060D01*
D18*
X143101060Y-89471500D02*
X142834360Y-89164160D01*
X146014440Y-89801700D02*
X146507200Y-88818720D01*
X142509240Y-87622380D02*
X142793720Y-87744300D01*
X142963900Y-87485220D02*
X142798800Y-87739220D01*
X142966440Y-88986360D02*
X142791180Y-88760300D01*
X143080740Y-89354660D02*
X142742920Y-89095580D01*
X143301720Y-89578180D02*
X143131540Y-89484200D01*
X143301720Y-89578180D02*
X143131540Y-89484200D01*
X144155160Y-89715340D02*
X143332200Y-89583260D01*
X144891760Y-89291160D02*
X144160240Y-89710260D01*
X145321020Y-88419940D02*
X144891760Y-89291160D01*
X145153380Y-87604600D02*
X145313400Y-88419940D01*
X144724120Y-87094060D02*
X145153380Y-87604600D01*
X144051020Y-86860380D02*
X144724120Y-87094060D01*
X143545560Y-86865460D02*
X144063720Y-86865460D01*
X142834360Y-87241380D02*
X143545560Y-86865460D01*
X142712440Y-87419180D02*
X142834360Y-87241380D01*
X146733260Y-90690700D02*
X146011900Y-89806780D01*
X145379440Y-90446860D02*
X146288760Y-91048840D01*
X145384520Y-90451940D02*
X144386300Y-90838020D01*
X144117060Y-91981020D02*
X144363440Y-90865960D01*
X144172940Y-91838780D02*
X143522700Y-91838780D01*
X142770860Y-87462360D02*
X141389100Y-86934040D01*
X141091920Y-87071200D02*
X142072360Y-87457280D01*
X141419580Y-86542880D02*
X141091920Y-87071200D01*
X141086840Y-85859620D02*
X141615160Y-86680040D01*
X141391640Y-86723220D02*
X140771880Y-85846920D01*
X140776960Y-85836760D02*
X141467840Y-85153500D01*
X141551660Y-85440520D02*
X141020800Y-85925660D01*
X143187420Y-85407500D02*
X142206980Y-85788500D01*
X143154400Y-85511640D02*
X143365220Y-84388960D01*
X144343120Y-84373720D02*
X143385540Y-84376260D01*
X143601440Y-84457540D02*
X143377920Y-85564980D01*
X145371820Y-85760560D02*
X144503140Y-85394800D01*
X146253200Y-85145880D02*
X145262600Y-85849460D01*
X146951700Y-85844380D02*
X146260820Y-85150960D01*
X146276060Y-86860380D02*
X146949160Y-85849460D01*
X146662140Y-87546180D02*
X146324320Y-86741000D01*
X147751800Y-87762080D02*
X146580860Y-87536020D01*
X147751800Y-88727280D02*
X147751800Y-87762080D01*
X147744180Y-88737440D02*
X146718020Y-88938100D01*
X146349720Y-89725500D02*
X146728180Y-88821260D01*
X146997420Y-90660220D02*
X146281140Y-89689940D01*
X146281140Y-91346020D02*
X146994880Y-90672920D01*
X146245580Y-91325700D02*
X145392140Y-90731340D01*
X144561560Y-91064080D02*
X145394680Y-90728800D01*
X144363440Y-92133420D02*
X144566640Y-90962480D01*
X144360900Y-92130880D02*
X143375380Y-92130880D01*
X143367760Y-92130880D02*
X143172180Y-91059000D01*
X141460220Y-91368880D02*
X142323820Y-90771980D01*
X140764260Y-90639900D02*
X141457680Y-91361260D01*
X141335760Y-89806780D02*
X140771880Y-90632280D01*
X141325600Y-89794080D02*
X141104620Y-89448640D01*
X141122400Y-89410540D02*
X142791180Y-88760300D01*
D19*
X140931900Y-85844380D02*
X141478000Y-85290660D01*
X142372080Y-85910420D02*
X141485620Y-85290660D01*
X141305280Y-87033100D02*
X142745460Y-87607140D01*
X141490700Y-86695280D02*
X141305280Y-87033100D01*
X140924280Y-85859620D02*
X141490700Y-86695280D01*
X143283940Y-85504020D02*
X142372080Y-85910420D01*
X143454120Y-84490560D02*
X143283940Y-85504020D01*
X144289780Y-84490560D02*
X143454120Y-84490560D01*
X144518380Y-85572600D02*
X144289780Y-84490560D01*
X145455640Y-85912960D02*
X144518380Y-85572600D01*
X146245580Y-85295740D02*
X145455640Y-85912960D01*
X146794220Y-85849460D02*
X146248120Y-85295740D01*
X146161760Y-86753700D02*
X146796200Y-85849460D01*
X146606260Y-87668100D02*
X146156680Y-86766400D01*
X147624800Y-87881460D02*
X146606260Y-87668100D01*
X147645120Y-88648540D02*
X147645120Y-87863680D01*
X147632420Y-88640920D02*
X146618960Y-88846660D01*
X146192240Y-89745820D02*
X146598640Y-88900000D01*
X146834860Y-90634820D02*
X146182080Y-89806780D01*
D20*
X146276060Y-91183460D02*
X146809460Y-90683080D01*
D19*
X146253200Y-91173300D02*
X145402300Y-90617040D01*
X144485360Y-90944700D02*
X145351500Y-90596720D01*
X144269460Y-91993720D02*
X144449800Y-90975180D01*
D20*
X144256760Y-91981020D02*
X143469360Y-91986100D01*
D19*
X143479520Y-91991180D02*
X143261080Y-91041220D01*
X143238220Y-91013280D02*
X142354300Y-90655140D01*
X141478000Y-91188540D02*
X142311120Y-90655140D01*
D20*
X141478000Y-91203780D02*
X140939520Y-90639900D01*
D21*
X140939520Y-90627200D02*
X141470380Y-89847420D01*
D19*
X141488160Y-89837260D02*
X141282420Y-89519760D01*
D22*
X141302740Y-89491820D02*
X142725140Y-88940640D01*
D19*
X142748000Y-87596980D02*
G75*
G02*
X144612360Y-87226140I1117600J-746760D01*
G01*
X144597120Y-87215980D02*
G75*
G02*
X144795240Y-89141300I-863600J-1061720D01*
G01*
X144769840Y-89166700D02*
G75*
G02*
X142915640Y-89090500I-889000J965200D01*
G01*
D23*
X142494000Y-67945000D02*
G75*
G03*
X142494000Y-67945000I-127000J0D01*
G01*
D10*
X146431000Y-69088000D02*
X146304000Y-69088000D01*
X146304000Y-69088000D02*
X146304000Y-68707000D01*
X146304000Y-68707000D02*
X146431000Y-68707000D01*
X146431000Y-68707000D02*
X146431000Y-69088000D01*
X144907000Y-68961000D02*
X144907000Y-68326000D01*
X145034000Y-69088000D02*
X145034000Y-68199000D01*
X145034000Y-68199000D02*
X144653000Y-68199000D01*
X144653000Y-68199000D02*
X144653000Y-69088000D01*
X144653000Y-69088000D02*
X145034000Y-69088000D01*
X145034000Y-67691000D02*
X145415000Y-67691000D01*
X145415000Y-67691000D02*
X145415000Y-67564000D01*
X145415000Y-67564000D02*
X145034000Y-67564000D01*
X145415000Y-67691000D02*
X145288000Y-67691000D01*
X145542000Y-67691000D02*
X145161000Y-67564000D01*
X145415000Y-67691000D02*
X145288000Y-67691000D01*
X145542000Y-67818000D02*
X145034000Y-67818000D01*
X145034000Y-67818000D02*
X145034000Y-67437000D01*
X145034000Y-67437000D02*
X145542000Y-67437000D01*
X145669000Y-69850000D02*
X146177000Y-69850000D01*
X146177000Y-69850000D02*
X146177000Y-69723000D01*
X146177000Y-69723000D02*
X145669000Y-69723000D01*
X142768609Y-67945000D02*
G75*
G03*
X142768609Y-67945000I-401609J0D01*
G01*
X142875000Y-67945000D02*
X144907000Y-67818000D01*
X142367000Y-69850000D02*
X141986000Y-69850000D01*
X141986000Y-69850000D02*
X141986000Y-69342000D01*
X141986000Y-69342000D02*
X142240000Y-69342000D01*
X145542000Y-70358000D02*
X145542000Y-67437000D01*
X142367000Y-69850000D02*
X145415000Y-70104000D01*
X142367000Y-69850000D02*
X142367000Y-68453000D01*
X141986000Y-70866000D02*
X145923000Y-66802000D01*
X146050000Y-70993000D02*
X141859000Y-66802000D01*
D18*
X140613600Y-71148200D02*
X140613600Y-66728600D01*
X140715200Y-66728600D02*
X140715200Y-71097400D01*
X140918400Y-71148200D02*
X140918400Y-66677800D01*
X141070800Y-71148200D02*
X141070800Y-66728600D01*
X140816800Y-66677800D02*
X140816800Y-71097400D01*
X140969200Y-66677800D02*
X140969200Y-71097400D01*
X141121600Y-71148200D02*
X141121600Y-66677800D01*
X141223200Y-66677800D02*
X141223200Y-71097400D01*
X140512000Y-66627000D02*
X140512000Y-71199000D01*
X140512000Y-71199000D02*
X141274000Y-71199000D01*
X141274000Y-71199000D02*
X141274000Y-66627000D01*
X141274000Y-66627000D02*
X140512000Y-66627000D01*
D10*
X145669000Y-67818000D02*
G75*
G02*
X145669000Y-70104000I-1143000J-1143000D01*
G01*
D24*
X144957800Y-98691700D02*
X144957800Y-97320100D01*
X144957800Y-97320100D02*
X144957800Y-97269300D01*
X144957800Y-97269300D02*
X143713200Y-96012000D01*
X144843500Y-100215700D02*
X144843500Y-100114100D01*
X144907000Y-100063300D02*
X144919700Y-100063300D01*
X144919700Y-100063300D02*
X144919700Y-101358700D01*
X144919700Y-101358700D02*
X144919700Y-101384100D01*
X144919700Y-101384100D02*
X144424400Y-102006400D01*
X141897100Y-100063300D02*
X144907000Y-100063300D01*
X144856200Y-103720900D02*
X144856200Y-103797100D01*
X144919700Y-103873300D02*
X144919700Y-102628700D01*
X144919700Y-102628700D02*
X144437100Y-102044500D01*
X141922500Y-103873300D02*
X144907000Y-103873300D01*
X142328900Y-104609900D02*
X142328900Y-104521000D01*
X142328900Y-104952800D02*
X142328900Y-105016300D01*
X142265400Y-105092500D02*
X142265400Y-104482900D01*
X142265400Y-104482900D02*
X142265400Y-104457500D01*
X142265400Y-104457500D02*
X144284700Y-104457500D01*
X144284700Y-105092500D02*
X142265400Y-105092500D01*
X144894300Y-106591100D02*
X144894300Y-106476800D01*
X144970500Y-106718100D02*
X144970500Y-106413300D01*
X144970500Y-106413300D02*
X141935200Y-106413300D01*
X144881600Y-106895900D02*
X144894300Y-106959400D01*
X144970500Y-107010200D02*
X144970500Y-107022900D01*
X144970500Y-107022900D02*
X144970500Y-107035600D01*
X144970500Y-107035600D02*
X141820900Y-107035600D01*
X144970500Y-106730800D02*
X144970500Y-107010200D01*
D25*
X141897100Y-106730800D02*
X144627600Y-106730800D01*
X144614900Y-100393500D02*
X142011400Y-100393500D01*
X144627600Y-108508800D02*
X144627600Y-109512100D01*
X144018000Y-107886500D02*
X142087600Y-107886500D01*
X143979900Y-110109000D02*
X143738600Y-110109000D01*
X142011400Y-110109000D02*
X141439900Y-109524800D01*
X141998700Y-110096300D02*
X142760700Y-110096300D01*
X141439900Y-109537500D02*
X141439900Y-108496100D01*
D21*
X143412459Y-97409000D02*
G75*
G03*
X143412459Y-97409000I-359659J0D01*
G01*
D25*
X143052800Y-97917000D02*
X143052800Y-99136200D01*
D21*
X145152135Y-94475300D02*
G75*
G03*
X145152135Y-94475300I-359435J0D01*
G01*
D25*
X144437100Y-94843600D02*
X143543400Y-95707200D01*
D26*
X143446500Y-96266000D02*
X143446500Y-95707200D01*
D25*
X144627600Y-97383600D02*
X143560800Y-96291400D01*
X144627600Y-98605500D02*
X144627600Y-97383600D01*
X144145000Y-99136200D02*
X144653000Y-98653600D01*
X144119600Y-99136200D02*
X141884400Y-99136200D01*
X141884400Y-99136200D02*
X141452600Y-98704400D01*
X141452600Y-98704400D02*
X141452600Y-97383600D01*
X141452600Y-97383600D02*
X142570200Y-96240600D01*
D26*
X142671800Y-96240600D02*
X142671800Y-95707200D01*
D25*
X141757400Y-94894400D02*
X142570200Y-95732600D01*
D21*
X141731266Y-94564200D02*
G75*
G03*
X141731266Y-94564200I-329466J0D01*
G01*
X141853929Y-100393500D02*
G75*
G03*
X141853929Y-100393500I-363229J0D01*
G01*
D25*
X144602200Y-101295200D02*
X144602200Y-100406200D01*
D21*
X143144318Y-102006400D02*
G75*
G03*
X143144318Y-102006400I-370918J0D01*
G01*
D25*
X144094200Y-101930200D02*
X144602200Y-101295200D01*
X143306800Y-102006400D02*
X144018000Y-102006400D01*
X144602200Y-102717600D02*
X144094200Y-102108000D01*
X144602200Y-103555800D02*
X144602200Y-102717600D01*
X142011400Y-103555800D02*
X144602200Y-103555800D01*
D21*
X141863059Y-103543100D02*
G75*
G03*
X141863059Y-103543100I-359659J0D01*
G01*
X145077318Y-104762300D02*
G75*
G03*
X145077318Y-104762300I-373518J0D01*
G01*
D25*
X144170400Y-104775000D02*
X142570200Y-104775000D01*
D21*
X141844324Y-104775000D02*
G75*
G03*
X141844324Y-104775000I-366324J0D01*
G01*
D25*
X141452600Y-105287800D02*
X141452600Y-106273600D01*
X141452600Y-106273600D02*
X141909800Y-106730800D01*
X142049500Y-107899200D02*
X141465300Y-108458000D01*
X144614900Y-108508800D02*
X144005300Y-107873800D01*
X144030700Y-110109000D02*
X144538700Y-109601000D01*
D21*
X143593447Y-110096300D02*
G75*
G03*
X143593447Y-110096300I-337447J0D01*
G01*
D18*
X134366000Y-82042000D02*
X135382000Y-82042000D01*
X134112000Y-82804000D02*
X134112000Y-82296000D01*
X135382000Y-83058000D02*
X134366000Y-83058000D01*
X135636000Y-82296000D02*
X135636000Y-82804000D01*
D27*
X135382000Y-82042000D02*
G75*
G02*
X135636000Y-82296000I0J-254000D01*
G01*
X134112000Y-82296000D02*
G75*
G02*
X134366000Y-82042000I254000J0D01*
G01*
X134366000Y-83058000D02*
G75*
G02*
X134112000Y-82804000I0J254000D01*
G01*
X135636000Y-82804000D02*
G75*
G02*
X135382000Y-83058000I-254000J0D01*
G01*
D18*
X134366000Y-80010000D02*
X135382000Y-80010000D01*
X134112000Y-80772000D02*
X134112000Y-80264000D01*
X135382000Y-81026000D02*
X134366000Y-81026000D01*
X135636000Y-80264000D02*
X135636000Y-80772000D01*
D27*
X135382000Y-80010000D02*
G75*
G02*
X135636000Y-80264000I0J-254000D01*
G01*
X134112000Y-80264000D02*
G75*
G02*
X134366000Y-80010000I254000J0D01*
G01*
X134366000Y-81026000D02*
G75*
G02*
X134112000Y-80772000I0J254000D01*
G01*
X135636000Y-80772000D02*
G75*
G02*
X135382000Y-81026000I-254000J0D01*
G01*
D10*
X132080000Y-106934000D02*
X131826000Y-106680000D01*
X129794000Y-106680000D02*
X129540000Y-106934000D01*
X129540000Y-106934000D02*
X129540000Y-108966000D01*
X129540000Y-111506000D02*
X129794000Y-111760000D01*
X132080000Y-108966000D02*
X132080000Y-106934000D01*
X131826000Y-111760000D02*
X132080000Y-111506000D01*
X129540000Y-109474000D02*
X129540000Y-111506000D01*
X129794000Y-109220000D02*
X129540000Y-109474000D01*
X132080000Y-111506000D02*
X132080000Y-109474000D01*
X131826000Y-109220000D02*
X132080000Y-108966000D01*
X132080000Y-109474000D02*
X131826000Y-109220000D01*
X129540000Y-108966000D02*
X129794000Y-109220000D01*
X129540000Y-111506000D02*
X129794000Y-111760000D01*
X131826000Y-111760000D02*
X132080000Y-111506000D01*
X132080000Y-111506000D02*
X132080000Y-109474000D01*
X129540000Y-109474000D02*
X129540000Y-111506000D01*
X129794000Y-109220000D02*
X129540000Y-109474000D01*
X132080000Y-109474000D02*
X131826000Y-109220000D01*
X132080000Y-114554000D02*
X131826000Y-114300000D01*
X129794000Y-114300000D02*
X129540000Y-114554000D01*
X129540000Y-114554000D02*
X129540000Y-116586000D01*
X132080000Y-116586000D02*
X132080000Y-114554000D01*
X131826000Y-116840000D02*
X132080000Y-116586000D01*
X129540000Y-116586000D02*
X129794000Y-116840000D01*
X129540000Y-114046000D02*
X129794000Y-114300000D01*
X132080000Y-114554000D02*
X131826000Y-114300000D01*
X131826000Y-114300000D02*
X132080000Y-114046000D01*
X132080000Y-116586000D02*
X132080000Y-114554000D01*
X129794000Y-114300000D02*
X129540000Y-114554000D01*
X129540000Y-114554000D02*
X129540000Y-116586000D01*
X131826000Y-116840000D02*
X132080000Y-116586000D01*
X132080000Y-114046000D02*
X132080000Y-112014000D01*
X129540000Y-116586000D02*
X129794000Y-116840000D01*
X129540000Y-112014000D02*
X129540000Y-114046000D01*
X129794000Y-111760000D02*
X129540000Y-112014000D01*
X132080000Y-112014000D02*
X131826000Y-111760000D01*
X132080000Y-101854000D02*
X131826000Y-101600000D01*
X129794000Y-101600000D02*
X129540000Y-101854000D01*
X129540000Y-101854000D02*
X129540000Y-103886000D01*
X129540000Y-106426000D02*
X129794000Y-106680000D01*
X132080000Y-103886000D02*
X132080000Y-101854000D01*
X131826000Y-106680000D02*
X132080000Y-106426000D01*
X129540000Y-104394000D02*
X129540000Y-106426000D01*
X129794000Y-104140000D02*
X129540000Y-104394000D01*
X132080000Y-106426000D02*
X132080000Y-104394000D01*
X131826000Y-104140000D02*
X132080000Y-103886000D01*
X132080000Y-104394000D02*
X131826000Y-104140000D01*
X129540000Y-103886000D02*
X129794000Y-104140000D01*
X129540000Y-106426000D02*
X129794000Y-106680000D01*
X131826000Y-106680000D02*
X132080000Y-106426000D01*
X132080000Y-106426000D02*
X132080000Y-104394000D01*
X129540000Y-104394000D02*
X129540000Y-106426000D01*
X129794000Y-104140000D02*
X129540000Y-104394000D01*
X132080000Y-104394000D02*
X131826000Y-104140000D01*
X132080000Y-99314000D02*
X131826000Y-99060000D01*
X129794000Y-99060000D02*
X129540000Y-99314000D01*
X129540000Y-99314000D02*
X129540000Y-101346000D01*
X132080000Y-101346000D02*
X132080000Y-99314000D01*
X131826000Y-101600000D02*
X132080000Y-101346000D01*
X129540000Y-101346000D02*
X129794000Y-101600000D01*
X129540000Y-98806000D02*
X129794000Y-99060000D01*
X132080000Y-99314000D02*
X131826000Y-99060000D01*
X131826000Y-99060000D02*
X132080000Y-98806000D01*
X132080000Y-101346000D02*
X132080000Y-99314000D01*
X129794000Y-99060000D02*
X129540000Y-99314000D01*
X129540000Y-99314000D02*
X129540000Y-101346000D01*
X131826000Y-101600000D02*
X132080000Y-101346000D01*
X132080000Y-98806000D02*
X132080000Y-96774000D01*
X129540000Y-101346000D02*
X129794000Y-101600000D01*
X129540000Y-96774000D02*
X129540000Y-98806000D01*
X129794000Y-96520000D02*
X129540000Y-96774000D01*
X132080000Y-96774000D02*
X131826000Y-96520000D01*
X132080000Y-91694000D02*
X131826000Y-91440000D01*
X129794000Y-91440000D02*
X129540000Y-91694000D01*
X129540000Y-91694000D02*
X129540000Y-93726000D01*
X129540000Y-96266000D02*
X129794000Y-96520000D01*
X132080000Y-93726000D02*
X132080000Y-91694000D01*
X131826000Y-96520000D02*
X132080000Y-96266000D01*
X129540000Y-94234000D02*
X129540000Y-96266000D01*
X129794000Y-93980000D02*
X129540000Y-94234000D01*
X132080000Y-96266000D02*
X132080000Y-94234000D01*
X131826000Y-93980000D02*
X132080000Y-93726000D01*
X132080000Y-94234000D02*
X131826000Y-93980000D01*
X129540000Y-93726000D02*
X129794000Y-93980000D01*
X129540000Y-96266000D02*
X129794000Y-96520000D01*
X131826000Y-96520000D02*
X132080000Y-96266000D01*
X132080000Y-96266000D02*
X132080000Y-94234000D01*
X129540000Y-94234000D02*
X129540000Y-96266000D01*
X129794000Y-93980000D02*
X129540000Y-94234000D01*
X132080000Y-94234000D02*
X131826000Y-93980000D01*
X132080000Y-89154000D02*
X131826000Y-88900000D01*
X129794000Y-88900000D02*
X129540000Y-89154000D01*
X129540000Y-89154000D02*
X129540000Y-91186000D01*
X132080000Y-91186000D02*
X132080000Y-89154000D01*
X131826000Y-91440000D02*
X132080000Y-91186000D01*
X129540000Y-91186000D02*
X129794000Y-91440000D01*
X129540000Y-88646000D02*
X129794000Y-88900000D01*
X132080000Y-89154000D02*
X131826000Y-88900000D01*
X131826000Y-88900000D02*
X132080000Y-88646000D01*
X132080000Y-91186000D02*
X132080000Y-89154000D01*
X129794000Y-88900000D02*
X129540000Y-89154000D01*
X129540000Y-89154000D02*
X129540000Y-91186000D01*
X131826000Y-91440000D02*
X132080000Y-91186000D01*
X132080000Y-88646000D02*
X132080000Y-86614000D01*
X129540000Y-91186000D02*
X129794000Y-91440000D01*
X129540000Y-86614000D02*
X129540000Y-88646000D01*
X129794000Y-86360000D02*
X129540000Y-86614000D01*
X132080000Y-86614000D02*
X131826000Y-86360000D01*
X132080000Y-81534000D02*
X131826000Y-81280000D01*
X129794000Y-81280000D02*
X129540000Y-81534000D01*
X129540000Y-81534000D02*
X129540000Y-83566000D01*
X129540000Y-86106000D02*
X129794000Y-86360000D01*
X132080000Y-83566000D02*
X132080000Y-81534000D01*
X131826000Y-86360000D02*
X132080000Y-86106000D01*
X129540000Y-84074000D02*
X129540000Y-86106000D01*
X129794000Y-83820000D02*
X129540000Y-84074000D01*
X132080000Y-86106000D02*
X132080000Y-84074000D01*
X131826000Y-83820000D02*
X132080000Y-83566000D01*
X132080000Y-84074000D02*
X131826000Y-83820000D01*
X129540000Y-83566000D02*
X129794000Y-83820000D01*
X129540000Y-86106000D02*
X129794000Y-86360000D01*
X131826000Y-86360000D02*
X132080000Y-86106000D01*
X132080000Y-86106000D02*
X132080000Y-84074000D01*
X129540000Y-84074000D02*
X129540000Y-86106000D01*
X129794000Y-83820000D02*
X129540000Y-84074000D01*
X132080000Y-84074000D02*
X131826000Y-83820000D01*
X132080000Y-78994000D02*
X131826000Y-78740000D01*
X129794000Y-78740000D02*
X129540000Y-78994000D01*
X129540000Y-78994000D02*
X129540000Y-81026000D01*
X132080000Y-81026000D02*
X132080000Y-78994000D01*
X131826000Y-81280000D02*
X132080000Y-81026000D01*
X129540000Y-81026000D02*
X129794000Y-81280000D01*
X129540000Y-78486000D02*
X129794000Y-78740000D01*
X132080000Y-78994000D02*
X131826000Y-78740000D01*
X131826000Y-78740000D02*
X132080000Y-78486000D01*
X132080000Y-81026000D02*
X132080000Y-78994000D01*
X129794000Y-78740000D02*
X129540000Y-78994000D01*
X129540000Y-78994000D02*
X129540000Y-81026000D01*
X131826000Y-81280000D02*
X132080000Y-81026000D01*
X132080000Y-73914000D02*
X131826000Y-73660000D01*
X132080000Y-78486000D02*
X132080000Y-76454000D01*
X129540000Y-81026000D02*
X129794000Y-81280000D01*
X129540000Y-76454000D02*
X129540000Y-78486000D01*
X129794000Y-76200000D02*
X129540000Y-76454000D01*
X129540000Y-66040000D02*
X129540000Y-66294000D01*
X129540000Y-66294000D02*
X129540000Y-68326000D01*
X129540000Y-68326000D02*
X129794000Y-68580000D01*
X129794000Y-68580000D02*
X129540000Y-68834000D01*
X129540000Y-68834000D02*
X129540000Y-70866000D01*
X129540000Y-70866000D02*
X129794000Y-71120000D01*
X129794000Y-71120000D02*
X129540000Y-71374000D01*
X129540000Y-71374000D02*
X129540000Y-73406000D01*
X129540000Y-73406000D02*
X129794000Y-73660000D01*
X129794000Y-73660000D02*
X129540000Y-73914000D01*
X129540000Y-73914000D02*
X129540000Y-75946000D01*
X129540000Y-75946000D02*
X129794000Y-76200000D01*
X131826000Y-76200000D02*
X132080000Y-75946000D01*
X132080000Y-75946000D02*
X132080000Y-73914000D01*
X132080000Y-76454000D02*
X131826000Y-76200000D01*
X131826000Y-73660000D02*
X132080000Y-73406000D01*
X132080000Y-73406000D02*
X132080000Y-71374000D01*
X129794000Y-66040000D02*
X129540000Y-66294000D01*
X132080000Y-66294000D02*
X131826000Y-66040000D01*
X132080000Y-66548000D02*
X132080000Y-66040000D01*
X132080000Y-70866000D02*
X132080000Y-68834000D01*
X132080000Y-68834000D02*
X131826000Y-68580000D01*
X131826000Y-68580000D02*
X132080000Y-68326000D01*
X132080000Y-68326000D02*
X132080000Y-66548000D01*
X132080000Y-70866000D02*
X131826000Y-71120000D01*
X131826000Y-71120000D02*
X132080000Y-71374000D01*
X129540000Y-66040000D02*
X132080000Y-66040000D01*
X129540000Y-117094000D02*
X129540000Y-119126000D01*
X132080000Y-119126000D02*
X132080000Y-117094000D01*
X129540000Y-119126000D02*
X129794000Y-119380000D01*
X129794000Y-116840000D02*
X129540000Y-117094000D01*
X132080000Y-117094000D02*
X131826000Y-116840000D01*
X129540000Y-117094000D02*
X129540000Y-119126000D01*
X131826000Y-119380000D02*
X132080000Y-119126000D01*
X132080000Y-119126000D02*
X132080000Y-117094000D01*
X131826000Y-119380000D02*
X132080000Y-119126000D01*
X129794000Y-116840000D02*
X129540000Y-117094000D01*
X129794000Y-119380000D02*
X131826000Y-119380000D01*
X132080000Y-117094000D02*
X131826000Y-116840000D01*
X129540000Y-119126000D02*
X129794000Y-119380000D01*
D18*
X146558000Y-101981000D02*
X145542000Y-101981000D01*
X146812000Y-101219000D02*
X146812000Y-101727000D01*
X145542000Y-100965000D02*
X146558000Y-100965000D01*
X145288000Y-101727000D02*
X145288000Y-101219000D01*
D27*
X145288000Y-101219000D02*
G75*
G02*
X145542000Y-100965000I254000J0D01*
G01*
X146558000Y-100965000D02*
G75*
G02*
X146812000Y-101219000I0J-254000D01*
G01*
X146812000Y-101727000D02*
G75*
G02*
X146558000Y-101981000I-254000J0D01*
G01*
X145542000Y-101981000D02*
G75*
G02*
X145288000Y-101727000I0J254000D01*
G01*
D18*
X137668000Y-100330000D02*
X138684000Y-100330000D01*
X137414000Y-101092000D02*
X137414000Y-100584000D01*
X138684000Y-101346000D02*
X137668000Y-101346000D01*
X138938000Y-100584000D02*
X138938000Y-101092000D01*
D27*
X138938000Y-101092000D02*
G75*
G02*
X138684000Y-101346000I-254000J0D01*
G01*
X137668000Y-101346000D02*
G75*
G02*
X137414000Y-101092000I0J254000D01*
G01*
X137414000Y-100584000D02*
G75*
G02*
X137668000Y-100330000I254000J0D01*
G01*
X138684000Y-100330000D02*
G75*
G02*
X138938000Y-100584000I0J-254000D01*
G01*
D10*
X147791714Y-71307476D02*
X147791714Y-70884142D01*
X147126476Y-70702714D02*
X147126476Y-71307476D01*
X148396476Y-71307476D01*
X148396476Y-70702714D01*
X148396476Y-70279380D02*
X147126476Y-69432714D01*
X148396476Y-69432714D02*
X147126476Y-70279380D01*
X148396476Y-69130333D02*
X148396476Y-68404619D01*
X147126476Y-68767476D02*
X148396476Y-68767476D01*
X148275523Y-68041761D02*
X148336000Y-67981285D01*
X148396476Y-67860333D01*
X148396476Y-67557952D01*
X148336000Y-67437000D01*
X148275523Y-67376523D01*
X148154571Y-67316047D01*
X148033619Y-67316047D01*
X147852190Y-67376523D01*
X147126476Y-68102238D01*
X147126476Y-67316047D01*
X145600992Y-76052228D02*
X147300992Y-76052228D01*
X147300992Y-75480800D01*
X147220040Y-75337942D01*
X147139087Y-75266514D01*
X146977182Y-75195085D01*
X146734325Y-75195085D01*
X146572420Y-75266514D01*
X146491468Y-75337942D01*
X146410516Y-75480800D01*
X146410516Y-76052228D01*
X145600992Y-74552228D02*
X147300992Y-74552228D01*
X146653373Y-74552228D02*
X146734325Y-74409371D01*
X146734325Y-74123657D01*
X146653373Y-73980800D01*
X146572420Y-73909371D01*
X146410516Y-73837942D01*
X145924801Y-73837942D01*
X145762897Y-73909371D01*
X145681944Y-73980800D01*
X145600992Y-74123657D01*
X145600992Y-74409371D01*
X145681944Y-74552228D01*
X139128620Y-93629238D02*
X139177001Y-93726000D01*
X139225382Y-93774380D01*
X139322144Y-93822761D01*
X139612430Y-93822761D01*
X139709192Y-93774380D01*
X139757573Y-93726000D01*
X139805954Y-93629238D01*
X139805954Y-93484095D01*
X139757573Y-93387333D01*
X139709192Y-93338952D01*
X139612430Y-93290571D01*
X139322144Y-93290571D01*
X139225382Y-93338952D01*
X139177001Y-93387333D01*
X139128620Y-93484095D01*
X139128620Y-93629238D01*
X139805954Y-92855142D02*
X138789954Y-92855142D01*
X139757573Y-92855142D02*
X139805954Y-92758380D01*
X139805954Y-92564857D01*
X139757573Y-92468095D01*
X139709192Y-92419714D01*
X139612430Y-92371333D01*
X139322144Y-92371333D01*
X139225382Y-92419714D01*
X139177001Y-92468095D01*
X139128620Y-92564857D01*
X139128620Y-92758380D01*
X139177001Y-92855142D01*
X139177001Y-91548857D02*
X139128620Y-91645619D01*
X139128620Y-91839142D01*
X139177001Y-91935904D01*
X139273763Y-91984285D01*
X139660811Y-91984285D01*
X139757573Y-91935904D01*
X139805954Y-91839142D01*
X139805954Y-91645619D01*
X139757573Y-91548857D01*
X139660811Y-91500476D01*
X139564049Y-91500476D01*
X139467287Y-91984285D01*
X139805954Y-91065047D02*
X139128620Y-91065047D01*
X139709192Y-91065047D02*
X139757573Y-91016666D01*
X139805954Y-90919904D01*
X139805954Y-90774761D01*
X139757573Y-90678000D01*
X139660811Y-90629619D01*
X139128620Y-90629619D01*
X139037180Y-89680142D02*
X140053180Y-89680142D01*
X139037180Y-89244714D02*
X139569371Y-89244714D01*
X139666133Y-89293095D01*
X139714514Y-89389857D01*
X139714514Y-89535000D01*
X139666133Y-89631761D01*
X139617752Y-89680142D01*
X139037180Y-88325476D02*
X139569371Y-88325476D01*
X139666133Y-88373857D01*
X139714514Y-88470619D01*
X139714514Y-88664142D01*
X139666133Y-88760904D01*
X139085561Y-88325476D02*
X139037180Y-88422238D01*
X139037180Y-88664142D01*
X139085561Y-88760904D01*
X139182323Y-88809285D01*
X139279085Y-88809285D01*
X139375847Y-88760904D01*
X139424228Y-88664142D01*
X139424228Y-88422238D01*
X139472609Y-88325476D01*
X139037180Y-87841666D02*
X139714514Y-87841666D01*
X139520990Y-87841666D02*
X139617752Y-87793285D01*
X139666133Y-87744904D01*
X139714514Y-87648142D01*
X139714514Y-87551380D01*
X139037180Y-86777285D02*
X140053180Y-86777285D01*
X139085561Y-86777285D02*
X139037180Y-86874047D01*
X139037180Y-87067571D01*
X139085561Y-87164333D01*
X139133942Y-87212714D01*
X139230704Y-87261095D01*
X139520990Y-87261095D01*
X139617752Y-87212714D01*
X139666133Y-87164333D01*
X139714514Y-87067571D01*
X139714514Y-86874047D01*
X139666133Y-86777285D01*
X139714514Y-86390238D02*
X139037180Y-86196714D01*
X139520990Y-86003190D01*
X139037180Y-85809666D01*
X139714514Y-85616142D01*
X139037180Y-84793666D02*
X139569371Y-84793666D01*
X139666133Y-84842047D01*
X139714514Y-84938809D01*
X139714514Y-85132333D01*
X139666133Y-85229095D01*
X139085561Y-84793666D02*
X139037180Y-84890428D01*
X139037180Y-85132333D01*
X139085561Y-85229095D01*
X139182323Y-85277476D01*
X139279085Y-85277476D01*
X139375847Y-85229095D01*
X139424228Y-85132333D01*
X139424228Y-84890428D01*
X139472609Y-84793666D01*
X139037180Y-84309857D02*
X139714514Y-84309857D01*
X139520990Y-84309857D02*
X139617752Y-84261476D01*
X139666133Y-84213095D01*
X139714514Y-84116333D01*
X139714514Y-84019571D01*
X139085561Y-83293857D02*
X139037180Y-83390619D01*
X139037180Y-83584142D01*
X139085561Y-83680904D01*
X139182323Y-83729285D01*
X139569371Y-83729285D01*
X139666133Y-83680904D01*
X139714514Y-83584142D01*
X139714514Y-83390619D01*
X139666133Y-83293857D01*
X139569371Y-83245476D01*
X139472609Y-83245476D01*
X139375847Y-83729285D01*
D23*
X139817928Y-81624714D02*
X139745357Y-81648904D01*
X139721166Y-81673095D01*
X139696976Y-81721476D01*
X139696976Y-81794047D01*
X139721166Y-81842428D01*
X139745357Y-81866619D01*
X139793738Y-81890809D01*
X139987261Y-81890809D01*
X139987261Y-81382809D01*
X139817928Y-81382809D01*
X139769547Y-81407000D01*
X139745357Y-81431190D01*
X139721166Y-81479571D01*
X139721166Y-81527952D01*
X139745357Y-81576333D01*
X139769547Y-81600523D01*
X139817928Y-81624714D01*
X139987261Y-81624714D01*
X139503452Y-81745666D02*
X139261547Y-81745666D01*
X139551833Y-81890809D02*
X139382500Y-81382809D01*
X139213166Y-81890809D01*
X139116404Y-81382809D02*
X138826119Y-81382809D01*
X138971261Y-81890809D02*
X138971261Y-81382809D01*
X138777738Y-81939190D02*
X138390690Y-81939190D01*
X138293928Y-81866619D02*
X138221357Y-81890809D01*
X138100404Y-81890809D01*
X138052023Y-81866619D01*
X138027833Y-81842428D01*
X138003642Y-81794047D01*
X138003642Y-81745666D01*
X138027833Y-81697285D01*
X138052023Y-81673095D01*
X138100404Y-81648904D01*
X138197166Y-81624714D01*
X138245547Y-81600523D01*
X138269738Y-81576333D01*
X138293928Y-81527952D01*
X138293928Y-81479571D01*
X138269738Y-81431190D01*
X138245547Y-81407000D01*
X138197166Y-81382809D01*
X138076214Y-81382809D01*
X138003642Y-81407000D01*
X137785928Y-81624714D02*
X137616595Y-81624714D01*
X137544023Y-81890809D02*
X137785928Y-81890809D01*
X137785928Y-81382809D01*
X137544023Y-81382809D01*
X137326309Y-81890809D02*
X137326309Y-81382809D01*
X137036023Y-81890809D01*
X137036023Y-81382809D01*
X136818309Y-81866619D02*
X136745738Y-81890809D01*
X136624785Y-81890809D01*
X136576404Y-81866619D01*
X136552214Y-81842428D01*
X136528023Y-81794047D01*
X136528023Y-81745666D01*
X136552214Y-81697285D01*
X136576404Y-81673095D01*
X136624785Y-81648904D01*
X136721547Y-81624714D01*
X136769928Y-81600523D01*
X136794119Y-81576333D01*
X136818309Y-81527952D01*
X136818309Y-81479571D01*
X136794119Y-81431190D01*
X136769928Y-81407000D01*
X136721547Y-81382809D01*
X136600595Y-81382809D01*
X136528023Y-81407000D01*
X136431261Y-81939190D02*
X136044214Y-81939190D01*
X135923261Y-81624714D02*
X135753928Y-81624714D01*
X135681357Y-81890809D02*
X135923261Y-81890809D01*
X135923261Y-81382809D01*
X135681357Y-81382809D01*
X135197547Y-81890809D02*
X135487833Y-81890809D01*
X135342690Y-81890809D02*
X135342690Y-81382809D01*
X135391071Y-81455380D01*
X135439452Y-81503761D01*
X135487833Y-81527952D01*
X140945809Y-80493809D02*
X140945809Y-79985809D01*
X140752285Y-79985809D01*
X140703904Y-80010000D01*
X140679714Y-80034190D01*
X140655523Y-80082571D01*
X140655523Y-80155142D01*
X140679714Y-80203523D01*
X140703904Y-80227714D01*
X140752285Y-80251904D01*
X140945809Y-80251904D01*
X140486190Y-79985809D02*
X140365238Y-80493809D01*
X140268476Y-80130952D01*
X140171714Y-80493809D01*
X140050761Y-79985809D01*
X139566952Y-80493809D02*
X139736285Y-80251904D01*
X139857238Y-80493809D02*
X139857238Y-79985809D01*
X139663714Y-79985809D01*
X139615333Y-80010000D01*
X139591142Y-80034190D01*
X139566952Y-80082571D01*
X139566952Y-80155142D01*
X139591142Y-80203523D01*
X139615333Y-80227714D01*
X139663714Y-80251904D01*
X139857238Y-80251904D01*
X139470190Y-80542190D02*
X139083142Y-80542190D01*
X138986380Y-80469619D02*
X138913809Y-80493809D01*
X138792857Y-80493809D01*
X138744476Y-80469619D01*
X138720285Y-80445428D01*
X138696095Y-80397047D01*
X138696095Y-80348666D01*
X138720285Y-80300285D01*
X138744476Y-80276095D01*
X138792857Y-80251904D01*
X138889619Y-80227714D01*
X138938000Y-80203523D01*
X138962190Y-80179333D01*
X138986380Y-80130952D01*
X138986380Y-80082571D01*
X138962190Y-80034190D01*
X138938000Y-80010000D01*
X138889619Y-79985809D01*
X138768666Y-79985809D01*
X138696095Y-80010000D01*
X138478380Y-80227714D02*
X138309047Y-80227714D01*
X138236476Y-80493809D02*
X138478380Y-80493809D01*
X138478380Y-79985809D01*
X138236476Y-79985809D01*
X138018761Y-80493809D02*
X138018761Y-79985809D01*
X137728476Y-80493809D01*
X137728476Y-79985809D01*
X137510761Y-80469619D02*
X137438190Y-80493809D01*
X137317238Y-80493809D01*
X137268857Y-80469619D01*
X137244666Y-80445428D01*
X137220476Y-80397047D01*
X137220476Y-80348666D01*
X137244666Y-80300285D01*
X137268857Y-80276095D01*
X137317238Y-80251904D01*
X137414000Y-80227714D01*
X137462380Y-80203523D01*
X137486571Y-80179333D01*
X137510761Y-80130952D01*
X137510761Y-80082571D01*
X137486571Y-80034190D01*
X137462380Y-80010000D01*
X137414000Y-79985809D01*
X137293047Y-79985809D01*
X137220476Y-80010000D01*
X137123714Y-80542190D02*
X136736666Y-80542190D01*
X136615714Y-80227714D02*
X136446380Y-80227714D01*
X136373809Y-80493809D02*
X136615714Y-80493809D01*
X136615714Y-79985809D01*
X136373809Y-79985809D01*
X135890000Y-80493809D02*
X136180285Y-80493809D01*
X136035142Y-80493809D02*
X136035142Y-79985809D01*
X136083523Y-80058380D01*
X136131904Y-80106761D01*
X136180285Y-80130952D01*
D10*
X139282714Y-71307476D02*
X139282714Y-70884142D01*
X138617476Y-70702714D02*
X138617476Y-71307476D01*
X139887476Y-71307476D01*
X139887476Y-70702714D01*
X139887476Y-70279380D02*
X138617476Y-69432714D01*
X139887476Y-69432714D02*
X138617476Y-70279380D01*
X139887476Y-69130333D02*
X139887476Y-68404619D01*
X138617476Y-68767476D02*
X139887476Y-68767476D01*
X138617476Y-67316047D02*
X138617476Y-68041761D01*
X138617476Y-67678904D02*
X139887476Y-67678904D01*
X139706047Y-67799857D01*
X139585095Y-67920809D01*
X139524619Y-68041761D01*
D11*
X145705285Y-99894571D02*
X145705285Y-100257428D01*
X146467285Y-100257428D01*
X146104428Y-99640571D02*
X146104428Y-99386571D01*
X145705285Y-99277714D02*
X145705285Y-99640571D01*
X146467285Y-99640571D01*
X146467285Y-99277714D01*
X145705285Y-98951142D02*
X146467285Y-98951142D01*
X146467285Y-98769714D01*
X146431000Y-98660857D01*
X146358428Y-98588285D01*
X146285857Y-98552000D01*
X146140714Y-98515714D01*
X146031857Y-98515714D01*
X145886714Y-98552000D01*
X145814142Y-98588285D01*
X145741571Y-98660857D01*
X145705285Y-98769714D01*
X145705285Y-98951142D01*
X145632714Y-98370571D02*
X145632714Y-97790000D01*
X146104428Y-97608571D02*
X146104428Y-97354571D01*
X145705285Y-97245714D02*
X145705285Y-97608571D01*
X146467285Y-97608571D01*
X146467285Y-97245714D01*
X145705285Y-96919142D02*
X146467285Y-96919142D01*
X145705285Y-96483714D01*
X146467285Y-96483714D01*
X145923000Y-96157142D02*
X145923000Y-95794285D01*
X145705285Y-96229714D02*
X146467285Y-95975714D01*
X145705285Y-95721714D01*
X146104428Y-95213714D02*
X146068142Y-95104857D01*
X146031857Y-95068571D01*
X145959285Y-95032285D01*
X145850428Y-95032285D01*
X145777857Y-95068571D01*
X145741571Y-95104857D01*
X145705285Y-95177428D01*
X145705285Y-95467714D01*
X146467285Y-95467714D01*
X146467285Y-95213714D01*
X146431000Y-95141142D01*
X146394714Y-95104857D01*
X146322142Y-95068571D01*
X146249571Y-95068571D01*
X146177000Y-95104857D01*
X146140714Y-95141142D01*
X146104428Y-95213714D01*
X146104428Y-95467714D01*
X145705285Y-94342857D02*
X145705285Y-94705714D01*
X146467285Y-94705714D01*
X146104428Y-94088857D02*
X146104428Y-93834857D01*
X145705285Y-93726000D02*
X145705285Y-94088857D01*
X146467285Y-94088857D01*
X146467285Y-93726000D01*
X145705285Y-93000285D02*
X145705285Y-93435714D01*
X145705285Y-93218000D02*
X146467285Y-93218000D01*
X146358428Y-93290571D01*
X146285857Y-93363142D01*
X146249571Y-93435714D01*
D16*
X139376095Y-105987571D02*
X139376095Y-105492333D01*
X139071333Y-105759000D01*
X139071333Y-105644714D01*
X139033238Y-105568523D01*
X138995142Y-105530428D01*
X138918952Y-105492333D01*
X138728476Y-105492333D01*
X138652285Y-105530428D01*
X138614190Y-105568523D01*
X138576095Y-105644714D01*
X138576095Y-105873285D01*
X138614190Y-105949476D01*
X138652285Y-105987571D01*
X138652285Y-105149476D02*
X138614190Y-105111380D01*
X138576095Y-105149476D01*
X138614190Y-105187571D01*
X138652285Y-105149476D01*
X138576095Y-105149476D01*
X139376095Y-104844714D02*
X139376095Y-104349476D01*
X139071333Y-104616142D01*
X139071333Y-104501857D01*
X139033238Y-104425666D01*
X138995142Y-104387571D01*
X138918952Y-104349476D01*
X138728476Y-104349476D01*
X138652285Y-104387571D01*
X138614190Y-104425666D01*
X138576095Y-104501857D01*
X138576095Y-104730428D01*
X138614190Y-104806619D01*
X138652285Y-104844714D01*
X139376095Y-104120904D02*
X138576095Y-103854238D01*
X139376095Y-103587571D01*
X138499904Y-103511380D02*
X138499904Y-102901857D01*
X138995142Y-102711380D02*
X138995142Y-102444714D01*
X138576095Y-102330428D02*
X138576095Y-102711380D01*
X139376095Y-102711380D01*
X139376095Y-102330428D01*
X138576095Y-101568523D02*
X138576095Y-102025666D01*
X138576095Y-101797095D02*
X139376095Y-101797095D01*
X139261809Y-101873285D01*
X139185619Y-101949476D01*
X139147523Y-102025666D01*
M02*
