M48
; DRILL file {KiCad 5.1.6-c6e7f7d~87~ubuntu18.04.1} date Wed Nov 11 15:50:55 2020
; FORMAT={-:-/ absolute / inch / decimal}
; #@! TF.CreationDate,2020-11-11T15:50:55+02:00
; #@! TF.GenerationSoftware,Kicad,Pcbnew,5.1.6-c6e7f7d~87~ubuntu18.04.1
; #@! TF.FileFunction,Plated,1,2,PTH
FMAT,2
INCH
T1C0.0118
T2C0.0157
T3C0.0236
T4C0.0354
T5C0.0394
T6C0.0472
%
G90
G05
T1
X5.5441Y-2.9324
X5.5441Y-2.9915
X5.5736Y-2.9029
X5.5736Y-3.021
X5.6327Y-2.9029
X5.6327Y-3.021
X5.6622Y-2.9324
X5.6622Y-2.9915
T2
X5.19Y-3.4
X5.204Y-3.6107
X5.21Y-2.785
X5.225Y-4.555
X5.23Y-3.695
X5.2325Y-3.21
X5.2325Y-3.25
X5.2348Y-3.1697
X5.235Y-3.0249
X5.24Y-3.07
X5.25Y-3.34
X5.25Y-3.11
X5.261Y-2.635
X5.2661Y-3.4915
X5.29Y-3.565
X5.305Y-4.51
X5.34Y-3.63
X5.345Y-4.42
X5.345Y-4.51
X5.35Y-2.635
X5.35Y-3.115
X5.35Y-3.17
X5.35Y-3.25
X5.36Y-3.52
X5.36Y-4.21
X5.3615Y-3.8378
X5.365Y-3.425
X5.365Y-3.47
X5.375Y-3.305
X5.38Y-4.355
X5.38Y-4.445
X5.3916Y-2.8234
X5.3949Y-2.7276
X5.395Y-3.182
X5.395Y-3.395
X5.395Y-3.5
X5.4Y-4.275
X5.405Y-2.785
X5.426Y-3.7776
X5.426Y-3.8132
X5.4275Y-3.4725
X5.4278Y-2.8647
X5.44Y-2.755
X5.4443Y-3.8667
X5.4443Y-3.9023
X5.4522Y-3.937
X5.455Y-3.21
X5.455Y-3.25
X5.46Y-3.29
X5.463Y-3.3277
X5.47Y-4.205
X5.49Y-2.82
X5.5034Y-3.44
X5.5282Y-4.265
X5.5672Y-3.4875
X5.585Y-3.78
X5.61Y-4.355
X5.6179Y-3.975
X5.635Y-4.27
X5.635Y-4.32
X5.645Y-3.66
X5.69Y-3.615
X5.695Y-4.125
X5.715Y-3.89
X5.73Y-3.615
X5.74Y-4.075
X5.74Y-4.13
X5.7625Y-3.9482
X5.78Y-3.455
X5.81Y-3.635
X5.855Y-3.7
X5.865Y-3.625
X5.875Y-4.105
X5.89Y-4.01
X5.905Y-3.46
X5.905Y-3.5071
X5.935Y-4.01
X5.935Y-4.055
X5.935Y-4.1
X5.945Y-3.585
X5.95Y-2.635
X5.95Y-3.295
X5.95Y-3.3525
X5.95Y-4.185
X5.965Y-3.67
X5.97Y-3.875
X5.98Y-3.585
X5.985Y-4.115
X5.995Y-4.185
X6.015Y-3.585
X6.03Y-4.115
X6.035Y-3.55
X6.036Y-3.482
X6.04Y-4.185
X6.04Y-4.225
X6.06Y-2.77
T3
X5.385Y-4.53
X5.425Y-2.635
X5.425Y-4.53
X5.5Y-2.635
X5.5Y-2.925
X5.5Y-2.975
X5.525Y-2.85
X5.575Y-2.635
X5.575Y-2.85
X5.61Y-4.495
X5.625Y-2.85
X5.625Y-3.1
X5.65Y-2.635
X5.65Y-4.615
X5.675Y-2.85
X5.6774Y-4.235
X5.7Y-3.1
X5.7Y-3.15
X5.7Y-3.2
X5.7Y-3.25
X5.7Y-3.3
X5.7Y-3.35
X5.7Y-3.4
X5.725Y-2.635
X5.725Y-2.85
X5.735Y-4.3527
X5.765Y-2.685
X5.775Y-2.95
X5.775Y-3.0
X5.775Y-3.05
X5.775Y-3.1
X5.775Y-3.15
X5.775Y-3.2
X5.775Y-3.25
X5.775Y-3.3
X5.775Y-3.35
X5.775Y-3.4
X5.8Y-2.635
X5.8268Y-4.1871
X5.835Y-3.95
X5.875Y-2.635
X5.875Y-4.295
X5.88Y-4.655
X5.9Y-2.95
X5.9Y-3.0
X5.9Y-3.05
X5.9Y-3.1
X5.9Y-3.15
X5.9Y-3.2
X5.9Y-3.25
X5.9Y-3.3
X5.9Y-3.35
X5.9Y-3.4
X5.91Y-4.3707
X5.915Y-3.88
X5.95Y-4.515
X5.98Y-4.655
X6.01Y-4.295
X6.045Y-4.415
X6.08Y-4.655
X5.375Y-3.922
X5.375Y-3.9712
X5.375Y-4.0204
X5.375Y-4.0696
X5.375Y-4.1188
X5.375Y-4.168
T4
X5.9195Y-4.5758
X5.9994Y-4.5757
T5
X6.15Y-2.65
X6.15Y-2.75
X6.15Y-2.85
X6.15Y-2.95
X6.15Y-3.05
X6.15Y-3.15
X6.15Y-3.25
X6.15Y-3.35
X6.15Y-3.45
X6.15Y-3.55
X6.15Y-3.65
X6.15Y-3.75
X6.15Y-3.85
X6.15Y-3.95
X6.15Y-4.05
X6.15Y-4.15
X6.15Y-4.25
X6.15Y-4.35
X6.15Y-4.45
X6.15Y-4.55
X6.15Y-4.65
X5.15Y-2.65
X5.15Y-2.75
X5.15Y-2.85
X5.15Y-2.95
X5.15Y-3.05
X5.15Y-3.15
X5.15Y-3.25
X5.15Y-3.35
X5.15Y-3.45
X5.15Y-3.55
X5.15Y-3.65
X5.15Y-3.75
X5.15Y-3.85
X5.15Y-3.95
X5.15Y-4.05
X5.15Y-4.15
X5.15Y-4.25
X5.15Y-4.35
X5.15Y-4.45
X5.15Y-4.55
X5.15Y-4.65
T6
X5.6031Y-2.962
T3
G00X5.5083Y-4.4164
M15
G01X5.5083Y-4.44
M16
G05
G00X5.5083Y-4.553
M15
G01X5.5083Y-4.5767
M16
G05
G00X5.7917Y-4.4164
M15
G01X5.7917Y-4.44
M16
G05
G00X5.7917Y-4.553
M15
G01X5.7917Y-4.5767
M16
G05
T0
M30
