G04 #@! TF.GenerationSoftware,KiCad,Pcbnew,5.1.6-c6e7f7d~87~ubuntu18.04.1*
G04 #@! TF.CreationDate,2020-11-11T15:50:36+02:00*
G04 #@! TF.ProjectId,ESP32-S2-DevKit-USB_Rev_B,45535033-322d-4533-922d-4465764b6974,B*
G04 #@! TF.SameCoordinates,Original*
G04 #@! TF.FileFunction,Soldermask,Top*
G04 #@! TF.FilePolarity,Negative*
%FSLAX46Y46*%
G04 Gerber Fmt 4.6, Leading zero omitted, Abs format (unit mm)*
G04 Created by KiCad (PCBNEW 5.1.6-c6e7f7d~87~ubuntu18.04.1) date 2020-11-11 15:50:36*
%MOMM*%
%LPD*%
G01*
G04 APERTURE LIST*
%ADD10R,1.501600X1.101600*%
%ADD11R,1.101600X1.501600*%
%ADD12R,0.651600X1.301600*%
%ADD13C,1.879600*%
%ADD14R,1.879600X1.879600*%
%ADD15C,0.100000*%
%ADD16R,2.101600X2.701600*%
%ADD17R,0.801600X2.001600*%
%ADD18R,0.901600X2.001600*%
%ADD19R,3.101600X1.701600*%
%ADD20R,1.117600X1.117600*%
%ADD21R,1.101600X1.901600*%
%ADD22R,0.601600X0.651600*%
%ADD23C,1.501600*%
%ADD24R,1.501600X1.501600*%
%ADD25R,0.901600X0.901600*%
%ADD26C,1.101600*%
%ADD27C,1.254000*%
%ADD28R,1.301600X0.651600*%
%ADD29R,0.601600X1.751600*%
%ADD30R,0.426600X1.751600*%
%ADD31C,0.701600*%
%ADD32R,1.201600X1.101600*%
%ADD33O,1.301600X1.901600*%
%ADD34C,0.801600*%
%ADD35R,1.601600X1.001600*%
%ADD36R,0.651600X0.601600*%
%ADD37R,1.601600X1.101600*%
%ADD38R,4.201600X4.201600*%
%ADD39R,1.001600X1.601600*%
%ADD40R,1.201600X1.201600*%
%ADD41R,1.371600X1.625600*%
%ADD42O,1.601600X1.101600*%
G04 APERTURE END LIST*
D10*
X153860500Y-109024500D03*
X153860500Y-105224500D03*
D11*
X145410000Y-108204000D03*
X141610000Y-108204000D03*
D10*
X148336000Y-105405000D03*
X148336000Y-101605000D03*
X140081000Y-101595000D03*
X140081000Y-97795000D03*
X137541000Y-112273000D03*
X137541000Y-116073000D03*
D12*
X143195000Y-103474900D03*
X144145000Y-103474900D03*
X145095000Y-103474900D03*
X145095000Y-106075100D03*
X144145000Y-106075100D03*
X143195000Y-106075100D03*
D13*
X156210000Y-118110000D03*
X156210000Y-74930000D03*
X156210000Y-72390000D03*
X156210000Y-69850000D03*
D14*
X156210000Y-67310000D03*
D13*
X156210000Y-77470000D03*
X156210000Y-80010000D03*
X156210000Y-85090000D03*
X156210000Y-82550000D03*
X156210000Y-87630000D03*
X156210000Y-90170000D03*
X156210000Y-95250000D03*
X156210000Y-92710000D03*
X156210000Y-97790000D03*
X156210000Y-100330000D03*
X156210000Y-105410000D03*
X156210000Y-102870000D03*
X156210000Y-113030000D03*
X156210000Y-115570000D03*
X156210000Y-110490000D03*
X156210000Y-107950000D03*
D15*
G36*
X151034049Y-101727800D02*
G01*
X151822949Y-100826200D01*
X152469051Y-100826200D01*
X153257951Y-101727800D01*
X151034049Y-101727800D01*
G37*
D16*
X152146000Y-102977000D03*
D17*
X150646000Y-100127000D03*
D18*
X152146000Y-100127000D03*
D17*
X153646000Y-100127000D03*
D19*
X140843000Y-103130500D03*
X140843000Y-105530500D03*
D20*
X144272000Y-101346000D03*
X146050000Y-101346000D03*
D21*
X139807000Y-93599000D03*
X137307000Y-93599000D03*
D22*
X137033000Y-95123000D03*
X138049000Y-95123000D03*
X140081000Y-95123000D03*
X139065000Y-95123000D03*
D23*
X152384760Y-116222780D03*
D24*
X150355300Y-116225320D03*
D25*
X151130000Y-110236000D03*
X152654000Y-110236000D03*
D26*
X132588000Y-87630000D03*
D10*
X151475440Y-109026960D03*
X151475440Y-107124500D03*
X149265640Y-108079540D03*
D27*
X144322800Y-115062000D03*
X148971000Y-69215000D03*
D28*
X148687000Y-111826000D03*
X148687000Y-112776000D03*
X148687000Y-113726000D03*
X151287000Y-111826000D03*
X151287000Y-113726000D03*
D29*
X142122500Y-112547000D03*
D30*
X142860000Y-112547000D03*
X143510000Y-112547000D03*
X144160000Y-112547000D03*
D29*
X144897500Y-112547000D03*
D31*
X141510000Y-113797000D03*
X145510000Y-113797000D03*
D32*
X142010000Y-117097000D03*
X145010000Y-117097000D03*
D33*
X139910000Y-115947000D03*
X139910000Y-112477000D03*
X147110000Y-112477000D03*
X147110000Y-115947000D03*
D34*
X134758000Y-94996000D03*
X132958000Y-94996000D03*
D35*
X133858000Y-92819000D03*
X133858000Y-97173000D03*
D20*
X154495500Y-113347500D03*
X152717500Y-113347500D03*
D22*
X154559000Y-110236000D03*
X153543000Y-110236000D03*
X148590000Y-92964000D03*
X147574000Y-92964000D03*
X148336000Y-110109000D03*
X149352000Y-110109000D03*
X154559000Y-111125000D03*
X153543000Y-111125000D03*
D36*
X139573000Y-107823000D03*
X139573000Y-106807000D03*
X140462000Y-106807000D03*
X140462000Y-107823000D03*
X132842000Y-113029999D03*
X132842000Y-114045999D03*
X132461000Y-84582000D03*
X132461000Y-85598000D03*
X132461000Y-81533999D03*
X132461000Y-82549999D03*
X153924000Y-72009000D03*
X153924000Y-70993000D03*
X133350000Y-80518000D03*
X133350000Y-79502000D03*
D35*
X153035000Y-97173000D03*
X153035000Y-92819000D03*
D34*
X152135000Y-94996000D03*
X153935000Y-94996000D03*
D20*
X151765000Y-105410000D03*
X149987000Y-105410000D03*
D36*
X133350000Y-82549999D03*
X133350000Y-81533999D03*
D13*
X130810000Y-118110000D03*
X130810000Y-74930000D03*
X130810000Y-72390000D03*
X130810000Y-69850000D03*
D14*
X130810000Y-67310000D03*
D13*
X130810000Y-77470000D03*
X130810000Y-80010000D03*
X130810000Y-85090000D03*
X130810000Y-82550000D03*
X130810000Y-87630000D03*
X130810000Y-90170000D03*
X130810000Y-95250000D03*
X130810000Y-92710000D03*
X130810000Y-97790000D03*
X130810000Y-100330000D03*
X130810000Y-105410000D03*
X130810000Y-102870000D03*
X130810000Y-113030000D03*
X130810000Y-115570000D03*
X130810000Y-110490000D03*
X130810000Y-107950000D03*
D36*
X132461000Y-79502000D03*
X132461000Y-80518000D03*
X136017000Y-95631000D03*
X136017000Y-96647000D03*
D22*
X138049000Y-91948000D03*
X139065000Y-91948000D03*
X141732000Y-92964000D03*
X142748000Y-92964000D03*
D37*
X143346000Y-94920000D03*
X143346000Y-96520000D03*
X143346000Y-98120000D03*
X148246000Y-98120000D03*
X148246000Y-96520000D03*
X148246000Y-94920000D03*
D38*
X142320000Y-75234000D03*
D35*
X134760000Y-67184000D03*
D24*
X142320000Y-75234000D03*
D35*
X134760000Y-68684000D03*
X134760000Y-70184000D03*
X134760000Y-71684000D03*
X134760000Y-73184000D03*
X134760000Y-74684000D03*
X134760000Y-76184000D03*
X134760000Y-77684000D03*
X134760000Y-79184000D03*
X134760000Y-80684000D03*
X134760000Y-82184000D03*
X134760000Y-83684000D03*
X134760000Y-85184000D03*
X134760000Y-86684000D03*
X134760000Y-88184000D03*
X134760000Y-89684000D03*
D39*
X136760000Y-90434000D03*
X138260000Y-90434000D03*
X139760000Y-90434000D03*
X141260000Y-90434000D03*
X142760000Y-90434000D03*
X144260000Y-90434000D03*
X145760000Y-90434000D03*
X147260000Y-90434000D03*
X148760000Y-90434000D03*
X150260000Y-90434000D03*
D35*
X152260000Y-89684000D03*
X152260000Y-88184000D03*
X152260000Y-86684000D03*
X152260000Y-85184000D03*
X152260000Y-83684000D03*
X152260000Y-82184000D03*
X152260000Y-80684000D03*
X152260000Y-79184000D03*
X152260000Y-77684000D03*
X152260000Y-76184000D03*
X152260000Y-74684000D03*
X152260000Y-73184000D03*
X152260000Y-71684000D03*
X152260000Y-70184000D03*
X152260000Y-68684000D03*
X152260000Y-67184000D03*
D40*
X140820000Y-73734000D03*
X142320000Y-73734000D03*
X143820000Y-73734000D03*
X140820000Y-75234000D03*
X143820000Y-75234000D03*
X140820000Y-76734000D03*
X142320000Y-76734000D03*
X143820000Y-76734000D03*
D36*
X150241000Y-93472000D03*
X150241000Y-94488000D03*
X141986000Y-100711000D03*
X141986000Y-99695000D03*
D41*
X133350000Y-117729000D03*
X135382000Y-117729000D03*
D20*
X150241000Y-95631000D03*
X150241000Y-97409000D03*
X132842000Y-66929000D03*
X132842000Y-68707000D03*
D36*
X136017000Y-94234000D03*
X136017000Y-93218000D03*
X141986000Y-98044000D03*
X141986000Y-97028000D03*
D20*
X154178000Y-67056000D03*
X154178000Y-68834000D03*
D22*
X133350000Y-69977000D03*
X132334000Y-69977000D03*
D12*
X135697000Y-113254000D03*
X134747000Y-113254000D03*
X133797000Y-113254000D03*
X135697000Y-115854000D03*
X133797000Y-115854000D03*
D20*
X146875500Y-107950000D03*
X146875500Y-109728000D03*
D42*
X136525000Y-105868000D03*
X136525000Y-104618000D03*
X136525000Y-103368000D03*
X136525000Y-102118000D03*
X136525000Y-100868000D03*
X136525000Y-99618000D03*
D36*
X146939000Y-104013000D03*
X146939000Y-105029000D03*
X146939000Y-105918000D03*
X146939000Y-106934000D03*
D10*
X132877560Y-108778040D03*
X132877560Y-110680500D03*
X135087360Y-109725460D03*
X136819640Y-109730540D03*
X139029440Y-108775500D03*
X139029440Y-110677960D03*
D11*
X133474460Y-99989640D03*
X134429500Y-102199440D03*
X132527040Y-102199440D03*
D22*
X136525000Y-108585000D03*
X135509000Y-108585000D03*
X132969000Y-98425000D03*
X133985000Y-98425000D03*
D36*
X140335000Y-110236000D03*
X140335000Y-109220000D03*
D11*
X134427000Y-104056000D03*
X132527000Y-104056000D03*
X133477000Y-106256000D03*
M02*
